<?xml version="1.0" encoding="UTF-8"?>
<svg id="Layer_1" xmlns="http://www.w3.org/2000/svg" version="1.1" viewBox="0 0 371.2 439.5">
  <!-- Generator: Adobe Illustrator 29.5.1, SVG Export Plug-In . SVG Version: 2.1.0 Build 141)  -->
  <defs>
    <style>
      .st0 {
        fill: #e21f25;
      }
    </style>
  </defs>
  <path class="st0" d="M219.3,284.9c9.6,0,17.5,7.8,17.5,17.5v108.7c0,9.6-7.8,17.5-17.5,17.5h-108.7c-9.6,0-17.5-7.8-17.5-17.5v-108.7c0-9.6,7.8-17.5,17.5-17.5h108.7M219.3,279.9h-108.7c-12.4,0-22.5,10.1-22.5,22.5v108.7c0,12.4,10.1,22.5,22.5,22.5h108.7c12.4,0,22.5-10.1,22.5-22.5v-108.7c0-12.4-10.1-22.5-22.5-22.5h0Z"/>
</svg>