<?xml version="1.0" encoding="UTF-8"?>
<svg id="Layer_1" xmlns="http://www.w3.org/2000/svg" version="1.1" viewBox="0 0 371.2 439.5">
  <!-- Generator: Adobe Illustrator 29.5.1, SVG Export Plug-In . SVG Version: 2.1.0 Build 141)  -->
  <defs>
    <style>
      .st0 {
        fill: #979b9d;
      }
    </style>
  </defs>
  <path class="st0" d="M242.2,8.9c11.3,0,20.6,9.2,20.6,20.6v191.4c0,11.3-9.2,20.6-20.6,20.6H50.8c-11.3,0-20.6-9.2-20.6-20.6V29.5c0-11.3,9.2-20.6,20.6-20.6h191.4M242.2,3.9H50.8c-14.1,0-25.6,11.4-25.6,25.6v191.4c0,14.1,11.5,25.6,25.6,25.6h191.4c14.1,0,25.6-11.4,25.6-25.6V29.5c0-14.1-11.5-25.6-25.6-25.6h0Z"/>
</svg>