<?xml version="1.0" encoding="UTF-8"?>
<svg id="Layer_1" data-name="Layer 1" xmlns="http://www.w3.org/2000/svg" viewBox="0 0 371.17 439.49">
  <defs>
    <style>
      .cls-1 {
        fill: #012b53;
      }
    </style>
  </defs>
  <path class="cls-1" d="M242.16,8.88c11.34,0,20.57,9.23,20.57,20.57v191.4c0,11.34-9.23,20.57-20.57,20.57H50.76c-11.34,0-20.57-9.23-20.57-20.57V29.45c0-11.34,9.23-20.57,20.57-20.57h191.4M242.16,3.88H50.76c-14.12,0-25.57,11.45-25.57,25.57v191.4c0,14.12,11.45,25.57,25.57,25.57h191.4c14.12,0,25.57-11.45,25.57-25.57V29.45c0-14.12-11.45-25.57-25.57-25.57h0Z"/>
</svg>