<?xml version="1.0" encoding="UTF-8"?>
<svg id="Layer_1" data-name="Layer 1" xmlns="http://www.w3.org/2000/svg" viewBox="0 0 371.17 439.49">
  <defs>
    <style>
      .cls-1 {
        fill: #b4934d;
      }
    </style>
  </defs>
  <path class="cls-1" d="M219.28,284.88c9.63,0,17.46,7.83,17.46,17.46v108.73c0,9.63-7.83,17.46-17.46,17.46h-108.73c-9.63,0-17.46-7.83-17.46-17.46v-108.73c0-9.63,7.83-17.46,17.46-17.46h108.73M219.28,279.88h-108.73c-12.4,0-22.46,10.06-22.46,22.46v108.73c0,12.4,10.06,22.46,22.46,22.46h108.73c12.4,0,22.46-10.06,22.46-22.46v-108.73c0-12.4-10.06-22.46-22.46-22.46h0Z"/>
</svg>