<?xml version="1.0" encoding="UTF-8"?>
<svg id="Layer_2" data-name="Layer 2" xmlns="http://www.w3.org/2000/svg" xmlns:xlink="http://www.w3.org/1999/xlink" viewBox="0 0 254.96 184.99">
  <defs>
    <style>
      .cls-1, .cls-2, .cls-3, .cls-4 {
        fill: none;
      }

      .cls-5 {
        stroke-width: .06px;
      }

      .cls-5, .cls-6, .cls-2, .cls-3 {
        stroke-miterlimit: 10;
      }

      .cls-5, .cls-6, .cls-2, .cls-3, .cls-4 {
        stroke: #000;
      }

      .cls-5, .cls-6, .cls-7 {
        fill: #004aad;
        fill-rule: evenodd;
      }

      .cls-6, .cls-2 {
        stroke-width: .06px;
      }

      .cls-3 {
        stroke-width: .06px;
      }

      .cls-8 {
        fill: #e32225;
      }

      .cls-9 {
        clip-path: url(#clippath-11);
      }

      .cls-10 {
        clip-path: url(#clippath-10);
      }

      .cls-11 {
        clip-path: url(#clippath-13);
      }

      .cls-12 {
        clip-path: url(#clippath-12);
      }

      .cls-13 {
        clip-path: url(#clippath-1);
      }

      .cls-14 {
        clip-path: url(#clippath-3);
      }

      .cls-15 {
        clip-path: url(#clippath-4);
      }

      .cls-16 {
        clip-path: url(#clippath-2);
      }

      .cls-17 {
        clip-path: url(#clippath-7);
      }

      .cls-18 {
        clip-path: url(#clippath-6);
      }

      .cls-19 {
        clip-path: url(#clippath-9);
      }

      .cls-20 {
        clip-path: url(#clippath-8);
      }

      .cls-21 {
        clip-path: url(#clippath-5);
      }

      .cls-22 {
        fill: #fff;
      }

      .cls-23 {
        fill: #100f0d;
      }

      .cls-24 {
        clip-path: url(#clippath);
      }
    </style>
    <clipPath id="clippath">
      <rect class="cls-1" x="51.7" y="1.48" width="95.4" height="119.52"/>
    </clipPath>
    <clipPath id="clippath-1">
      <rect class="cls-1" x="61.11" y="10.96" width="88.82" height="88.82"/>
    </clipPath>
    <clipPath id="clippath-2">
      <rect class="cls-1" x="88.01" y="11.71" width="59.29" height="76"/>
    </clipPath>
    <clipPath id="clippath-3">
      <rect class="cls-1" x="61.9" y="18.4" width="61.18" height="77.7"/>
    </clipPath>
    <clipPath id="clippath-4">
      <rect class="cls-1" x="90.26" y="67.72" width="15.4" height="15.19"/>
    </clipPath>
    <clipPath id="clippath-5">
      <rect class="cls-1" x="111.19" y="70.48" width="4.29" height="4.83"/>
    </clipPath>
    <clipPath id="clippath-6">
      <rect class="cls-1" x="104.98" y="84.29" width="4.14" height="4.41"/>
    </clipPath>
    <clipPath id="clippath-7">
      <rect class="cls-1" x="104.98" y="66.23" width="4.14" height="4.25"/>
    </clipPath>
    <clipPath id="clippath-8">
      <rect class="cls-1" x="96" y="18.85" width="23.01" height="23.03"/>
    </clipPath>
    <clipPath id="clippath-9">
      <rect class="cls-1" x="95.99" y="18.85" width="23.03" height="23.03"/>
    </clipPath>
    <clipPath id="clippath-10">
      <rect class="cls-1" x="100.14" y="2.81" width="8.98" height="8.98"/>
    </clipPath>
    <clipPath id="clippath-11">
      <rect class="cls-1" x="100.25" y="2.98" width="8.22" height="8.22" transform="translate(.09 15.41) rotate(-8.45)"/>
    </clipPath>
    <clipPath id="clippath-12">
      <rect class="cls-1" x="100.25" y="2.98" width="8.22" height="8.22" transform="translate(.09 15.41) rotate(-8.45)"/>
    </clipPath>
    <clipPath id="clippath-13">
      <rect class="cls-1" x="100.25" y="2.98" width="8.22" height="8.22" transform="translate(.09 15.41) rotate(-8.45)"/>
    </clipPath>
  </defs>
  <g id="ec012d85b9">
    <g class="cls-24">
      <path class="cls-23" d="M119.19,54.41c-.53,2.36-3.15,3.62-5.78,4.7-.43.18-.88.32-1.32.46-1.38.43-2.8.87-3.8,2.39-.36.55-.62,1.12-.89,1.68-.15.34-.31.67-.49,1-.8,1.48-2.44,2.92-4.39,2.09-1.85-.78-3.4-2.73-4.61-5.79-.46-1.17-1.52-1.71-2.46-2.2-.34-.17-.65-.33-.92-.51-1.01-.68-1.63-1.81-1.65-3.03-.02-.94.3-1.84.93-2.55.76-.87,2.04-1.39,3.26-1.39.35,0,.68.04,1,.13.42.11.86.39,1.33.68.41.26.83.52,1.3.71,1.18.49,2.41.79,3.65.9,1.45.13,3.58.06,5.51-1.06.8-.46,1.47-1.05,2.11-1.62.73-.64,1.42-1.25,2.25-1.65,1.37-.64,2.61-.58,3.58.19,1.24.99,1.8,3,1.38,4.88ZM118.83,48.25c-1.47-1.18-3.35-1.32-5.3-.4-1.04.49-1.85,1.21-2.63,1.9-.61.54-1.19,1.05-1.85,1.44-1.56.9-3.33.96-4.54.84-1.08-.1-2.15-.36-3.18-.78-.34-.14-.69-.36-1.06-.59-.55-.34-1.11-.7-1.77-.88-2.05-.55-4.54.19-5.92,1.77-.89,1.02-1.36,2.32-1.33,3.67.04,1.75.93,3.37,2.38,4.35.34.23.71.43,1.08.61.74.39,1.45.75,1.68,1.34,1.38,3.48,3.23,5.73,5.49,6.69.62.26,1.22.37,1.8.37,2.01,0,3.72-1.44,4.67-3.19.19-.35.36-.72.53-1.08.25-.53.48-1.03.78-1.48.67-1.02,1.66-1.33,2.91-1.72.47-.15.96-.3,1.46-.5,2.24-.93,5.99-2.47,6.75-5.86.56-2.5-.22-5.12-1.96-6.51ZM145.12,49.45c-1.11.38-2.49,0-4.22-.72-.04-.02-.07-.04-.11-.05-4.02-1.61-8.09-.18-9.9,3.47-.65,1.32-.78,2.91-.91,4.45-.2,2.35-.38,4.57-2.31,5.59-.68.36-1.45.55-2.27.76-1.28.33-2.6.67-3.7,1.66-2.13,1.89-2.41,4.89-.67,7.3.31.43.64.83.97,1.22.53.63,1.03,1.23,1.37,1.9.47.93.26,1.8,0,2.89-.2.82-.43,1.74-.33,2.76.28,2.67,2.05,4.87,3.56,6.49.17.19.35.37.53.57.12.13.26.27.39.4-6.77,4.63-14.68,7.08-22.95,7.08-3.74,0-7.44-.51-11.03-1.51,1.02-1.1,2.06-1.87,3.24-2.41.62-.28,1.41-.43,2.24-.59,1.82-.34,3.89-.73,4.87-2.71.51-1.02.61-2.31.27-3.64-.76-2.96-2.72-6.55-5.96-7.74-1.15-.42-2.35-.61-3.5-.78-.36-.06-.71-.11-1.07-.17-3.07-.53-4.55-1.66-4.93-3.76-.75-4.13-2.49-5.4-6.61-4.86-.14.02-.28.04-.41.06-1.01.15-1.28.14-1.58-.35-.16-.25-.28-.55-.4-.87-.15-.38-.3-.78-.56-1.17-.42-.64-1.03-1.05-1.75-1.17-1.93-.35-4.3,1.38-5.72,2.42-.16.12-.31.23-.44.32-1.98,1.4-3.56,2.14-5.21,1.59-1.53-4.34-2.3-8.89-2.3-13.54,0-10.4,3.9-20.26,10.98-27.85.56.45,1.14.86,1.73,1.21,1,.58,2.27.85,3.62,1.13,2.1.44,4.09.85,4.69,2.35.28.74.27,1.59.24,2.41-.06,1.48.06,3.57,1.95,4.77.96.62,2.03.86,3.07,1.09l.33.07c1.23.28,2.27,1.07,3.37,1.92.99.76,2.02,1.55,3.27,2,.6.22,1.19.32,1.76.32.66,0,1.3-.14,1.88-.43,1.29-.63,2.32-1.96,2.9-3.73.19-.56.35-1.13.5-1.69.63-2.27,1.12-4.06,3.45-4.76.34-.1.83-.08,1.31-.06.67.03,1.38.06,1.99-.2,1.19-.5,1.55-1.59,1.84-2.47.2-.63.38-1.17.79-1.47.3-.22.63-.22,1.19-.22.69.01,1.55.02,2.38-.66,1.65-1.39,1.33-3.6,1.1-5.21l-.04-.24c-.21-1.33-.02-2.11.66-2.69.22-.18.44-.33.64-.47.73-.49,1.54-1.05,1.65-2.56,13.29,5.8,22.46,18.14,24.17,32.57ZM145.35,56.77c-.02.28-.05.55-.07.83-.04.53-.08,1.06-.15,1.59-.04.33-.1.66-.15.98-.07.47-.13.94-.22,1.41-.06.35-.15.69-.22,1.04-.09.44-.18.88-.28,1.32-.08.35-.19.71-.29,1.06-.11.42-.22.84-.34,1.25-.11.36-.24.71-.36,1.06-.14.4-.26.81-.41,1.21-.13.35-.28.7-.42,1.05-.15.39-.31.78-.47,1.17-.15.35-.32.69-.48,1.03-.18.38-.35.76-.54,1.13-.17.34-.36.67-.54,1-.2.36-.4.74-.61,1.1-.19.33-.4.64-.6.96-.22.36-.44.72-.67,1.06-.21.32-.43.62-.65.93-.24.35-.48.69-.74,1.03-.23.3-.47.59-.7.89-.26.33-.52.66-.8.98-.25.29-.5.56-.76.84-.28.32-.56.63-.86.94-.26.27-.54.53-.81.8-.3.3-.6.6-.91.89-.28.26-.57.51-.86.76-.32.28-.64.56-.98.84-.29.24-.6.48-.9.71-.25.19-.49.38-.74.56-.18-.18-.34-.37-.51-.55-.18-.2-.36-.4-.54-.59-1.34-1.43-2.89-3.35-3.12-5.54-.08-.73.1-1.44.28-2.2.29-1.19.62-2.54-.12-4.02-.43-.84-1.01-1.53-1.58-2.21-.32-.38-.62-.74-.9-1.12-1.25-1.73-1.08-3.78.43-5.12.81-.73,1.88-1,3.02-1.29.88-.22,1.78-.45,2.63-.9,2.72-1.44,2.96-4.34,3.18-6.9.12-1.45.24-2.82.74-3.86,1.03-2.07,2.94-3.22,5.14-3.22.85,0,1.74.17,2.64.52.09.05.16.07.17.08,1.66.69,3.39,1.24,4.98.86.02.24.04.48.06.72.01.19.03.38.04.57.03.65.05,1.29.05,1.92,0,.82-.03,1.63-.07,2.44ZM91.81,93.18c-.34-.11-.67-.23-1-.35-.3-.11-.61-.21-.91-.33-.44-.17-.87-.35-1.29-.54-.28-.12-.56-.23-.83-.35-.46-.21-.91-.43-1.36-.66-.23-.12-.47-.22-.7-.34-.59-.31-1.17-.64-1.74-.97-.08-.05-.17-.09-.26-.14-.65-.39-1.29-.8-1.92-1.22-.19-.13-.38-.27-.57-.4-.43-.3-.86-.6-1.28-.92-.23-.18-.46-.37-.69-.55-.36-.28-.73-.57-1.08-.87-.25-.2-.48-.42-.72-.63-.33-.29-.66-.58-.97-.88-.25-.23-.47-.47-.71-.7-.3-.3-.61-.6-.9-.91-.23-.25-.46-.5-.69-.75-.28-.31-.56-.63-.83-.95-.22-.26-.43-.53-.65-.79-.26-.33-.52-.65-.77-.99-.21-.28-.41-.55-.61-.83-.24-.34-.48-.68-.71-1.03-.19-.29-.38-.58-.56-.87-.22-.35-.45-.71-.66-1.07-.18-.3-.35-.6-.52-.9-.2-.37-.4-.74-.6-1.11-.16-.3-.31-.61-.46-.92-.18-.38-.36-.77-.54-1.16-.14-.31-.28-.62-.41-.94-.06-.13-.11-.27-.16-.4,1.96.15,3.76-.88,5.45-2.07.14-.1.29-.21.46-.33,1.04-.77,3.23-2.35,4.46-2.13.28.05.49.2.66.46.16.24.28.54.4.87.15.37.3.76.54,1.14.91,1.45,2.24,1.25,3.21,1.1.12-.02.25-.04.38-.06,3.3-.43,4.19.23,4.79,3.53.68,3.7,3.9,4.67,6.26,5.08.37.06.74.12,1.1.18,1.13.18,2.19.34,3.19.7,2.64.97,4.31,4.17,4.94,6.62.24.94.19,1.82-.15,2.5h0c-.62,1.26-2.12,1.54-3.71,1.83-.89.17-1.82.34-2.62.7-1.97.91-3.35,2.28-4.28,3.38ZM106.5,13.49c.21,0,.42.03.64.04.43.03.86.05,1.28.09.25.02.51.06.76.09.39.04.77.09,1.15.14.26.04.53.09.79.13.37.06.73.12,1.1.19.27.05.54.12.82.17.35.08.7.15,1.05.23.28.06.56.14.83.21.34.09.68.18,1.02.28.28.08.56.17.83.26.33.1.66.21,1,.32.28.09.56.2.84.3.24.09.48.18.72.27,0,.04,0,.09,0,.15v.3c-.03.8-.3.98-.95,1.42-.25.17-.52.35-.79.58-1.49,1.26-1.41,2.99-1.23,4.18l.03.23c.2,1.37.42,2.92-.53,3.72-.34.28-.71.29-1.3.28-.64-.01-1.43-.02-2.19.54-.82.61-1.11,1.5-1.37,2.28-.26.81-.43,1.28-.92,1.48-.28.12-.79.09-1.28.08-.59-.03-1.25-.06-1.85.12-3.2.95-3.89,3.46-4.56,5.89-.15.53-.29,1.07-.47,1.61-.45,1.35-1.18,2.34-2.07,2.78-.69.34-1.49.35-2.37.04-1-.36-1.89-1.04-2.82-1.76-1.19-.92-2.42-1.86-4.01-2.21l-.33-.08c-.94-.21-1.82-.41-2.54-.87-.91-.58-1.27-1.57-1.19-3.31.04-.94.05-2.03-.34-3.08-.93-2.33-3.56-2.87-5.88-3.36-1.22-.25-2.37-.49-3.13-.94-.49-.28-.96-.6-1.43-.96.15-.15.29-.29.44-.43.24-.23.47-.46.71-.68.26-.24.53-.48.79-.71.24-.21.49-.43.74-.64.27-.23.54-.45.83-.67.25-.2.5-.4.76-.6.29-.21.57-.42.86-.62.26-.19.52-.37.78-.55.29-.2.59-.39.88-.58.27-.17.53-.35.81-.51.3-.19.61-.36.91-.53.28-.16.55-.32.82-.47.31-.17.63-.33.94-.49.28-.14.56-.29.84-.42.32-.15.64-.3.97-.44.28-.13.57-.26.85-.38.33-.14.66-.26,1-.39.29-.11.58-.23.87-.33.34-.12.68-.23,1.02-.35.29-.1.58-.2.88-.29.35-.11.7-.2,1.05-.3.3-.08.59-.16.88-.24.36-.09.73-.17,1.09-.25.29-.06.58-.14.87-.19.38-.08.76-.14,1.14-.2.29-.05.57-.1.86-.15.4-.06.8-.11,1.21-.15.27-.03.54-.07.81-.1.45-.04.91-.07,1.36-.1.23-.02.45-.04.68-.05.69-.04,1.38-.05,2.06-.05.65,0,1.3.02,1.94.05ZM134.28,96.01c-8.7,6.24-18.97,9.53-29.72,9.53-5.21,0-10.37-.78-15.33-2.34-15.16-4.76-27.42-16.51-32.81-31.45-2.02-5.58-3.04-11.44-3.04-17.42,0-13.34,5.11-25.97,14.39-35.57,9.5-9.89,22.25-15.41,35.97-15.62v8.69c-1.91.04-3.79.18-5.64.46-.86.13-1.72.3-2.57.48-8.16,1.75-15.6,5.87-21.52,12.03-7.7,7.97-11.94,18.46-11.94,29.54,0,4.97.85,9.84,2.52,14.47.84,2.33,1.88,4.56,3.1,6.68,5.28,9.18,13.92,16.23,24.15,19.44h0c4.12,1.29,8.4,1.94,12.73,1.94,8.92,0,17.45-2.74,24.67-7.92,11.16-7.96,17.82-20.9,17.82-34.61,0-1.46-.08-2.97-.23-4.47h0c-1.64-15.7-11.75-29.11-26.4-34.98-4.79-1.94-9.84-2.96-15.04-3.05V3.13c2.81.04,5.61.3,8.34.8.45.09.87-.22.95-.66s-.22-.87-.66-.95c-3.09-.56-6.27-.85-9.45-.85-14.48,0-27.96,5.73-37.97,16.14-9.58,9.91-14.85,22.95-14.85,36.71,0,6.18,1.05,12.23,3.14,17.98,5.56,15.42,18.21,27.55,33.86,32.46,4.86,1.52,9.9,2.32,15,2.4v12.19h-15.32c-.45,0-.81.37-.81.82s.36.82.81.82h32.28c.45,0,.81-.37.81-.82s-.36-.82-.81-.82h-15.32v-12.2c10.79-.16,21.1-3.54,29.85-9.83.37-.26.45-.77.19-1.14-.27-.37-.77-.45-1.14-.19"/>
    </g>
    <g class="cls-13">
      <path class="cls-22" d="M149.93,55.37c0,.73-.02,1.45-.05,2.18s-.09,1.45-.16,2.17c-.07.72-.16,1.45-.27,2.16-.11.72-.23,1.43-.37,2.15-.14.71-.3,1.42-.48,2.13-.18.7-.37,1.41-.58,2.1s-.44,1.38-.68,2.07c-.25.69-.51,1.36-.78,2.03s-.57,1.34-.88,1.99c-.31.66-.64,1.31-.98,1.95-.34.64-.7,1.27-1.07,1.9-.37.62-.76,1.24-1.17,1.84-.4.6-.82,1.2-1.25,1.78-.43.59-.88,1.16-1.34,1.72s-.94,1.11-1.42,1.65-.99,1.07-1.5,1.58-1.04,1.02-1.58,1.51c-.54.49-1.09.96-1.65,1.42-.56.46-1.14.91-1.72,1.34-.59.43-1.18.85-1.78,1.25s-1.22.79-1.84,1.17c-.62.37-1.25.73-1.9,1.07-.64.35-1.29.67-1.95.98-.66.31-1.32.6-1.99.88s-1.35.54-2.03.78c-.68.25-1.37.47-2.07.69-.7.21-1.39.4-2.1.58-.7.18-1.41.34-2.13.48-.71.14-1.43.27-2.15.37-.72.11-1.44.2-2.16.27-.73.07-1.45.13-2.17.16s-1.45.05-2.18.05-1.45-.02-2.18-.05-1.45-.09-2.17-.16c-.72-.07-1.44-.16-2.16-.27-.72-.11-1.43-.23-2.15-.37-.71-.14-1.42-.3-2.13-.48-.7-.18-1.41-.37-2.1-.58-.7-.21-1.39-.44-2.07-.69-.68-.25-1.36-.51-2.03-.78s-1.34-.57-1.99-.88c-.66-.31-1.31-.64-1.95-.98-.64-.34-1.27-.7-1.9-1.07-.63-.37-1.24-.76-1.84-1.17s-1.2-.82-1.78-1.25c-.58-.43-1.16-.88-1.72-1.34s-1.11-.94-1.65-1.42c-.54-.49-1.07-.99-1.58-1.51-.52-.51-1.01-1.04-1.5-1.58s-.96-1.09-1.42-1.65-.91-1.13-1.34-1.72c-.43-.58-.85-1.18-1.26-1.78-.4-.6-.79-1.22-1.17-1.84-.37-.62-.73-1.26-1.07-1.9-.34-.64-.67-1.29-.98-1.95-.31-.66-.6-1.32-.88-1.99s-.54-1.35-.78-2.03-.47-1.37-.68-2.07c-.21-.7-.4-1.4-.58-2.1-.18-.71-.33-1.41-.48-2.13-.14-.71-.27-1.43-.37-2.15-.11-.72-.2-1.44-.27-2.16s-.12-1.45-.16-2.17c-.04-.73-.05-1.45-.05-2.18s.02-1.45.05-2.18c.04-.73.09-1.45.16-2.17.07-.73.16-1.45.27-2.16.11-.72.23-1.43.37-2.15.14-.71.3-1.42.48-2.13.18-.7.37-1.41.58-2.1.21-.7.44-1.39.68-2.07.25-.69.51-1.36.78-2.03s.57-1.34.88-1.99c.31-.66.64-1.31.98-1.95.34-.64.7-1.27,1.07-1.9.37-.62.76-1.24,1.17-1.84.4-.6.82-1.2,1.26-1.78.43-.59.88-1.16,1.34-1.72.46-.56.94-1.11,1.42-1.65.49-.54.99-1.07,1.5-1.58s1.04-1.01,1.58-1.5c.54-.49,1.09-.96,1.65-1.42s1.14-.91,1.72-1.34c.59-.43,1.18-.85,1.78-1.25s1.22-.79,1.84-1.17c.62-.37,1.25-.73,1.9-1.08.64-.34,1.29-.67,1.95-.98.66-.31,1.32-.6,1.99-.88.67-.28,1.35-.54,2.03-.78.69-.25,1.38-.47,2.07-.69.69-.21,1.39-.4,2.1-.58.71-.18,1.42-.34,2.13-.48.71-.14,1.43-.27,2.15-.37.72-.11,1.44-.19,2.16-.27.72-.07,1.45-.12,2.17-.16s1.45-.05,2.18-.05,1.45.02,2.18.05,1.45.09,2.17.16c.72.07,1.44.16,2.16.27.72.11,1.43.23,2.15.37.71.14,1.42.3,2.13.48.71.18,1.41.37,2.1.58s1.39.44,2.07.69c.69.24,1.36.5,2.03.78.67.28,1.34.57,1.99.88.66.31,1.31.64,1.95.98s1.27.7,1.9,1.08c.62.37,1.24.76,1.84,1.17s1.2.82,1.78,1.25c.58.43,1.15.88,1.72,1.34.56.46,1.11.94,1.65,1.42.54.49,1.06.99,1.58,1.5.51.52,1.01,1.04,1.5,1.58.49.54.96,1.09,1.42,1.65.46.56.91,1.13,1.34,1.72.43.58.85,1.18,1.25,1.78.4.6.79,1.22,1.17,1.84.37.62.73,1.26,1.07,1.9.34.64.67,1.29.98,1.95s.61,1.32.88,1.99.54,1.35.78,2.03c.24.68.47,1.37.68,2.07s.4,1.4.58,2.1c.18.7.33,1.41.48,2.13.14.71.26,1.43.37,2.15.11.72.19,1.44.27,2.16.07.72.12,1.45.16,2.17.04.73.05,1.45.05,2.18Z"/>
    </g>
    <path d="M96.78,18.86s-.05.04-.08.06c0,0,0,0,0,0,0,0-.02.01-.02.02.35-.24.23-.16.11-.08"/>
    <g class="cls-16">
      <path d="M143.39,54.66c-.01.83-.05,1.66-.12,2.49-.03.38-.06.76-.11,1.13-.02.2-.04.4-.07.6-.01.08-.02.12-.02.13l-.02.16c-.45,3.16-1.27,6.27-2.45,9.24-.01.03-.04.11-.06.15,0-.02.02-.05.03-.09.11-.32-.04.08-.05.12-.07.16-.13.32-.2.47-.17.39-.35.78-.53,1.17-.32.69-.67,1.38-1.03,2.05-.75,1.38-1.57,2.72-2.47,4-.21.29-.42.59-.63.87-.1.13-.51.56-.1.14-.15.15-.26.34-.39.5-.47.6-.96,1.18-1.46,1.75-.09.1-.18.19-.26.29.25-2.09.28-4.21.11-6.3-.29-3.56-1.14-7.03-2.76-10.23-3.3-6.52-9.48-11.01-15.83-14.28-3.88-2-7.98-3.48-11.85-5.5-1.62-.84-3.2-1.76-4.69-2.81-.15-.1-.29-.21-.44-.32-.06-.05-.13-.09-.19-.14-.32-.25-.63-.5-.94-.77-.56-.49-1.1-1.01-1.6-1.56-.23-.25-.45-.51-.67-.78-.02-.03-.05-.06-.08-.09-.11-.15-.21-.29-.31-.44-.38-.55-.72-1.13-1.01-1.73-.07-.15-.14-.29-.21-.44-.03-.06-.05-.11-.08-.17-.11-.29-.21-.58-.31-.87-.21-.68-.37-1.37-.49-2.07-.03-.19-.06-.38-.09-.57.11.66.01.08,0-.08-.04-.4-.06-.8-.08-1.2-.03-.7-.02-1.41.04-2.1.01-.17.11-.81,0-.11.02-.14.04-.29.06-.43.06-.35.12-.69.21-1.03.13-.57.32-1.12.51-1.66,0,0,.12-.32.17-.42.06-.14.13-.28.19-.42.16-.33.34-.66.53-.98.18-.3.37-.59.56-.87.06-.08.11-.16.17-.23,0,0,.01-.02.02-.03,0,0,0-.01.01-.01.08-.1.16-.2.25-.3.5-.59,1.04-1.13,1.62-1.63.12-.11.25-.21.37-.31-.02.01-.04.02-.06.04l.09-.06s.05-.04.08-.06c.03-.02.06-.05.09-.07.35-.25.71-.49,1.09-.71.35-.21.72-.41,1.08-.59.17-.09.35-.17.52-.25.11-.05.21-.09.32-.14.04-.02.08-.03.12-.05.9-.34,1.81-.63,2.74-.84.49-.11.98-.21,1.47-.29.23-.04.47-.09.7-.11.04,0,.06,0,.08,0,.2-.02.39-.04.59-.06,1.17-.11,2.34-.13,3.51-.1,1.01.02,2.01.09,3.01.2,1.41.28,2.8.63,4.17,1.06.68.21,1.35.44,2.01.69.33.12.66.26.99.38-.57-.22,0,0,.13.05.18.08.36.15.54.23,2.62,1.14,5.11,2.57,7.43,4.23.26.18.51.37.76.56l.12.1c.15.12.3.24.46.36.56.45,1.1.91,1.63,1.38,1.05.94,2.05,1.93,3,2.97.47.51.92,1.04,1.36,1.58.22.27.44.54.65.81.04.04.07.09.1.13.12.16.23.31.35.47.82,1.12,1.59,2.29,2.29,3.5.73,1.24,1.39,2.52,1.98,3.84.14.32.28.64.42.97.02.04.04.09.05.13.06.16.13.33.19.49.26.68.5,1.37.73,2.06.45,1.38.82,2.78,1.12,4.21.15.73.28,1.46.4,2.19.03.18.05.36.08.54,0,.02,0,.03,0,.05,0,.02,0,.04.01.06,0,.04,0,.08.01.12,0,0,0,.01,0,.02,0,0,0,0,0-.01.04.36.08.73.12,1.09.14,1.52.2,3.05.17,4.57ZM147.27,52.24c-.25-6.22-1.86-12.34-4.7-17.88-2.7-5.26-6.56-9.99-11.18-13.68-4.78-3.82-10.29-6.64-16.23-8.14-.71-.18-1.44-.35-2.16-.49-.1-.02-.2-.03-.31-.04-.06,0-.12-.02-.18-.02-4.47-.53-9.28-.36-13.51,1.31-3.46,1.36-6.44,3.57-8.46,6.73-1.63,2.54-2.48,5.6-2.49,8.62-.01,3.16.65,6.36,2.26,9.11,1.7,2.9,4.27,5.12,7.04,6.95,3.46,2.28,7.28,3.91,11.06,5.55,3.74,1.62,7.4,3.48,10.74,5.83.34.24.68.49,1.01.74.09.07.18.14.26.2.18.14.36.29.53.43.69.56,1.35,1.16,1.99,1.78.59.57,1.15,1.17,1.69,1.8.24.29.47.57.7.87.03.04.06.08.09.11.14.2.28.39.42.59.9,1.29,1.64,2.68,2.26,4.12.03.08.06.15.09.23.06.16.12.33.18.49.14.39.27.8.39,1.2.24.83.44,1.66.6,2.51.07.39.13.78.19,1.17,0,.05.02.18.03.21.03.27.06.53.08.8.08.9.12,1.81.12,2.71,0,1.11-.05,2.21-.17,3.31-.01.13-.02.26-.04.39,0,.04-.01.08-.02.1-.04.23-.07.47-.11.7-.09.55-.2,1.1-.33,1.65-.24,1.03-.55,2.04-.91,3.04-.28.77.22,1.83.93,2.19.83.42,1.64.25,2.34-.32,5.03-4.05,9.16-9.3,11.87-15.16,2.84-6.15,4.23-12.93,3.96-19.71"/>
    </g>
    <path class="cls-8" d="M143.1,49h0c-.01-.06-.02-.12-.02-.18-.03-.11-.08-.11.02.18"/>
    <path class="cls-8" d="M119,79.39h0s0-.05,0-.07c.01-.16-.01-.36,0,.07"/>
    <path class="cls-8" d="M110.18,90.57c-.49.17-.12.05,0,0"/>
    <g class="cls-14">
      <path class="cls-8" d="M119.13,77.88c-.02.43-.05.87-.1,1.3,0,.04-.01.09-.02.14,0,.02,0,.04,0,.06v.04-.02c-.04.22-.07.45-.11.67-.15.81-.36,1.6-.63,2.38-.05.16-.11.32-.17.47-.02.05-.06.15-.07.18-.16.36-.33.72-.52,1.07-.33.61-.71,1.18-1.1,1.75.06-.09-.18.24-.25.33-.11.14-.23.28-.35.41-.28.31-.56.61-.86.9-.28.26-.56.52-.86.76-.12.1-.66.48-.11.09-.18.13-.36.26-.54.39-.69.48-1.42.91-2.17,1.28-.35.18-.71.34-1.08.5,0,0,0,0,0,0,.01,0,.02,0,.03,0-.08.02-.15.06-.23.09-.25.09-.5.19-.76.27-.87.3-1.76.54-2.66.73-.46.1-.93.18-1.39.26-.11.02-.23.04-.34.05-.02,0-.07.01-.12.02-.26.04-.52.06-.78.08-1.03.1-2.06.14-3.09.14s-2.02-.04-3.03-.12c-.2-.02-.39-.04-.58-.05-.02,0-.04,0-.06-.01-.08-.02-.16-.03-.24-.05-.41-.08-.82-.17-1.23-.27-1.52-.36-3.02-.8-4.49-1.34-.33-.12-.66-.25-.99-.37l-.23-.09c-.17-.07-.33-.14-.5-.21-.72-.31-1.43-.64-2.13-.98-1.35-.68-2.67-1.43-3.94-2.25-.65-.42-1.29-.86-1.91-1.32-.14-.1-.27-.2-.41-.3.02.02.05.04.08.06-.06-.05-.12-.09-.18-.14,0,0-.01,0-.02-.01.04.03.08.06.11.08,0,0,0,0,.01,0-.11-.09-.16-.12-.17-.13-.28-.22-.56-.44-.84-.67-1.18-.97-2.3-2-3.36-3.09-1.04-1.07-2.03-2.2-2.94-3.38-.02-.02-.05-.06-.12-.16h0s.06.08.08.11c0,0-.01-.01-.01-.02-.05-.06-.09-.12-.14-.18.03.03.05.06.07.09-.1-.14-.2-.28-.31-.42-.24-.33-.47-.66-.7-.99-.43-.62-.84-1.26-1.23-1.9-.79-1.3-1.5-2.64-2.14-4.01-.16-.36-.32-.71-.48-1.07-.06-.14-.12-.28-.17-.41,0,0,0,0,0,.01,0,0,0-.01,0-.02v-.02s-.03-.05-.04-.09c-.03-.07-.06-.14-.08-.2-.28-.71-.54-1.43-.78-2.16-.49-1.49-.89-3.01-1.2-4.55-.15-.75-.28-1.5-.39-2.26-.02-.13-.1-.82-.04-.23-.02-.2-.05-.4-.07-.6-.05-.41-.08-.81-.12-1.22-.13-1.64-.17-3.29-.11-4.94.04-.88.1-1.76.19-2.64.02-.19.04-.39.06-.59,0-.04,0-.08.01-.12,0-.02,0-.05.01-.1.06-.43.12-.86.2-1.29.28-1.67.67-3.33,1.16-4.95.24-.79.5-1.58.79-2.35.07-.2.15-.4.22-.59.03-.08.06-.16.09-.23.02-.05.14-.44.05-.12-.09.32.03-.07.05-.12.03-.08.06-.15.1-.23.1-.23.2-.46.3-.7.67-1.49,1.43-2.94,2.27-4.35.43-.71.88-1.42,1.35-2.1.21-.31.43-.61.65-.92.1-.13.2-.27.3-.41,0,0-.01.02-.02.02.01-.01.02-.02.03-.04.02-.03.04-.05.06-.08.02-.02.04-.04.05-.06.03-.04.06-.08.09-.11,1.23-1.58,2.58-3.06,4.03-4.44-.89,5.52-.08,11.29,2.63,16.26,3.58,6.56,9.99,11.1,16.61,14.25.92.44,1.85.85,2.79,1.25.58.24,1.16.48,1.75.71.25.1.5.2.75.29l.28.11c.05.02.29.11.38.14,1.85.7,3.66,1.59,5.39,2.53.81.44,1.61.9,2.38,1.4.33.21.66.43.99.66.16.11.32.22.47.33.09.06.18.13.26.19,1.17.98,2.31,1.95,3.3,3.13.11.13.21.25.31.38,0,0,0,0,.01.01,0,.01.02.02.03.04.21.29.41.58.6.87.37.59.71,1.2,1,1.83.07.14.13.29.19.43,0,.01,0,.02.01.03,0,.01,0,.02.01.03.13.34.25.69.36,1.04.2.67.37,1.35.49,2.03.03.16.06.33.08.49,0,.07.02.13.03.2.04.38.08.76.1,1.13.05.78.06,1.56.03,2.34ZM123.04,76.49c-.07-3.17-.74-6.31-2.25-9.11-1.56-2.88-3.92-5.17-6.55-7.08-3.25-2.35-6.96-4.06-10.69-5.49-.25-.1-.5-.19-.75-.29-.11-.04-.23-.09-.34-.13-.05-.02-.09-.04-.13-.05-.2-.08-.18-.07.06.03-.13.03-.56-.23-.67-.28-.26-.11-.53-.22-.79-.34-.94-.41-1.88-.85-2.8-1.31-1.75-.87-3.46-1.84-5.1-2.91-.36-.23-.71-.47-1.06-.72-.17-.12-.35-.25-.52-.37-.1-.07-.2-.15-.3-.22,0,0,0,0-.01-.01-.67-.58-1.39-1.1-2.05-1.7-.65-.59-1.28-1.2-1.87-1.84-.28-.3-.55-.61-.82-.92-.14-.16-.27-.33-.41-.49-.11-.14-.56-.77-.18-.22-.95-1.39-1.87-2.75-2.58-4.29-.08-.17-.16-.35-.23-.52-.02-.05-.04-.11-.07-.16h0c-.15-.4-.3-.79-.43-1.19-.26-.81-.48-1.64-.65-2.47-.09-.43-.16-.86-.22-1.29,0-.05-.01-.16-.03-.23-.03-.24-.05-.48-.07-.72-.08-.94-.1-1.89-.08-2.83.01-.47.04-.95.08-1.42.02-.28.05-.56.08-.84,0-.02,0-.06,0-.09.02-.13.04-.26.06-.38.15-.97.36-1.93.63-2.87.13-.45.27-.9.43-1.35.07-.21.15-.42.23-.63.01-.03.03-.08.05-.13.04-.09.08-.18.12-.26.33-.77.36-1.72-.32-2.34-.59-.54-1.63-.82-2.34-.32-5.73,3.98-10.51,9.28-13.73,15.49-3.31,6.37-4.98,13.55-4.81,20.73.16,6.68,1.89,13.28,5.04,19.18,3.07,5.73,7.45,10.65,12.69,14.47,2.52,1.84,5.26,3.39,8.14,4.61,3.17,1.34,6.58,2.53,10.03,2.81,1.01.08,2.01.12,3.03.13,4.16-.01,8.36-.71,12.13-2.54,3.13-1.51,5.84-3.91,7.6-6.92,1.8-3.06,2.54-6.64,2.46-10.16"/>
    </g>
    <path class="cls-8" d="M68.62,68.47l.04.11s0,0,0,0c-.13-.42-.09-.25-.04-.11"/>
    <path class="cls-8" d="M73.78,30.33s-.07.1-.11.14c0,0,0,0-.01.01.24-.28.19-.23.12-.16"/>
    <g class="cls-15">
      <path class="cls-8" d="M97.71,68.16l1.77,5.37,5.65.02-4.54,3.34,1.71,5.39-4.58-3.31-4.58,3.31,1.71-5.39-4.56-3.34,5.65-.02,1.78-5.37Z"/>
    </g>
    <path class="cls-8" d="M113.21,79.82l.48,1.47h1.55s-1.25.92-1.25.92l.47,1.47-1.25-.9-1.26.9.47-1.47-1.23-.91h1.53s.49-1.48.49-1.48Z"/>
    <g class="cls-21">
      <path class="cls-8" d="M111.85,71.55l1.38.69,1.09-1.08-.23,1.52,1.38.71-1.52.25-.25,1.52-.71-1.36-1.53.23,1.09-1.1-.69-1.38Z"/>
    </g>
    <g class="cls-18">
      <path class="cls-8" d="M108.69,84.99l-.7,1.38,1.09,1.1-1.53-.23-.7,1.36-.25-1.52-1.53-.25,1.38-.71-.23-1.52,1.1,1.08,1.38-.69Z"/>
    </g>
    <g class="cls-17">
      <path class="cls-8" d="M105.48,66.62l1.38.69,1.09-1.08-.23,1.52,1.38.71-1.52.25-.26,1.52-.7-1.36-1.53.23,1.09-1.1-.69-1.38Z"/>
    </g>
    <g class="cls-20">
      <path class="cls-7" d="M107.5,18.87c-6.34,0-11.49,5.15-11.49,11.5s5.15,11.5,11.49,11.5,11.5-5.15,11.5-11.5-5.15-11.5-11.5-11.5ZM107.5,19.77c.1,0,.2,0,.3,0h0s-.04,0-.04,0c-.06.44.32.84.87.93.58.09,1.14-.2,1.25-.66h-.05s0-.01,0-.02c.23.05.46.11.68.18,0,0,0,.01,0,.01h-.02c-.17.4.09.88.6,1.11.54.24,1.15.1,1.38-.31l-.04-.02s0,0,0,0c0,0,0-.01,0-.02.19.1.38.2.57.31-.25.35-.12.87.3,1.21.45.37,1.08.4,1.41.05l-.02-.02h0c.2.18.39.36.57.55,0,0,0,0-.01,0l-.02-.03c-.35.27-.36.82-.04,1.27.34.47.94.66,1.35.42l-.02-.03h0l.02-.02c.13.2.25.4.36.61-.39.18-.53.69-.34,1.2.2.54.73.87,1.17.76.06.2.12.41.17.61-.42.07-.7.53-.65,1.07.06.58.48,1.04.94,1.03,0,.13,0,.25,0,.38,0,.09,0,.17,0,.26-.43-.04-.82.33-.91.87-.09.57.2,1.13.64,1.24-.05.21-.1.41-.16.61-.41-.15-.88.1-1.11.6-.24.53-.1,1.14.3,1.37-.1.19-.21.37-.32.55-.35-.25-.87-.13-1.22.3-.37.45-.39,1.07-.07,1.39-.18.2-.37.39-.57.57-.27-.34-.81-.35-1.26-.03-.46.33-.65.91-.44,1.31-.18.11-.35.21-.53.3-.18-.4-.7-.55-1.21-.36-.54.2-.87.72-.76,1.17-.2.06-.41.12-.61.16-.08-.42-.53-.69-1.07-.64-.57.06-1.02.46-1.03.92-.12,0-.24,0-.36,0s-.25,0-.37,0c-.03-.45-.47-.84-1.03-.9-.53-.05-.98.21-1.07.61-.18-.04-.35-.09-.52-.13.14-.4-.12-.87-.61-1.09-.53-.24-1.14-.11-1.36.3-.22-.11-.43-.23-.64-.36h0s.03.01.03.01c.26-.35.14-.88-.29-1.23-.24-.2-.53-.3-.8-.3-.23,0-.46.08-.61.24l.03.02v.02c-.18-.17-.36-.34-.53-.52h0s.02.01.02.01c.35-.27.37-.82.04-1.27-.25-.34-.63-.53-.97-.53-.13,0-.26.04-.38.11l.03.04h-.03c-.13-.2-.25-.4-.36-.6.39-.19.53-.7.34-1.2-.2-.54-.72-.87-1.17-.76-.06-.2-.12-.41-.17-.61.42-.08.7-.53.64-1.07-.06-.57-.47-1.03-.93-1.03,0-.12,0-.24,0-.36,0-.09,0-.18,0-.28.42.03.81-.33.89-.87.09-.57-.19-1.11-.63-1.24.05-.21.1-.41.16-.61.4.14.86-.12,1.08-.61.23-.52.11-1.11-.28-1.35.13-.24.27-.48.41-.71.35.26.88.14,1.23-.29.36-.44.39-1.05.08-1.38.14-.14.28-.28.42-.41.27.34.82.36,1.27.04.46-.34.65-.92.43-1.32.18-.11.36-.22.55-.32,0,0,0,0,0,.01,0,0,0,0,0,.01h-.03c.17.42.7.58,1.21.38.55-.21.88-.74.75-1.19h-.03s0,0,0,0c.23-.07.47-.13.7-.19,0,0,0,0,0,.01h-.06c.06.45.53.74,1.08.68.58-.06,1.05-.49,1.03-.96h-.04s0,0,0,0c.13,0,.27,0,.41,0ZM117.99,32.46s0,.01,0,.02v-.02Z"/>
    </g>
    <g class="cls-19">
      <path class="cls-2" d="M107.5,18.87c-6.34,0-11.49,5.15-11.49,11.5s5.15,11.5,11.49,11.5,11.5-5.15,11.5-11.5-5.15-11.5-11.5-11.5ZM107.5,19.77c.1,0,.2,0,.3,0h0s-.04,0-.04,0c-.06.44.32.84.87.93.58.09,1.14-.2,1.25-.66h-.05s0-.01,0-.02c.23.05.46.11.68.18,0,0,0,.01,0,.01h-.02c-.17.4.09.88.6,1.11.54.24,1.15.1,1.38-.31l-.04-.02s0,0,0,0c0,0,0-.01,0-.02.19.1.38.2.57.31-.25.35-.12.87.3,1.21.45.37,1.08.4,1.41.05l-.02-.02h0c.2.18.39.36.57.55,0,0,0,0-.01,0l-.02-.03c-.35.27-.36.82-.04,1.27.34.47.94.66,1.35.42l-.02-.03h0l.02-.02c.13.2.25.4.36.61-.39.18-.53.69-.34,1.2.2.54.73.87,1.17.76.06.2.12.41.17.61-.42.07-.7.53-.65,1.07.06.58.48,1.04.94,1.03,0,.13,0,.25,0,.38,0,.09,0,.17,0,.26-.43-.04-.82.33-.91.87-.09.57.2,1.13.64,1.24-.05.21-.1.41-.16.61-.41-.15-.88.1-1.11.6-.24.53-.1,1.14.3,1.37-.1.19-.21.37-.32.55-.35-.25-.87-.13-1.22.3-.37.45-.39,1.07-.07,1.39-.18.2-.37.39-.57.57-.27-.34-.81-.35-1.26-.03-.46.33-.65.91-.44,1.31-.18.11-.35.21-.53.3-.18-.4-.7-.55-1.21-.36-.54.2-.87.72-.76,1.17-.2.06-.41.12-.61.16-.08-.42-.53-.69-1.07-.64-.57.06-1.02.46-1.03.92-.12,0-.24,0-.36,0s-.25,0-.37,0c-.03-.45-.47-.84-1.03-.9-.53-.05-.98.21-1.07.61-.18-.04-.35-.09-.52-.13.14-.4-.12-.87-.61-1.09-.53-.24-1.14-.11-1.36.3-.22-.11-.43-.23-.64-.36h0s.03.01.03.01c.26-.35.14-.88-.29-1.23-.24-.2-.53-.3-.8-.3-.23,0-.46.08-.61.24l.03.02v.02c-.18-.17-.36-.34-.53-.52h0s.02.01.02.01c.35-.27.37-.82.04-1.27-.25-.34-.63-.53-.97-.53-.13,0-.26.04-.38.11l.03.04h-.03c-.13-.2-.25-.4-.36-.6.39-.19.53-.7.34-1.2-.2-.54-.72-.87-1.17-.76-.06-.2-.12-.41-.17-.61.42-.08.7-.53.64-1.07-.06-.57-.47-1.03-.93-1.03,0-.12,0-.24,0-.36,0-.09,0-.18,0-.28.42.03.81-.33.89-.87.09-.57-.19-1.11-.63-1.24.05-.21.1-.41.16-.61.4.14.86-.12,1.08-.61.23-.52.11-1.11-.28-1.35.13-.24.27-.48.41-.71.35.26.88.14,1.23-.29.36-.44.39-1.05.08-1.38.14-.14.28-.28.42-.41.27.34.82.36,1.27.04.46-.34.65-.92.43-1.32.18-.11.36-.22.55-.32,0,0,0,0,0,.01,0,0,0,0,0,.01h-.03c.17.42.7.58,1.21.38.55-.21.88-.74.75-1.19h-.03s0,0,0,0c.23-.07.47-.13.7-.19,0,0,0,0,0,.01h-.06c.06.45.53.74,1.08.68.58-.06,1.05-.49,1.03-.96h-.04s0,0,0,0c.13,0,.27,0,.41,0ZM117.99,32.46s0,.01,0,.02v-.02Z"/>
    </g>
    <path class="cls-5" d="M107.95,30.37c0,.12-.05.23-.13.32-.09.09-.19.13-.32.13s-.23-.04-.32-.13c-.09-.09-.13-.19-.13-.32s.04-.23.13-.32c.09-.09.19-.13.32-.13s.23.05.32.13.13.19.13.32Z"/>
    <path class="cls-3" d="M108.53,30.37c0,.14-.03.27-.08.39-.05.12-.13.23-.22.33-.09.1-.2.17-.33.22-.12.05-.26.08-.39.08s-.27-.02-.39-.08c-.12-.05-.23-.13-.33-.22s-.17-.21-.22-.33c-.05-.13-.08-.26-.08-.39s.02-.27.08-.39c.05-.13.12-.24.22-.33.1-.09.21-.17.33-.22.13-.05.26-.08.39-.08s.27.03.39.08c.13.05.24.13.33.22s.17.21.22.33c.05.12.08.26.08.39Z"/>
    <path class="cls-6" d="M107.52,19.77l-.2,7.47.2,2.08.19-2.08-.19-7.47Z"/>
    <path class="cls-6" d="M110.26,20.13l-2.13,7.16-.35,2.06.73-1.96,1.75-7.26Z"/>
    <path class="cls-6" d="M112.78,21.1l-3.88,6.45-.87,1.9,1.21-1.71,3.53-6.65Z"/>
    <path class="cls-6" d="M114.97,22.77l-5.39,5.24-1.33,1.61,1.61-1.34,5.11-5.52Z"/>
    <path class="cls-6" d="M116.74,24.96l-6.64,3.66-1.7,1.21,1.9-.87,6.43-4Z"/>
    <path class="cls-6" d="M117.85,27.59l-7.38,1.76-1.96.73,2.06-.35,7.28-2.14Z"/>
    <path class="cls-6" d="M118.19,30.34l-7.57-.2-2.08.2,2.08.19,7.56-.19Z"/>
    <path class="cls-6" d="M117.83,33.08l-7.26-2.13-2.06-.34,1.96.73,7.36,1.75Z"/>
    <path class="cls-6" d="M116.79,35.62l-6.49-3.89-1.9-.87,1.7,1.21,6.68,3.55Z"/>
    <path class="cls-6" d="M115.06,37.82l-5.21-5.42-1.61-1.33,1.34,1.61,5.48,5.14Z"/>
    <path class="cls-6" d="M112.8,39.5l-3.56-6.57-1.21-1.7.87,1.9,3.9,6.37Z"/>
    <path class="cls-6" d="M110.25,40.56l-1.74-7.27-.73-1.96.35,2.06,2.12,7.16Z"/>
    <path class="cls-6" d="M107.52,40.97l.2-7.52-.2-2.08-.19,2.08.19,7.51Z"/>
    <path class="cls-6" d="M104.76,40.64l2.14-7.25.34-2.06-.73,1.96-1.76,7.34Z"/>
    <path class="cls-6" d="M102.21,39.58l3.93-6.45.86-1.9-1.21,1.71-3.58,6.65Z"/>
    <path class="cls-6" d="M99.97,37.88l5.49-5.21,1.33-1.61-1.61,1.33-5.21,5.48Z"/>
    <path class="cls-6" d="M98.26,35.68l6.67-3.61,1.7-1.21-1.9.87-6.47,3.95Z"/>
    <path class="cls-6" d="M97.15,33.13l7.42-1.79,1.96-.73-2.06.35-7.31,2.17Z"/>
    <path class="cls-6" d="M96.81,30.36l7.6.18,2.08-.2-2.08-.19-7.6.21Z"/>
    <path class="cls-6" d="M97.17,27.64l7.3,2.09,2.06.35-1.96-.73-7.39-1.71Z"/>
    <path class="cls-6" d="M98.26,25.07l6.47,3.89,1.9.87-1.7-1.21-6.66-3.55Z"/>
    <path class="cls-6" d="M99.96,22.85l5.22,5.44,1.61,1.33-1.34-1.61-5.5-5.16Z"/>
    <path class="cls-6" d="M102.15,21.18l3.64,6.57,1.21,1.7-.87-1.9-3.98-6.37Z"/>
    <path class="cls-6" d="M104.72,20.13l1.81,7.27.73,1.96-.35-2.06-2.19-7.16Z"/>
    <g class="cls-10">
      <g class="cls-9">
        <g class="cls-12">
          <g class="cls-11">
            <path class="cls-22" d="M108.43,6.49c.04.27.05.54.04.81s-.05.53-.12.8c-.06.26-.15.52-.27.76-.12.24-.25.47-.42.69-.16.22-.34.42-.54.6-.2.18-.42.34-.65.48-.23.14-.47.26-.73.35-.25.09-.51.16-.78.2-.27.04-.53.05-.8.04s-.54-.05-.8-.12-.52-.16-.76-.27-.47-.25-.69-.41c-.22-.16-.42-.34-.6-.54s-.34-.42-.48-.65c-.14-.23-.25-.47-.35-.73-.09-.25-.16-.52-.19-.78-.04-.27-.05-.54-.04-.81.01-.27.05-.53.12-.8.06-.26.16-.52.27-.76.12-.24.25-.47.42-.69.16-.22.34-.42.54-.6.2-.18.42-.34.65-.48.23-.14.47-.25.73-.35s.52-.16.78-.2.53-.05.8-.04c.27.01.54.05.8.12.26.07.52.16.76.27.25.12.47.25.69.41.22.16.42.34.6.54s.34.42.48.65.25.47.35.73.16.52.19.78Z"/>
          </g>
        </g>
      </g>
    </g>
    <path d="M23.24,177.48h1.23s1.25-.05,1.25-.05l-.05.59c-.22.03-.37.08-.44.14-.06.06-.11.17-.12.33-.07,1.21-.11,2.37-.11,3.47,0,.24.02.4.06.47.04.08.13.12.27.12l.38-.02.04.05-.08.56c-.61-.02-1.02-.02-1.22-.02-.41,0-.85.02-1.33.08l.06-.57c.26-.05.43-.12.52-.23.09-.1.13-.27.13-.51v-3.39c0-.18-.02-.3-.06-.36-.04-.06-.12-.1-.25-.1h-.31s-.04-.06-.04-.06l.06-.52Z"/>
    <path d="M31.24,179.22h-.24l-.03-.05.05-.46c.44.02.86.03,1.27.03s.63-.01.63-.04l-.04.52c-.16.02-.28.06-.35.13-.06.06-.1.17-.11.3l-.1,3.56-.91.09c-.62-.93-1.27-1.86-1.96-2.78h-.09v1.82c0,.12.03.21.06.26.04.04.11.06.2.06h.29s.04.03.04.03l-.08.47c-.45-.02-.77-.02-.97-.02l-.95.05.05-.51c.15-.02.26-.06.32-.13s.1-.16.1-.3l.1-2.61c0-.14-.04-.24-.12-.29-.07-.06-.22-.1-.45-.13l-.06-.08.05-.45c.32.03.62.04.9.04l.76-.03c.55.86,1.15,1.73,1.8,2.6h.08l-.02-1.78c0-.11-.03-.18-.06-.23-.04-.05-.09-.08-.17-.08Z"/>
    <path d="M36.32,182v-2.64c-.32,0-.53.05-.63.16-.09.1-.16.35-.2.74l-.68.04c.04-.57.06-1.1.08-1.58l.08-.09.77.09h2.28l.77-.09.09.09.05,1.53-.67.04c-.06-.43-.13-.69-.22-.79-.08-.1-.27-.15-.57-.16-.04.86-.06,1.79-.06,2.81,0,.17.03.29.09.36.06.07.16.11.3.11l.38-.02.04.03-.08.53c-.62-.02-1.05-.03-1.31-.03l-1.28.05.05-.52c.32-.02.52-.07.6-.15.09-.08.13-.25.13-.52Z"/>
    <path d="M42.61,180.56h.66s.82-.05.82-.05l.08.08-.11.66c-.38-.01-.64-.02-.77-.02s-.36.01-.71.03c0,.15-.01.37-.01.67s.02.48.06.53c.05.04.23.06.53.06s.51-.04.64-.13c.12-.09.21-.3.27-.64l.68-.05.06.08c-.09.43-.15.87-.19,1.33l-.09.08c-.88-.03-1.53-.04-1.95-.04-.61,0-1.16.02-1.65.08l.05-.53c.19-.02.33-.07.4-.15.07-.09.11-.23.11-.44v-2.49c.01-.15,0-.25-.03-.3-.03-.05-.09-.08-.18-.08h-.2s-.06-.05-.06-.05l.06-.45c.57.02,1.2.02,1.91.02s1.29-.03,1.73-.09l.06.09c-.09.43-.15.85-.17,1.28l-.74.05c.01-.12.02-.22.02-.28,0-.18-.05-.29-.15-.33-.1-.05-.29-.08-.55-.08s-.42.02-.46.04c-.04.02-.05.08-.05.17l-.04.97Z"/>
    <path d="M47.6,182.11v-2.57c0-.12-.02-.2-.04-.25-.03-.05-.09-.08-.17-.08h-.26s-.04-.04-.04-.04l.06-.45c.43,0,.74.01.94.01l1.17-.04c.58,0,1.02.11,1.33.31.31.21.46.51.46.91,0,.56-.31.99-.94,1.31l.58.87c.26.4.52.59.78.59l.06.09-.06.4-.92.08c-.35,0-.61-.21-.8-.64l-.58-1.14h-.49v.67c-.01.22.02.36.08.42.06.06.2.09.43.09l.03.04-.08.47s-.34-.01-1.01-.01l-1.09.04.05-.52c.19-.03.33-.08.4-.15.07-.08.11-.22.11-.41ZM49.89,180.04c0-.45-.34-.68-1.01-.68-.05,0-.08.01-.1.03-.04.04-.06.5-.09,1.38l.61.06c.39-.15.58-.42.58-.8Z"/>
    <path d="M57.23,182.94c-.48.18-1.04.27-1.68.27s-1.14-.19-1.52-.57c-.38-.39-.57-.93-.57-1.64s.23-1.28.68-1.7c.45-.43,1.07-.65,1.86-.65.37,0,.84.06,1.42.18l.05.1c-.1.39-.17.84-.2,1.35l-.81.04c0-.11.01-.25.01-.42,0-.33-.24-.5-.72-.5-.69,0-1.02.47-1.02,1.4,0,.54.09.95.28,1.24.19.28.45.42.8.42.24,0,.43-.07.56-.2.13-.14.22-.37.27-.69l.82-.05c-.08.49-.13.94-.14,1.34l-.08.09Z"/>
    <path d="M61.94,182.54c.3,0,.53-.11.7-.35.17-.23.26-.57.26-1.01,0-1.19-.35-1.78-1.05-1.78-.62,0-.93.45-.93,1.34,0,1.2.34,1.8,1.01,1.8ZM64.16,180.84c0,.71-.22,1.28-.66,1.72-.43.43-1,.65-1.69.65s-1.22-.19-1.6-.57c-.37-.38-.55-.93-.55-1.64s.21-1.28.64-1.7c.43-.43,1-.65,1.69-.65s1.24.19,1.61.57c.37.37.56.92.56,1.63Z"/>
    <path d="M69.63,179.22h-.24l-.03-.05.05-.46c.44.02.86.03,1.27.03s.63-.01.63-.04l-.04.52c-.16.02-.28.06-.35.13-.06.06-.1.17-.11.3l-.1,3.56-.91.09c-.62-.93-1.27-1.86-1.96-2.78h-.09v1.82c0,.12.03.21.06.26.04.04.11.06.2.06h.29s.04.03.04.03l-.08.47c-.45-.02-.77-.02-.97-.02l-.95.05.05-.51c.15-.02.26-.06.32-.13s.1-.16.1-.3l.1-2.61c0-.14-.04-.24-.12-.29-.07-.06-.22-.1-.45-.13l-.06-.08.05-.45c.32.03.62.04.9.04l.76-.03c.55.86,1.15,1.73,1.8,2.6h.08l-.02-1.78c0-.11-.03-.18-.06-.23-.04-.05-.09-.08-.17-.08Z"/>
    <path d="M76.7,179.22h-.24l-.03-.05.05-.46c.44.02.86.03,1.27.03s.63-.01.63-.04l-.04.52c-.16.02-.28.06-.35.13-.06.06-.1.17-.11.3l-.1,3.56-.91.09c-.62-.93-1.27-1.86-1.96-2.78h-.09v1.82c0,.12.03.21.06.26.04.04.11.06.2.06h.29s.04.03.04.03l-.08.47c-.45-.02-.77-.02-.97-.02l-.95.05.05-.51c.15-.02.26-.06.32-.13s.1-.16.1-.3l.1-2.61c0-.14-.04-.24-.12-.29-.07-.06-.22-.1-.45-.13l-.06-.08.05-.45c.32.03.62.04.9.04l.76-.03c.55.86,1.15,1.73,1.8,2.6h.08l-.02-1.78c0-.11-.03-.18-.06-.23-.04-.05-.09-.08-.17-.08Z"/>
    <path d="M82.13,180.56h.66s.82-.05.82-.05l.08.08-.11.66c-.38-.01-.64-.02-.77-.02s-.36.01-.71.03c0,.15-.01.37-.01.67s.02.48.06.53c.05.04.23.06.53.06s.51-.04.64-.13c.12-.09.21-.3.27-.64l.68-.05.06.08c-.09.43-.15.87-.19,1.33l-.09.08c-.88-.03-1.53-.04-1.95-.04-.61,0-1.16.02-1.65.08l.05-.53c.19-.02.33-.07.4-.15.07-.09.11-.23.11-.44v-2.49c.01-.15,0-.25-.03-.3-.03-.05-.09-.08-.18-.08h-.2s-.06-.05-.06-.05l.06-.45c.57.02,1.2.02,1.91.02s1.29-.03,1.73-.09l.06.09c-.09.43-.15.85-.17,1.28l-.74.05c.01-.12.02-.22.02-.28,0-.18-.05-.29-.15-.33-.1-.05-.29-.08-.55-.08s-.42.02-.46.04c-.04.02-.05.08-.05.17l-.04.97Z"/>
    <path d="M90.29,182.94c-.48.18-1.04.27-1.68.27s-1.14-.19-1.52-.57c-.38-.39-.57-.93-.57-1.64s.23-1.28.68-1.7c.45-.43,1.07-.65,1.86-.65.37,0,.84.06,1.42.18l.05.1c-.1.39-.17.84-.2,1.35l-.81.04c0-.11.01-.25.01-.42,0-.33-.24-.5-.72-.5-.69,0-1.02.47-1.02,1.4,0,.54.09.95.28,1.24.19.28.45.42.8.42.24,0,.43-.07.56-.2.13-.14.22-.37.27-.69l.82-.05c-.08.49-.13.94-.14,1.34l-.08.09Z"/>
    <path d="M94.07,182v-2.64c-.32,0-.53.05-.63.16-.09.1-.16.35-.2.74l-.68.04c.04-.57.06-1.1.08-1.58l.08-.09.77.09h2.28l.77-.09.09.09.05,1.53-.67.04c-.06-.43-.13-.69-.22-.79-.08-.1-.27-.15-.57-.16-.04.86-.06,1.79-.06,2.81,0,.17.03.29.09.36.06.07.16.11.3.11l.38-.02.04.03-.08.53c-.62-.02-1.05-.03-1.31-.03l-1.28.05.05-.52c.32-.02.52-.07.6-.15.09-.08.13-.25.13-.52Z"/>
    <path d="M100.37,180.56h.66s.82-.05.82-.05l.08.08-.11.66c-.38-.01-.64-.02-.77-.02s-.36.01-.71.03c0,.15-.01.37-.01.67s.02.48.06.53c.05.04.23.06.53.06s.51-.04.64-.13c.12-.09.21-.3.27-.64l.68-.05.06.08c-.09.43-.15.87-.19,1.33l-.09.08c-.88-.03-1.53-.04-1.95-.04-.61,0-1.16.02-1.65.08l.05-.53c.19-.02.33-.07.4-.15.07-.09.11-.23.11-.44v-2.49c.01-.15,0-.25-.03-.3-.03-.05-.09-.08-.18-.08h-.2s-.06-.05-.06-.05l.06-.45c.57.02,1.2.02,1.91.02s1.29-.03,1.73-.09l.06.09c-.09.43-.15.85-.17,1.28l-.74.05c.01-.12.02-.22.02-.28,0-.18-.05-.29-.15-.33-.1-.05-.29-.08-.55-.08s-.42.02-.46.04c-.04.02-.05.08-.05.17l-.04.97Z"/>
    <path d="M105.37,182.11v-2.51c0-.14-.02-.24-.05-.29-.03-.05-.08-.08-.16-.08l-.24.02-.05-.08.06-.46c.45.02.77.02.96.02l1.17-.04c.74,0,1.32.18,1.73.54.41.36.61.89.61,1.59s-.23,1.26-.7,1.72c-.47.45-1.08.68-1.82.68-.45-.05-.83-.08-1.11-.08l-.95.08.04-.53c.2-.03.34-.08.41-.16.07-.09.11-.22.11-.41ZM106.69,179.37c-.06,0-.11.02-.14.04-.03.02-.05.06-.05.13-.06,1.11-.09,1.96-.09,2.56,0,.17.04.29.11.36.07.06.21.09.41.09.79,0,1.19-.52,1.19-1.56,0-.57-.11-.98-.33-1.23-.22-.25-.59-.38-1.09-.38Z"/>
    <path d="M116.59,179.87h.82s1.02-.05,1.02-.05l.06.08-.12.76c-.47-.01-.83-.02-1.05-.02s-.47.02-.77.05c-.02.63-.03,1.05-.03,1.26s.03.35.09.41c.06.06.23.09.5.09s.49-.01.64-.03c.16-.02.29-.07.39-.14.11-.08.18-.18.22-.3.04-.12.08-.3.12-.53l.74-.06.06.09c-.11.53-.19,1.07-.25,1.64l-.09.1c-1.1-.04-1.89-.06-2.37-.06-.71,0-1.35.03-1.9.09l.08-.59c.24-.04.4-.11.5-.22.09-.11.14-.29.14-.54v-3.33c0-.19-.02-.32-.05-.38-.04-.06-.12-.1-.24-.1h-.26s-.06-.06-.06-.06l.08-.54c.64.02,1.38.03,2.22.03s1.54-.04,2.07-.11l.08.1c-.11.52-.18,1.05-.2,1.6l-.81.05c.01-.15.02-.26.02-.35,0-.24-.06-.4-.18-.46-.12-.06-.36-.1-.71-.1s-.54.02-.59.05c-.05.03-.08.11-.09.24l-.06,1.36Z"/>
    <path d="M126.46,183.78c.19,0,.4-.02.63-.06l.06.05.09.35c-.55.41-.9.61-1.05.61-.32,0-.63-.09-.95-.28-.31-.18-.86-.59-1.66-1.24-.66,0-1.18-.19-1.55-.57-.37-.38-.55-.93-.55-1.64s.21-1.28.64-1.7c.43-.43,1-.65,1.69-.65s1.24.19,1.61.57c.37.37.56.9.56,1.59,0,.5-.13.95-.38,1.34-.25.39-.58.67-1,.85v.06c.71.48,1.33.72,1.87.72ZM123.75,182.54c.3,0,.53-.11.7-.35.17-.23.26-.57.26-1.01,0-1.19-.35-1.78-1.05-1.78-.62,0-.93.45-.93,1.34,0,1.2.34,1.8,1.01,1.8Z"/>
    <path d="M130.41,182.52c.53,0,.8-.26.8-.8l-.02-2.13c0-.15-.03-.25-.05-.3-.03-.05-.08-.08-.16-.08h-.23s-.02-.01-.02-.01l.06-.5c.39.02.67.02.85.02l.91-.04-.04.52c-.17.04-.29.08-.33.12-.04.04-.06.11-.06.22v2.05c0,.53-.16.94-.49,1.21-.32.28-.78.41-1.38.41s-1.02-.12-1.31-.36-.42-.61-.42-1.11v-2.15c0-.16-.02-.26-.05-.3-.03-.05-.09-.08-.18-.08h-.22s-.02-.01-.02-.01l.08-.5c.42.02.79.02,1.1.02l.88-.04-.05.53c-.15,0-.25.04-.3.1-.06.05-.09.13-.1.25l-.04,2c0,.3.07.54.2.71.14.17.35.25.6.25Z"/>
    <path d="M134.7,178.72h1.06s1.08-.03,1.08-.03l-.04.51c-.18.02-.3.05-.36.1-.06.04-.09.13-.11.27-.05.92-.08,1.79-.08,2.61,0,.19.02.31.05.38.04.06.11.09.22.09h.28s.05.04.05.04l-.06.47c-.53-.02-.91-.02-1.12-.02l-1.05.05.04-.5c.21-.04.35-.09.41-.16.07-.08.11-.22.11-.41v-2.54c0-.15-.02-.25-.05-.29-.04-.05-.11-.08-.2-.08h-.24s-.04-.05-.04-.05l.05-.44Z"/>
    <path d="M139.13,178.72h1.05s1.21-.03,1.21-.03l-.06.54c-.24.02-.39.06-.45.12-.06.06-.11.17-.12.33-.06.78-.09,1.6-.09,2.46,0,.15.03.25.09.3.06.05.17.08.33.08.32,0,.53-.06.64-.19.11-.13.19-.43.24-.87l.69-.06.05.08c-.07.53-.13,1.07-.18,1.64l-.09.09c-.77-.04-1.36-.05-1.76-.05-.6,0-1.14.02-1.62.08l.06-.53c.18-.02.3-.07.37-.15.07-.09.11-.23.11-.44v-2.5c.01-.15,0-.25-.04-.29-.04-.05-.11-.08-.22-.08h-.2s-.04-.05-.04-.05l.04-.44Z"/>
    <path d="M144.77,178.72h1.06s1.08-.03,1.08-.03l-.04.51c-.18.02-.3.05-.36.1-.06.04-.09.13-.11.27-.05.92-.08,1.79-.08,2.61,0,.19.02.31.05.38.04.06.11.09.22.09h.28s.05.04.05.04l-.06.47c-.53-.02-.91-.02-1.12-.02l-1.05.05.04-.5c.21-.04.35-.09.41-.16.07-.08.11-.22.11-.41v-2.54c0-.15-.02-.25-.05-.29-.04-.05-.11-.08-.2-.08h-.24s-.04-.05-.04-.05l.05-.44Z"/>
    <path d="M151.47,178.69c.5,0,.89.09,1.15.28.27.18.41.43.41.73s-.09.56-.27.74c-.17.19-.33.31-.49.36.22.04.43.15.66.32.22.17.33.4.33.69,0,.43-.18.77-.53,1.02-.35.25-.82.37-1.41.37-.71-.05-1.08-.08-1.11-.08l-1.12.06.05-.52c.2-.03.34-.08.41-.15.07-.08.11-.2.11-.37v-2.61c.01-.22-.06-.33-.22-.33h-.25s-.05-.04-.05-.04l.06-.46c.54.02.9.02,1.07.02l1.19-.04ZM150.72,182.16c0,.13.05.22.15.28.1.06.26.09.5.09.46,0,.69-.2.69-.61,0-.35-.22-.56-.66-.66h-.64l-.04.91ZM151.89,179.95c0-.39-.31-.59-.94-.59-.07,0-.11.04-.12.11-.04.35-.05.72-.05,1.1.34.04.56.06.66.06.11-.04.22-.12.31-.25.09-.13.14-.28.14-.43Z"/>
    <path d="M156.05,182.11v-2.57c0-.12-.02-.2-.04-.25-.03-.05-.09-.08-.17-.08h-.26s-.04-.04-.04-.04l.06-.45c.43,0,.74.01.94.01l1.17-.04c.58,0,1.02.11,1.33.31.31.21.46.51.46.91,0,.56-.31.99-.94,1.31l.58.87c.26.4.52.59.78.59l.06.09-.06.4-.92.08c-.35,0-.61-.21-.8-.64l-.58-1.14h-.49v.67c-.01.22.02.36.08.42.06.06.2.09.43.09l.03.04-.08.47s-.34-.01-1.01-.01l-1.09.04.05-.52c.19-.03.33-.08.4-.15.07-.08.11-.22.11-.41ZM158.35,180.04c0-.45-.34-.68-1.01-.68-.05,0-.08.01-.1.03-.04.04-.06.5-.09,1.38l.61.06c.39-.15.58-.42.58-.8Z"/>
    <path d="M162.04,178.72h1.06s1.08-.03,1.08-.03l-.04.51c-.18.02-.3.05-.36.1-.06.04-.09.13-.11.27-.05.92-.08,1.79-.08,2.61,0,.19.02.31.05.38.04.06.11.09.22.09h.28s.05.04.05.04l-.06.47c-.53-.02-.91-.02-1.12-.02l-1.05.05.04-.5c.21-.04.35-.09.41-.16.07-.08.11-.22.11-.41v-2.54c0-.15-.02-.25-.05-.29-.04-.05-.11-.08-.2-.08h-.24s-.04-.05-.04-.05l.05-.44Z"/>
    <path d="M168.61,182.52c.53,0,.8-.26.8-.8l-.02-2.13c0-.15-.03-.25-.05-.3-.03-.05-.08-.08-.16-.08h-.23s-.02-.01-.02-.01l.06-.5c.39.02.67.02.85.02l.91-.04-.04.52c-.17.04-.29.08-.33.12-.04.04-.06.11-.06.22v2.05c0,.53-.16.94-.49,1.21-.32.28-.78.41-1.38.41s-1.02-.12-1.31-.36-.42-.61-.42-1.11v-2.15c0-.16-.02-.26-.05-.3-.03-.05-.09-.08-.18-.08h-.22s-.02-.01-.02-.01l.08-.5c.42.02.79.02,1.1.02l.88-.04-.05.53c-.15,0-.25.04-.3.1-.06.05-.09.13-.1.25l-.04,2c0,.3.07.54.2.71.14.17.35.25.6.25Z"/>
    <path d="M176.6,178.73h.7c.13,0,.48-.01,1.02-.04l.03.02-.05.49c-.2.02-.34.05-.41.1-.06.04-.1.13-.1.26,0,.46.05,1.28.16,2.46.03.24.06.4.11.5.05.09.13.13.24.13h.22s.03.03.03.03l-.06.49c-.3-.02-.62-.02-.98-.02s-.67.02-.92.05l.06-.51c.14-.02.24-.06.3-.11.06-.05.1-.13.1-.24l-.12-2.07h-.06c-.28.65-.63,1.62-1.04,2.9l-.61.06c-.46-1.45-.8-2.43-1.02-2.97h-.08c-.08,1.32-.12,2.04-.12,2.15,0,.15.08.23.24.23h.23l.04.03-.08.49c-.45-.02-.75-.02-.91-.02l-.76.05.04-.51c.13-.01.24-.06.3-.13.07-.07.11-.18.13-.31.19-1.7.28-2.6.28-2.71,0-.11-.03-.19-.1-.23-.06-.04-.2-.07-.42-.09l-.04-.05.06-.47c.45.03.77.04.95.04l.88-.03c.22.81.49,1.68.81,2.6h.06c.29-.82.57-1.68.86-2.57Z"/>
    <path d="M16.81,141.32c-.88,0-1.65-.18-2.3-.55s-1.14-.89-1.49-1.58c-.35-.68-.52-1.49-.52-2.43,0-1.04.2-1.93.61-2.7.42-.76,1.01-1.35,1.78-1.76.77-.41,1.68-.61,2.73-.61.37,0,.77.03,1.2.09.42.05.78.11,1.08.16.3.06.5.1.58.12l.11.18c-.02.06-.06.2-.11.44-.04.24-.09.55-.15.94-.05.39-.09.81-.12,1.25l-1.39.1s.02-.12.03-.27c0-.14.01-.32.01-.52,0-.41-.12-.7-.37-.86-.25-.17-.65-.26-1.22-.26-.88,0-1.53.26-1.96.79-.43.53-.65,1.34-.65,2.43,0,1.18.22,2.1.66,2.75.44.65,1.05.97,1.82.97.26,0,.49-.03.7-.09.22-.06.38-.11.51-.17.12-.06.2-.11.23-.13v-1.37c0-.28-.05-.46-.14-.55-.09-.09-.26-.14-.52-.14h-.74l-.08-.12.14-1.02c.23,0,.43,0,.59.01.54.02,1.01.03,1.41.03.3,0,.6-.01.88-.03.29-.02.47-.04.56-.04l.11.55c-.17.11-.29.24-.38.4-.08.16-.13.39-.16.68-.03.3-.04.73-.04,1.29s.04.99.11,1.25l-.13.17s-.16.08-.49.18c-.32.1-.74.19-1.25.28-.5.09-1.06.13-1.66.13Z"/>
    <path d="M24.2,140.32c.37-.06.62-.17.76-.35.13-.18.2-.48.2-.9v-5.53c.01-.3-.03-.5-.1-.6-.06-.1-.2-.15-.41-.15h-.45s-.06-.1-.06-.1l.11-.84h1.94c.26.01.65,0,1.17-.03.52-.03.86-.05,1.02-.05l-.1.99c-.33.04-.57.1-.72.17-.15.07-.24.17-.28.3s-.08.33-.1.61c-.11,1.45-.16,3.21-.16,5.3,0,.26.02.45.08.57.05.12.13.2.26.25.13.04.32.06.58.06.48,0,.84-.05,1.07-.16.24-.11.41-.31.53-.6.11-.3.21-.77.29-1.41l1.18-.13.1.14c-.03.18-.09.59-.17,1.24-.08.64-.15,1.31-.2,2.01l-.14.15c-.26-.02-.83-.04-1.69-.08-.86-.03-1.65-.04-2.35-.04-.53,0-1.04.02-1.52.05-.48.04-.79.07-.92.09l.11-.96Z"/>
    <path d="M37.61,141.32c-.85,0-1.59-.18-2.21-.55-.62-.37-1.1-.9-1.42-1.59-.33-.68-.5-1.49-.5-2.43,0-1,.2-1.88.59-2.64.39-.76.95-1.35,1.66-1.78.72-.42,1.55-.64,2.48-.64.87,0,1.62.18,2.24.55.63.36,1.11.88,1.45,1.56.33.68.5,1.48.5,2.41,0,1.01-.2,1.9-.6,2.68-.4.77-.96,1.37-1.68,1.79-.73.43-1.56.64-2.5.64ZM37.98,140.09c.69,0,1.23-.27,1.62-.81.39-.54.58-1.32.58-2.31,0-1.26-.21-2.22-.63-2.89-.41-.67-.99-1.01-1.75-1.01-.69,0-1.23.28-1.61.82-.37.55-.56,1.32-.56,2.31,0,1.26.2,2.22.6,2.89.41.67.99,1,1.74,1Z"/>
    <path d="M47.37,141.14c-.34,0-.73.02-1.19.05-.45.04-.75.07-.9.09l.1-.95c.42-.08.7-.2.84-.36.14-.16.22-.42.22-.8v-5.66c.01-.26-.02-.45-.09-.56s-.19-.16-.37-.16c-.09,0-.19,0-.29.02-.09,0-.16.01-.19.01l-.1-.12.13-.86c.15,0,.43,0,.84.01.41,0,.79.01,1.14.01s.78,0,1.23-.02c.45-.02.77-.04.96-.04.99,0,1.75.19,2.27.58.52.38.78.93.78,1.65,0,.48-.14.91-.41,1.28-.28.37-.66.68-1.14.93.63.17,1.12.43,1.49.79.37.35.56.81.56,1.37s-.16,1.07-.47,1.51c-.31.43-.75.77-1.32,1.01-.56.24-1.21.36-1.95.36-.12,0-.28-.01-.47-.03-.2-.02-.36-.03-.46-.03-.13-.02-.32-.03-.58-.05-.26-.02-.46-.02-.61-.02ZM48.37,135.83c.11.02.35.04.69.08.35.04.59.05.7.05,0,.02.09-.02.28-.14.19-.12.35-.3.5-.53.15-.24.23-.53.23-.88,0-.5-.17-.86-.5-1.09-.32-.23-.83-.35-1.52-.35-.09,0-.16.02-.19.06-.04.04-.06.11-.06.22-.06.78-.1,1.64-.12,2.58ZM48.28,139.22c0,.31.1.53.31.66.22.13.57.19,1.06.19s.84-.13,1.11-.39c.27-.26.41-.61.41-1.07,0-.39-.13-.73-.39-.99-.25-.26-.62-.45-1.1-.56l-1.35.02-.05,2.14Z"/>
    <path d="M60.51,141.14l.08-.85c.32-.03.56-.06.71-.09.15-.04.25-.09.31-.15.06-.06.09-.16.09-.28,0-.11-.03-.28-.08-.51l-.3-1.11c-.5-.02-.94-.03-1.33-.03-.17,0-.53.03-1.08.08l-.31.03-.36,1.11c-.06.21-.09.36-.09.44,0,.17.05.3.15.37.1.06.28.1.53.1h.61l.08.1-.1.88c-.14,0-.43-.03-.87-.05-.44-.02-.85-.03-1.24-.03s-.77,0-1.09.01c-.32.01-.53.02-.64.03l.1-.94c.22-.04.4-.12.55-.27.14-.15.28-.39.4-.71l2.59-7.33,2.21-.23.16.06c.14.56.44,1.68.9,3.38.46,1.7.85,3.06,1.18,4.1.11.35.24.59.41.73.16.15.41.23.73.26l.06.1-.11.84c-.12,0-.36-.02-.71-.03-.35,0-.7-.01-1.05-.01-.51,0-1.01.01-1.5.04-.48.04-.79.06-.93.08l-.08-.12ZM59.99,137.01c.11,0,.46-.01,1.07-.04l-.85-3.23h-.18l-1.07,3.27h1.04Z"/>
    <path d="M67.43,140.32c.37-.06.62-.17.76-.35.13-.18.2-.48.2-.9v-5.53c.01-.3-.03-.5-.1-.6-.06-.1-.2-.15-.41-.15h-.45s-.06-.1-.06-.1l.11-.84h1.94c.26.01.65,0,1.17-.03.52-.03.86-.05,1.02-.05l-.1.99c-.33.04-.57.1-.72.17-.15.07-.24.17-.28.3s-.08.33-.1.61c-.11,1.45-.16,3.21-.16,5.3,0,.26.02.45.08.57.05.12.13.2.26.25.13.04.32.06.58.06.48,0,.84-.05,1.07-.16.24-.11.41-.31.53-.6.11-.3.21-.77.29-1.41l1.18-.13.1.14c-.03.18-.09.59-.17,1.24-.08.64-.15,1.31-.2,2.01l-.14.15c-.26-.02-.83-.04-1.69-.08-.86-.03-1.65-.04-2.35-.04-.53,0-1.04.02-1.52.05-.48.04-.79.07-.92.09l.11-.96Z"/>
    <path d="M85.45,141.32c-.88,0-1.64-.18-2.29-.55s-1.14-.89-1.49-1.58c-.35-.68-.52-1.49-.52-2.43,0-1.02.2-1.91.61-2.66.42-.76,1.01-1.35,1.77-1.77.77-.42,1.66-.64,2.66-.64.36,0,.74.03,1.15.09.41.05.76.11,1.05.16.29.06.47.1.55.12l.09.18c-.02.07-.06.23-.11.46-.04.24-.09.56-.15.97-.06.4-.1.83-.13,1.28l-1.37.09s0-.12.01-.26c0-.14.01-.31.01-.5,0-.42-.13-.73-.39-.93-.26-.2-.67-.3-1.23-.3-.76,0-1.35.27-1.75.81-.4.54-.59,1.34-.59,2.38,0,1.19.22,2.11.65,2.76.43.66,1.03.98,1.8.98.52,0,.93-.16,1.23-.47.3-.32.51-.84.63-1.54l1.39-.09c-.03.16-.08.52-.15,1.08-.07.56-.12,1.09-.14,1.59l-.14.18s-.16.06-.49.16c-.32.1-.72.19-1.19.28-.47.09-.97.13-1.49.13Z"/>
    <path d="M96.12,141.32c-.85,0-1.59-.18-2.21-.55-.62-.37-1.1-.9-1.42-1.59-.33-.68-.5-1.49-.5-2.43,0-1,.2-1.88.59-2.64.39-.76.95-1.35,1.66-1.78.72-.42,1.55-.64,2.48-.64.87,0,1.62.18,2.24.55.63.36,1.11.88,1.45,1.56.33.68.5,1.48.5,2.41,0,1.01-.2,1.9-.6,2.68-.4.77-.96,1.37-1.68,1.79-.73.43-1.56.64-2.5.64ZM96.5,140.09c.69,0,1.23-.27,1.62-.81.39-.54.58-1.32.58-2.31,0-1.26-.21-2.22-.63-2.89-.41-.67-.99-1.01-1.75-1.01-.69,0-1.23.28-1.61.82-.37.55-.56,1.32-.56,2.31,0,1.26.2,2.22.6,2.89.41.67.99,1,1.74,1Z"/>
    <path d="M110.87,141.53c-.95-1.5-1.9-2.97-2.86-4.39-.96-1.42-1.43-2.13-1.43-2.1h-.13v4.54c-.01.25.02.43.1.52.07.09.2.14.38.14l.64-.03.08.09-.15.91c-.13,0-.38-.02-.74-.03-.37-.02-.73-.02-1.1-.02-.32,0-.66.01-1.02.04-.37.04-.6.06-.71.08l.11-.96c.29-.04.51-.12.65-.26.13-.14.21-.36.22-.65l.17-5.74c0-.3-.08-.51-.24-.64-.15-.13-.46-.22-.93-.27l-.11-.13.11-.82c.1,0,.32.02.67.04.35.02.67.02.97.02.25,0,.52,0,.8-.02.29-.01.47-.02.56-.03.79,1.29,1.64,2.62,2.55,3.99.91,1.37,1.37,2.04,1.37,2.02h.14l-.02-4.4c-.02-.22-.06-.38-.13-.47-.07-.1-.19-.15-.36-.15h-.5s-.04-.09-.04-.09l.1-.9c.13,0,.38.02.74.03.36.02.72.02,1.09.02.29,0,.61,0,.97-.02.37-.02.61-.04.72-.04l-.08.95c-.33.05-.57.15-.7.28-.14.13-.21.34-.23.63l-.18,7.69-1.46.18Z"/>
    <path d="M116.36,140.34c.42-.06.69-.18.83-.36.14-.18.22-.48.22-.9v-5.51c.01-.3-.02-.51-.09-.61-.06-.11-.18-.16-.37-.16-.09,0-.18,0-.27.02-.09,0-.15.01-.17.01l-.09-.13.11-.87c.17.02.51.03,1,.03.5,0,1.04.01,1.62.01,1.97,0,3.32-.06,4.06-.17l.12.16c-.03.15-.08.49-.15,1.01-.07.53-.12,1.07-.15,1.63l-1.29.08s0-.13.01-.25c.01-.11.02-.23.02-.35,0-.28-.04-.48-.11-.6-.07-.13-.21-.22-.42-.26-.21-.04-.55-.06-1.01-.06-.25,0-.43.01-.53.03-.09.02-.16.06-.19.13-.03.06-.05.18-.06.33l-.1,2.51h1.36c.18.01.45,0,.8-.04.36-.04.6-.07.72-.08l.1.13-.2,1.23c-.12-.01-.34-.02-.67-.03-.33,0-.68-.01-1.05-.01-.35,0-.71.03-1.1.1l-.04,1.77c0,.36.04.6.12.73.09.12.25.18.51.18.15,0,.33,0,.53-.02.2-.02.34-.04.41-.04l.13.14-.16,1.08c-.17,0-.47-.02-.92-.03-.45-.02-.89-.02-1.34-.02s-.89.02-1.36.06c-.47.04-.77.08-.91.1l.1-.97Z"/>
    <path d="M133.36,138.42c-.16.75-.29,1.64-.39,2.68l-.15.15c-1.83-.06-3.33-.1-4.49-.1-.81,0-1.64.05-2.47.14l.1-.96c.4-.06.67-.17.82-.35.15-.18.23-.48.23-.9v-5.51c.01-.32-.02-.52-.08-.63-.06-.1-.18-.15-.38-.15-.12,0-.27.01-.44.03l-.09-.13.11-.87h.29c.68.03,1.46.04,2.33.04,2.14,0,3.61-.06,4.39-.17l.11.16c-.07.36-.14.78-.2,1.27-.06.49-.11.94-.12,1.34l-1.29.09.03-.57c0-.29-.04-.49-.13-.61-.08-.12-.24-.2-.49-.25-.25-.04-.66-.06-1.23-.06-.25,0-.43.01-.53.03-.09.02-.16.06-.19.13-.03.06-.05.18-.06.33l-.1,2.27h1.36c.2.01.45,0,.76-.02s.61-.05.92-.1l.12.13-.2,1.23c-.12,0-.22,0-.29-.01-.67-.02-1.2-.03-1.6-.03-.3,0-.67.03-1.11.09l-.03,2.07c0,.27.02.46.06.57.04.12.12.19.25.24.12.04.33.05.63.05.63,0,1.09-.04,1.37-.11.29-.07.49-.22.61-.44.13-.22.23-.59.3-1.1l1.18-.1.11.13Z"/>
    <path d="M143.28,141.37c-.63,0-1.15-.45-1.58-1.34l-1.25-2.55h-1.02l-.03,1.64c0,.33.02.57.06.72.05.15.14.25.28.3.13.04.37.07.69.09l.04.09-.13.87c-.17,0-.47-.02-.91-.03-.43,0-.83-.01-1.2-.01s-.73.01-1.1.03c-.37.02-.62.04-.73.04l.13-.95c.4-.05.67-.16.81-.32.14-.16.22-.45.22-.86v-5.59c0-.28-.03-.47-.1-.56-.06-.1-.18-.15-.37-.15-.11,0-.21,0-.3.02-.09,0-.16.01-.18.01l-.09-.12.13-.86c.13,0,.37,0,.73.01.37,0,.72.01,1.07.01.39,0,.8,0,1.25-.02.45-.01.76-.02.93-.03,1.1,0,1.94.21,2.52.64.58.43.87,1.04.87,1.83,0,.57-.17,1.09-.51,1.56-.34.47-.82.86-1.45,1.18l1.27,2.07c.26.44.52.76.78.95.25.19.53.29.84.29l.1.13-.1.76-1.69.15ZM140.77,136.38c.32-.13.6-.33.86-.59s.4-.68.4-1.24c0-.53-.18-.93-.54-1.19-.35-.26-.9-.39-1.64-.39-.1,0-.17.02-.2.06-.03.04-.05.12-.06.26-.06.99-.09,1.97-.11,2.95l1.29.14Z"/>
    <path d="M155.1,138.42c-.16.75-.29,1.64-.39,2.68l-.15.15c-1.83-.06-3.33-.1-4.49-.1-.81,0-1.64.05-2.47.14l.1-.96c.4-.06.67-.17.82-.35.15-.18.23-.48.23-.9v-5.51c.01-.32-.02-.52-.08-.63-.06-.1-.18-.15-.38-.15-.12,0-.27.01-.44.03l-.09-.13.11-.87h.29c.68.03,1.46.04,2.33.04,2.14,0,3.61-.06,4.39-.17l.11.16c-.07.36-.14.78-.2,1.27-.06.49-.11.94-.12,1.34l-1.29.09.03-.57c0-.29-.04-.49-.13-.61-.08-.12-.24-.2-.49-.25-.25-.04-.66-.06-1.23-.06-.25,0-.43.01-.53.03-.09.02-.16.06-.19.13-.03.06-.05.18-.06.33l-.1,2.27h1.36c.2.01.45,0,.76-.02s.61-.05.92-.1l.12.13-.2,1.23c-.12,0-.22,0-.29-.01-.67-.02-1.2-.03-1.6-.03-.3,0-.67.03-1.11.09l-.03,2.07c0,.27.02.46.06.57.04.12.12.19.25.24.12.04.33.05.63.05.63,0,1.09-.04,1.37-.11.29-.07.49-.22.61-.44.13-.22.23-.59.3-1.1l1.18-.1.11.13Z"/>
    <path d="M165.22,141.53c-.95-1.5-1.9-2.97-2.86-4.39-.96-1.42-1.43-2.13-1.43-2.1h-.13v4.54c-.01.25.02.43.1.52.07.09.2.14.38.14l.64-.03.08.09-.15.91c-.13,0-.38-.02-.74-.03-.37-.02-.73-.02-1.1-.02-.32,0-.66.01-1.02.04-.37.04-.6.06-.71.08l.11-.96c.29-.04.51-.12.65-.26.13-.14.21-.36.22-.65l.17-5.74c0-.3-.08-.51-.24-.64-.15-.13-.46-.22-.93-.27l-.11-.13.11-.82c.1,0,.32.02.67.04.35.02.67.02.97.02.25,0,.52,0,.8-.02.29-.01.47-.02.56-.03.79,1.29,1.64,2.62,2.55,3.99.91,1.37,1.37,2.04,1.37,2.02h.14l-.02-4.4c-.02-.22-.06-.38-.13-.47-.07-.1-.19-.15-.36-.15h-.5s-.04-.09-.04-.09l.1-.9c.13,0,.38.02.74.03.36.02.72.02,1.09.02.29,0,.61,0,.97-.02.37-.02.61-.04.72-.04l-.08.95c-.33.05-.57.15-.7.28-.14.13-.21.34-.23.63l-.18,7.69-1.46.18Z"/>
    <path d="M174.77,141.32c-.88,0-1.64-.18-2.29-.55s-1.14-.89-1.49-1.58c-.35-.68-.52-1.49-.52-2.43,0-1.02.2-1.91.61-2.66.42-.76,1.01-1.35,1.77-1.77.77-.42,1.66-.64,2.66-.64.36,0,.74.03,1.15.09.41.05.76.11,1.05.16.29.06.47.1.55.12l.09.18c-.02.07-.06.23-.11.46-.04.24-.09.56-.15.97-.06.4-.1.83-.13,1.28l-1.37.09s0-.12.01-.26c0-.14.01-.31.01-.5,0-.42-.13-.73-.39-.93-.26-.2-.67-.3-1.23-.3-.76,0-1.35.27-1.75.81-.4.54-.59,1.34-.59,2.38,0,1.19.22,2.11.65,2.76.43.66,1.03.98,1.8.98.52,0,.93-.16,1.23-.47.3-.32.51-.84.63-1.54l1.39-.09c-.03.16-.08.52-.15,1.08-.07.56-.12,1.09-.14,1.59l-.14.18s-.16.06-.49.16c-.32.1-.72.19-1.19.28-.47.09-.97.13-1.49.13Z"/>
    <path d="M188.93,138.42c-.16.75-.29,1.64-.39,2.68l-.15.15c-1.83-.06-3.33-.1-4.49-.1-.81,0-1.64.05-2.47.14l.1-.96c.4-.06.67-.17.82-.35.15-.18.23-.48.23-.9v-5.51c.01-.32-.02-.52-.08-.63-.06-.1-.18-.15-.38-.15-.12,0-.27.01-.44.03l-.09-.13.11-.87h.29c.68.03,1.46.04,2.33.04,2.14,0,3.61-.06,4.39-.17l.11.16c-.07.36-.14.78-.2,1.27-.06.49-.11.94-.12,1.34l-1.29.09.03-.57c0-.29-.04-.49-.13-.61-.08-.12-.24-.2-.49-.25-.25-.04-.66-.06-1.23-.06-.25,0-.43.01-.53.03-.09.02-.16.06-.19.13-.03.06-.05.18-.06.33l-.1,2.27h1.36c.2.01.45,0,.76-.02s.61-.05.92-.1l.12.13-.2,1.23c-.12,0-.22,0-.29-.01-.67-.02-1.2-.03-1.6-.03-.3,0-.67.03-1.11.09l-.03,2.07c0,.27.02.46.06.57.04.12.12.19.25.24.12.04.33.05.63.05.63,0,1.09-.04,1.37-.11.29-.07.49-.22.61-.44.13-.22.23-.59.3-1.1l1.18-.1.11.13Z"/>
    <path d="M29.55,161.51c-.6,0-1.14-.14-1.61-.41-.46-.27-.82-.66-1.07-1.17-.25-.5-.37-1.08-.37-1.74,0-.72.15-1.35.44-1.91.29-.56.7-1,1.22-1.31.52-.32,1.13-.47,1.82-.47.93,0,1.66.3,2.21.88.54.59.82,1.39.82,2.41,0,.72-.15,1.36-.44,1.93-.29.56-.7,1-1.22,1.32-.53.31-1.13.46-1.81.46ZM29.84,160.44c.42,0,.73-.16.95-.5.22-.34.32-.83.32-1.47,0-.91-.13-1.59-.38-2.05-.25-.47-.61-.7-1.08-.7-.42,0-.73.17-.95.51-.22.33-.32.82-.32,1.46,0,.91.12,1.59.38,2.06.25.46.61.69,1.08.69Z"/>
    <path d="M40.04,160.57c.24-.05.42-.13.52-.26.1-.13.15-.31.16-.55l.04-2.5c0-.42-.08-.74-.24-.94-.15-.21-.39-.31-.7-.31-.37,0-.79.18-1.27.54-.09,1.73-.14,2.82-.14,3.26,0,.24.03.41.09.51.06.09.18.14.35.14h.39s.03.04.03.04l-.15.9c-.1,0-.3-.02-.59-.03-.3,0-.6-.01-.92-.01s-.64.01-1,.03c-.36.03-.59.05-.7.05l.12-.9c.27-.03.46-.1.57-.22.11-.12.17-.32.17-.59v-3.06c0-.34-.05-.56-.15-.68-.1-.12-.29-.18-.55-.18h-.19l-.05-.08.08-.76c.54-.07,1.08-.16,1.62-.27.53-.11.88-.18,1.04-.2l.12.15c-.02.06-.05.19-.1.39-.04.2-.06.4-.06.6l.05.05c.3-.26.65-.52,1.04-.78.39-.26.67-.4.84-.4.68,0,1.21.17,1.6.5.38.32.57.78.57,1.36,0,.15-.04.65-.12,1.52-.09.99-.14,1.62-.14,1.89,0,.25.04.43.11.54.07.11.19.16.35.16.09,0,.18,0,.27-.01.09-.01.14-.02.17-.02l.03.05-.13.88c-.12,0-.33-.02-.64-.03-.3,0-.61-.01-.93-.01-.23,0-.53.01-.88.04-.36.04-.6.06-.72.08l.08-.9Z"/>
    <path d="M57.56,161.73c-.95-1.5-1.9-2.97-2.86-4.39-.96-1.42-1.43-2.13-1.43-2.1h-.13v4.54c-.01.25.02.43.1.52.07.09.2.14.38.14l.64-.03.08.09-.15.91c-.13,0-.38-.02-.74-.03-.37-.02-.73-.02-1.1-.02-.32,0-.66.01-1.02.04-.37.04-.6.06-.71.08l.11-.96c.29-.04.51-.12.65-.26.13-.14.21-.36.22-.65l.17-5.74c0-.3-.08-.51-.24-.64-.15-.13-.46-.22-.93-.27l-.11-.13.11-.82c.1,0,.32.02.67.04.35.02.67.02.97.02.25,0,.52,0,.8-.02.29-.01.47-.02.56-.03.79,1.29,1.64,2.62,2.55,3.99.91,1.37,1.37,2.04,1.37,2.02h.14l-.02-4.4c-.02-.22-.06-.38-.13-.47-.07-.1-.19-.15-.36-.15h-.5s-.04-.09-.04-.09l.1-.9c.13,0,.38.02.74.03.36.02.72.02,1.09.02.29,0,.61,0,.97-.02.37-.02.61-.04.72-.04l-.08.95c-.33.05-.57.15-.7.28-.14.13-.21.34-.23.63l-.18,7.69-1.46.18Z"/>
    <path d="M70.44,158.61c-.16.75-.29,1.64-.39,2.68l-.15.15c-1.83-.06-3.33-.1-4.49-.1-.81,0-1.64.05-2.47.14l.1-.96c.4-.06.67-.17.82-.35.15-.18.23-.48.23-.9v-5.51c.01-.32-.02-.52-.08-.63-.06-.1-.18-.15-.38-.15-.12,0-.27.01-.44.03l-.09-.13.11-.87h.29c.68.03,1.46.04,2.33.04,2.14,0,3.61-.06,4.39-.17l.11.16c-.07.36-.14.78-.2,1.27-.06.49-.11.94-.12,1.34l-1.29.09.03-.57c0-.29-.04-.49-.13-.61-.08-.12-.24-.2-.49-.25-.25-.04-.66-.06-1.23-.06-.25,0-.43.01-.53.03-.09.02-.16.06-.19.13-.03.06-.05.18-.06.33l-.1,2.27h1.36c.2.01.45,0,.76-.02s.61-.05.92-.1l.12.13-.2,1.23c-.12,0-.22,0-.29-.01-.67-.02-1.2-.03-1.6-.03-.3,0-.67.03-1.11.09l-.03,2.07c0,.27.02.46.06.57.04.12.12.19.25.24.12.04.33.05.63.05.63,0,1.09-.04,1.37-.11.29-.07.49-.22.61-.44.13-.22.23-.59.3-1.1l1.18-.1.11.13Z"/>
    <path d="M76.03,161.56c-.14-.54-.43-1.66-.88-3.38-.45-1.72-.84-3.15-1.19-4.3-.09-.3-.22-.52-.39-.65-.17-.13-.39-.22-.67-.24l-.05-.1.1-.85c.13,0,.37,0,.71.01.35,0,.69.01,1.04.01.48,0,.96-.01,1.43-.04.48-.04.79-.06.93-.06l.06.11-.06.85c-.33.04-.57.08-.71.12-.15.03-.25.08-.3.14-.05.06-.08.16-.08.29,0,.25.18,1.17.55,2.76.37,1.6.63,2.68.77,3.25h.17c.28-.74.82-2.48,1.62-5.21-.03-.22-.07-.42-.12-.63-.06-.24-.17-.4-.32-.5-.16-.09-.41-.14-.76-.15l-.05-.1.11-.85c.14,0,.41,0,.8.01.39,0,.77.01,1.15.01.45,0,.91-.01,1.39-.04.49-.04.8-.06.95-.06l.08.11-.08.85c-.34.04-.58.08-.72.12-.15.03-.25.08-.3.15-.05.06-.08.17-.08.3,0,.21.18,1.12.55,2.72.37,1.6.63,2.69.78,3.27h.17c.22-.6.58-1.71,1.07-3.33.5-1.62.74-2.55.74-2.76,0-.15-.05-.25-.16-.31-.11-.06-.3-.09-.57-.09h-.57l-.05-.11.1-.87c.13,0,.42.02.86.04.44.02.84.02,1.22.02s.7,0,1-.01c.3,0,.5-.01.6-.01l-.11.94c-.22.04-.37.1-.47.19-.09.09-.19.28-.29.55l-2.57,7.54-2.21.29c-.04-.32-.19-.97-.44-1.96-.25-1-.53-2.08-.84-3.25h-.13l-1.54,4.92-2.22.29Z"/>
    <path d="M96.4,161.51c-.45,0-.86-.04-1.23-.13-.37-.08-.69-.16-.94-.26-.25-.09-.37-.15-.37-.16l-.11-.2c0-.06.02-.21.05-.43.04-.23.07-.53.11-.92.04-.38.06-.75.06-1.1l1.19-.09c0,.54.05.95.14,1.24.1.29.26.49.49.61.22.12.54.18.97.18.47,0,.84-.1,1.11-.3.28-.21.42-.49.42-.84,0-.32-.15-.59-.44-.81-.29-.22-.74-.48-1.36-.78-.04-.02-.15-.08-.33-.16-.72-.35-1.28-.71-1.69-1.1-.4-.39-.6-.89-.6-1.5,0-.55.16-1.05.49-1.48.33-.44.79-.78,1.37-1.02.58-.25,1.24-.38,1.99-.38.42,0,.81.03,1.18.09.37.06.66.12.87.18s.35.11.41.12l.1.19c0,.06-.04.2-.09.44-.04.23-.09.53-.14.9-.05.37-.09.74-.12,1.13l-1.07.09-.13-.09s0-.09.01-.18c.01-.09.02-.2.02-.33,0-.44-.11-.75-.32-.93-.22-.19-.58-.28-1.09-.28-.42,0-.76.1-1.02.3-.27.19-.4.45-.4.76,0,.23.08.44.25.64.17.19.38.35.61.49.24.13.58.31,1.04.53.54.26.98.5,1.34.71.35.21.65.48.88.81.24.32.36.71.36,1.17,0,.58-.17,1.08-.5,1.52-.33.44-.8.78-1.4,1.02-.6.24-1.29.36-2.09.36Z"/>
    <path d="M103.57,160.54c.42-.09.71-.21.85-.37.14-.16.22-.44.22-.84v-5.59c0-.3-.04-.5-.11-.6-.06-.1-.2-.15-.41-.15h-.51s-.08-.1-.08-.1l.12-.84h2c.32.01.99-.02,2.02-.09l-.08.95c-.36.05-.6.13-.72.23-.12.1-.19.29-.22.56-.12,2.27-.18,4.18-.18,5.73,0,.4.04.66.11.8.08.14.23.2.45.2.11,0,.32-.01.64-.04l.06.09-.14.91h-.52s-1.6-.04-1.6-.04c-.45,0-1.11.04-2,.13l.09-.93Z"/>
    <path d="M117.76,161.73c-.95-1.5-1.9-2.97-2.86-4.39-.96-1.42-1.43-2.13-1.43-2.1h-.13v4.54c-.01.25.02.43.1.52.07.09.2.14.38.14l.64-.03.08.09-.15.91c-.13,0-.38-.02-.74-.03-.37-.02-.73-.02-1.1-.02-.32,0-.66.01-1.02.04-.37.04-.6.06-.71.08l.11-.96c.29-.04.51-.12.65-.26.13-.14.21-.36.22-.65l.17-5.74c0-.3-.08-.51-.24-.64-.15-.13-.46-.22-.93-.27l-.11-.13.11-.82c.1,0,.32.02.67.04.35.02.67.02.97.02.25,0,.52,0,.8-.02.29-.01.47-.02.56-.03.79,1.29,1.64,2.62,2.55,3.99.91,1.37,1.37,2.04,1.37,2.02h.14l-.02-4.4c-.02-.22-.06-.38-.13-.47-.07-.1-.19-.15-.36-.15h-.5s-.04-.09-.04-.09l.1-.9c.13,0,.38.02.74.03.36.02.72.02,1.09.02.29,0,.61,0,.97-.02.37-.02.61-.04.72-.04l-.08.95c-.33.05-.57.15-.7.28-.14.13-.21.34-.23.63l-.18,7.69-1.46.18Z"/>
    <path d="M127.15,161.51c-.85,0-1.59-.18-2.21-.55-.62-.37-1.1-.9-1.42-1.59-.33-.68-.5-1.49-.5-2.43,0-1,.2-1.88.59-2.64.39-.76.95-1.35,1.66-1.78.72-.42,1.55-.64,2.48-.64.87,0,1.62.18,2.24.55.63.36,1.11.88,1.45,1.56.33.68.5,1.48.5,2.41,0,1.01-.2,1.9-.6,2.68-.4.77-.96,1.37-1.68,1.79-.73.43-1.56.64-2.5.64ZM127.53,160.28c.69,0,1.23-.27,1.62-.81.39-.54.58-1.32.58-2.31,0-1.26-.21-2.22-.63-2.89-.41-.67-.99-1.01-1.75-1.01-.69,0-1.23.28-1.61.82-.37.55-.56,1.32-.56,2.31,0,1.26.2,2.22.6,2.89.41.67.99,1,1.74,1Z"/>
    <path d="M135.02,160.52c.37-.06.62-.17.76-.35.13-.18.2-.48.2-.9v-5.53c.01-.3-.03-.5-.1-.6-.06-.1-.2-.15-.41-.15h-.45s-.06-.1-.06-.1l.11-.84h1.94c.26.01.65,0,1.17-.03.52-.03.86-.05,1.02-.05l-.1.99c-.33.04-.57.1-.72.17-.15.07-.24.17-.28.3s-.08.33-.1.61c-.11,1.45-.16,3.21-.16,5.3,0,.26.02.45.08.57.05.12.13.2.26.25.13.04.32.06.58.06.48,0,.84-.05,1.07-.16.24-.11.41-.31.53-.6.11-.3.21-.77.29-1.41l1.18-.13.1.14c-.03.18-.09.59-.17,1.24-.08.64-.15,1.31-.2,2.01l-.14.15c-.26-.02-.83-.04-1.69-.08-.86-.03-1.65-.04-2.35-.04-.53,0-1.04.02-1.52.05-.48.04-.79.07-.92.09l.11-.96Z"/>
    <path d="M148.43,161.51c-.85,0-1.59-.18-2.21-.55-.62-.37-1.1-.9-1.42-1.59-.33-.68-.5-1.49-.5-2.43,0-1,.2-1.88.59-2.64.39-.76.95-1.35,1.66-1.78.72-.42,1.55-.64,2.48-.64.87,0,1.62.18,2.24.55.63.36,1.11.88,1.45,1.56.33.68.5,1.48.5,2.41,0,1.01-.2,1.9-.6,2.68-.4.77-.96,1.37-1.68,1.79-.73.43-1.56.64-2.5.64ZM148.81,160.28c.69,0,1.23-.27,1.62-.81.39-.54.58-1.32.58-2.31,0-1.26-.21-2.22-.63-2.89-.41-.67-.99-1.01-1.75-1.01-.69,0-1.23.28-1.61.82-.37.55-.56,1.32-.56,2.31,0,1.26.2,2.22.6,2.89.41.67.99,1,1.74,1Z"/>
    <path d="M160.29,161.51c-.88,0-1.65-.18-2.3-.55s-1.14-.89-1.49-1.58c-.35-.68-.52-1.49-.52-2.43,0-1.04.2-1.93.61-2.7.42-.76,1.01-1.35,1.78-1.76.77-.41,1.68-.61,2.73-.61.37,0,.77.03,1.2.09.42.05.78.11,1.08.16.3.06.5.1.58.12l.11.18c-.02.06-.06.2-.11.44-.04.24-.09.55-.15.94-.05.39-.09.81-.12,1.25l-1.39.1s.02-.12.03-.27c0-.14.01-.32.01-.52,0-.41-.12-.7-.37-.86-.25-.17-.65-.26-1.22-.26-.88,0-1.53.26-1.96.79-.43.53-.65,1.34-.65,2.43,0,1.18.22,2.1.66,2.75.44.65,1.05.97,1.82.97.26,0,.49-.03.7-.09.22-.06.38-.11.51-.17.12-.06.2-.11.23-.13v-1.37c0-.28-.05-.46-.14-.55-.09-.09-.26-.14-.52-.14h-.74l-.08-.12.14-1.02c.23,0,.43,0,.59.01.54.02,1.01.03,1.41.03.3,0,.6-.01.88-.03.29-.02.47-.04.56-.04l.11.55c-.17.11-.29.24-.38.4-.08.16-.13.39-.16.68-.03.3-.04.73-.04,1.29s.04.99.11,1.25l-.13.17s-.16.08-.49.18c-.32.1-.74.19-1.25.28-.5.09-1.06.13-1.66.13Z"/>
    <path d="M169,160.53c.39-.05.67-.12.85-.2.18-.09.3-.22.36-.39.06-.17.1-.43.1-.78v-.45c0-.26-.03-.49-.09-.7-.06-.22-.17-.48-.33-.79l-1.41-2.74c-.25-.49-.47-.83-.68-1.04-.21-.21-.53-.35-.97-.42l-.02-.08.1-.91c.13,0,.39,0,.76.02.37.02.74.02,1.09.02.31,0,.73-.02,1.26-.05.53-.04.88-.06,1.06-.06l.05.13-.08.81c-.32.02-.55.06-.68.13s-.19.17-.19.32c0,.18.33.97.98,2.37.19.45.28.66.27.64h.13l1.18-2.43c.14-.29.22-.51.22-.68,0-.1-.06-.18-.18-.23-.12-.06-.31-.1-.57-.12l-.03-.06.11-.83.69.03c.52.02.92.03,1.22.03.26,0,.55,0,.86-.02.31-.01.51-.03.59-.04l.05.11-.1.86c-.39.12-.7.31-.93.56-.22.25-.5.68-.84,1.28l-1.37,2.59c-.14.25-.22.49-.24.74-.02.25-.03.7-.03,1.37,0,.32.05.54.14.67.09.13.26.19.52.19.17,0,.32,0,.45-.01.13-.01.23-.02.27-.03l.06.08-.13.96c-.18,0-.51-.02-.98-.03-.47-.02-.93-.02-1.38-.02-.35,0-.76.02-1.25.06-.49.04-.81.08-.97.1l.1-.97Z"/>
    <path class="cls-4" d="M56.64,170.51h82.86"/>
  </g>
</svg>