<?xml version="1.0" encoding="UTF-8"?>
<svg id="Layer_1" data-name="Layer 1" xmlns="http://www.w3.org/2000/svg" viewBox="0 0 25 25">
  <defs>
    <style>
      .cls-1 {
        fill: #fff;
      }

      .cls-2 {
        fill: #2e4a4f;
      }
    </style>
  </defs>
  <path class="cls-2" d="M24.86,1.19c-.1-.24-.25-.46-.43-.64-.19-.18-.41-.33-.65-.42-.24-.09-.51-.14-.77-.13H2.14c-.27-.01-.54.03-.79.12s-.49.23-.68.41c-.2.18-.36.4-.47.64-.11.24-.18.51-.19.78v20.9c.02.56.25,1.1.64,1.5.4.4.93.63,1.5.64h20.86c.55-.02,1.06-.26,1.44-.66s.58-.93.56-1.48V1.96c0-.26-.04-.52-.14-.76ZM21.82,17.52c-.23.84-.57,1.56-.97,2.22v1.11h-.82c-3.6,4.04-10.82,3.43-15.2,0h-.65v-.53c-.37-.34-.72-.69-1.03-1.08-1.71-2.1-2.07-5,0-7.07.23-.23.5-.44.78-.62-.7-.89-1.12-1.99-1.12-3.11,0-2.8,2.3-4.86,5-5,7.42-.37,16.25,5.88,14.01,14.08Z"/>
  <path class="cls-2" d="M17.74-.03H7.47C3.39-.03.06,3.29.06,7.38v10.26c0,4.09,3.32,7.41,7.41,7.41h10.26c4.09,0,7.41-3.32,7.41-7.41V7.38C25.15,3.29,21.82-.03,17.74-.03ZM12.61,18.78c-3.46,0-6.27-2.81-6.27-6.27s2.81-6.27,6.27-6.27,6.27,2.81,6.27,6.27-2.81,6.27-6.27,6.27ZM19.45,6.81c-.63,0-1.14-.51-1.14-1.14s.51-1.14,1.14-1.14,1.14.51,1.14,1.14-.51,1.14-1.14,1.14Z"/>
  <path class="cls-2" d="M17.74,12.51c0,2.83-2.3,5.13-5.13,5.13s-5.13-2.3-5.13-5.13,2.3-5.13,5.13-5.13,5.13,2.3,5.13,5.13Z"/>
  <path class="cls-1" d="M20.53,4.94c0,.86-.7,1.56-1.56,1.56s-1.56-.7-1.56-1.56.7-1.56,1.56-1.56,1.56.7,1.56,1.56Z"/>
</svg>