<?xml version="1.0" encoding="UTF-8"?>
<svg id="Layer_2" data-name="Layer 2" xmlns="http://www.w3.org/2000/svg" viewBox="0 0 254.96 184.99">
  <defs>
    <style>
      .cls-1 {
        fill: #fff;
      }

      .cls-2 {
        fill: #979b9d;
      }

      .cls-3 {
        fill: #e21f25;
      }

      .cls-4 {
        fill: #e32127;
      }

      .cls-5 {
        fill: #fdfdfd;
      }
    </style>
  </defs>
  <g id="Layer_1-2" data-name="Layer 1">
    <g>
      <path class="cls-5" d="M151.68,1.11s-.81-.05-1.16-.17c-3.77-1.31-3.25-1.01-7.13-.56-.87.1-2.05-.18-2.83.05-.65.19-.91,1.27-1.27,1.35-.24.05-.64-.23-.94-.2-1.05.1-2.14.13-3.12.24-.59.06-1.53.56-1.88.5-.09-.01-.38-.78-1.35-1.1-3.59-1.2-8.61-.36-12.14.83-.48.16-2.96,1.38-3.11,1.69-.41.83,1.33,2.86,2.17,2.9.46.02.87-.23,1.32-.26.14.65-.15,1.93-.72,2.29-.28.17-2.33-.27-2.39-.37-.12-.17.18-.65.18-.89,0-.88-2.21-1.87-1.62-.67.1.22.6.28.67.4.05.09.52,1.89.52,1.99.03.5-1.1,1.48.32,1.25,1.66-.26,1.01.08,2.47.28.75.11,2.82.13,3.53-.03,1.59-.36.43-1.56.66-1.86.05-.07.69-.08.9-.3s.19-.8.43-1.13c.26-.36.99-.53,1.18-.98.17-.39.07-1.1.14-1.18.05-.06,1.06-.1,1.49-.31.53-.25.79-.83,1.29-1.11,1.37-.78.85-.06,1.09.52.15.37.57.36.62.45.68,1.08-2.25,1.05-2.82,1.52-1.21,1,.65.77.72.83.08.08-.15,1.55.87,1.88,1.28.42,3.12-1.1,4.88.64.34.34,1.19,1.81,1.33,2.27s.06,1.4.11,1.45c.09.08,1.19-.22,1.44.36.43.99-1.45.2-1.19,1.42.16.76,1.52-.02,1.67.14-.07,1.46-1.51,1.14-1.15,2.94.09.45,2.03,3.87,2.36,4.12.19.15,2.52.94,2.63.85.01-1.47,1.08-2.6.99-4.04,1.13-.43,2.34-.6,3.31-1.37.33-.26.42-.72.89-1.03,1.23-.8,3.12-.4,4.42-1.82,1.04-1.14,0-1.71.35-2.75.1-.28,1.19-1.62,1.47-1.92.2-.22.55-.24.57-.26.14-.13-1.71-.96-1.2-1.91.67-.02,1.14.25.97-.61s-1.42-.15-.92-1.62c.12-.35,1.49-1.64,1.87-1.97.24-.21,2.06-1.22,1.68-1.55-1.27-.34-3.31.52-4.4.25-.59-.15-.1-1.39-.16-1.45ZM230.88,41.38s-.02.26.12.24c.63-1.44,2.96-1.38,3.89-2.23.1-.09,1.14-1.63,1.21-1.79.09-.22.78-2.46.79-2.6,0-.12-.55-2.13-.61-2.25-.33-.74-2.22-1.91-2.26-2.07-.21-.86,1.63-1.28,1.17-2-.03-.05-.87-.29-1.04-.25-.37.11-.31.75-.5.71-.08-.02-1.31-.84-1.41-.94-.54-.51.22-.49.53-.88.17-.22.95-1.91,1.14-.7.05.31-.37.75.22,1.08.77-.34,1.4-.61,2.28-.48-.24,1.83.38.9.92,1.24.42.26.64,2.87,1.8,2.57,2.08-1.4-1.35-2.96-1.75-3.93-.24-.58.92-.38.97-.75.03-.2-.18-.57-.17-.88.03-.46.28-.96.16-1.43-.07-.28-1.2-.43-.61-1.13l.83.24-.48-2.64c-1.67,1.22-1.73.33-3.11-.37-.55-.28-1.16-.38-1.68-.72-1.36-.88-2.16-3.09-4.34-2.4-1.2.38-.27.66-.21,1.45.14,1.85-1.53.8-2.54.83-.81.02-1.34.54-2.37.47-1.71-.11-3.34-.69-4.81-1.21-.33-.12-1.9-.61-2.06-.45v1.44c-1.22.46-2.5-.88-3.42-.69-.72.15-2.1.97-1.86,1.88-.45.04-.12-.58-.47-.85-.11-.09-2.29-.86-2.63-.97-.7-.21-1.95.22-1.93-.82.84.36,1.77.35,2.64.6.58.17,1.22.8,1.8.81,1.01.02,1.92-1.12,2.66-1.17.84-.05,1.9,1.12,2.98.72l.12-1.44c1.12-.14,2.37.97,3.17,1.15.84.19,3.96.61,4.73.51.52-.07,1-.42,1.48-.45.65-.03,1.51.43,2.26.22-1.52-2.94,1.6-3.19,3.44-1.64s1.43,1.42,3.69,2.55c.34.17.71.69.94.73.37.07,1.16-.71,1.74-.42.08.59,1.04,2.98.72,3.33-.1.11-.73-.13-.7.13.09.69.8,1.25,1.52,1.06.12-.03,1.27-1.93,1.31-2.06.14-.48.12-1.79,0-2.29-.05-.19-1.89-3.18-2.04-3.3-.83-.63-1.41-.23-1.86-.35-.52-.14-1.01-.84-1.8-.61l.99-3.08c.9-.12,1.82.06,2.71-.04.54-.06,1.07-.7,1.57-.36.23.15.29.72.58.77.24.04,1.55-.22,1.58-.64l-.96-.37c.4-1.95,1.66-.47,2.88-.36l.36-1.2c1.36.85-.12,2.4-.31,3.3-.22,1.03,3.3,4,4.27,4.61.05-.91.23-1.8.14-2.71-.02-.18-.26-.37-.3-.57-.06-.27.22-.6.14-.76-.27-.49-2.74-.79-1.79-2.21.38-.57,2.67.12,2.77.02.03-.03,0-.53.23-.85.68-.93,1.31-1.08,2.41-.84-.07-.74-2.03-1.03-2.16-1.21-.03-.04.22-.9.26-.93.23-.22,3.24.66,3.82.7-.64-.63.64-.94.24-1.43-.13-.16-3.52-.43-4.14-.55-1.77-.35-3.47-1-5.22-1.38l.72-1.19c-2.15-.37-1.19.7-1.44.96-.21.23-2.7-.19-3.21-.17-4.44.22-6.99-.2-11.37-1.21-.77-.18-1.75-.05-2.56-.32-.69-.23-.99-.84-1.69-.94l.12,1.44c-.73.32-2.01-.07-2.49-.01-.1.01-.09.98-1.34.12-.36-.25-.38-.69-.67-.82-2.34-1-4.83.2-7.13-.25-.08-.02-1.45-.7-1.52-.75-.04-.03.14-.36-.02-.57-.7-.9-2.23-.5-3.24-.62s-1.7-.72-2.73-.29c-.27.11-.26.51-.46.55-1.29.28-2.88-.16-4.34.65-.49.27-.21.67-.31.76-.07.06-1.35.06-1.81.23-.32.12-.31.43-.51.5-.81.29-1.89-.12-2.58.74-1.06-2.52-3.03-.74-2.28,1.44l-3.6-.96.72,1.2c-1.23.02-3.78-.09-4.79.62-.2.14-.22.61-.36.58-.61-.11-1.14-1.63-2.28-1.2-.05.38.38.16.56.53.14.28.18.6.16.91-1.61-.32-1.78,1.42-3.36.96l.36.71c-1.37-.2-.86-.52-1.3-1.09-.24-.31-.77-.2-.74-.58,1.44.32,6.02.38,2.46-1.14-1.81-.78-3.32-1.38-5.1-.29l.71.91c-.04,1,1.07,2.11.97,3.04-.07.66-.95.96-1.1,1.32-.11.26.31.45.31.6,0,.74-1.94.33.42,2.52.31.29.81.33,1.01.55.61.66.43,2.48.55,2.56.36.16,1.25-.33,1.4-.22.07.05.17.5.38.7,1.02.99,1.84,1.1,3.26,1.19.33.96-.56,1.02-.71,1.38-.14.32-.1.88-.26,1.31-.05.14-.8.32-.45.88.08.12,2.47,1.31,2.61,1.35.51.13,1.82.06,1.9.14.11.1.05.9.32,1.12.17.14.67.14.98.29.15.08.14.49.31.5.64.04,1.03-.54,1.89.23.2-.73-1.14-1.14-1.57-1.79-.36-.56-.45-1.39-.95-1.92-.03-.78.66-.86.88-1.14.09-.12-.19-.48.2-.66.42,1.23,1.04.24,1.93.27.61.02,1.28.65,1.55,1.17-.61-.02-1.12-.06-1.68.24v-.24c.02-.08-.03-.19,0-.24.64.18,1.12-.27.48-.48-.59-.19-2.66.36-2.65,1.07,0,.09.62,1.54.72,1.69.53.81,1.78.99,1.69,2.03,0,.04-.18.27-.24.72-.04.33.22,1.2-.24,1.2.18-2.07-1.65-1.24-2.39-1.56-.1-.04-1.42-.88-1.48-.95-.21-.26-.13-.81-.36-.87-.69-.19-1.56.52-2.38.52-1.12,0-1.94-.97-2.64-.97-.64,0-1.18.84-1.94.94-1.04.14-1.7-.67-2.74-.48-.41,1.08.42,1.67.57,2.16s-.12,1.11.4,1.55c.84.71,1.87.05,2.45.17.24.05.47.43.78.43.27,0,1.28-.91,1.76-.2.05.07.3,1.61.28,1.75-.05.58-.94.9-.98,1.93,0,.22.46,2.31.55,2.58.06.17,1.62,2.93,1.75,3.05.27.26.82.26.97.47.21.31.08,1.41.33,2.07.29.75,1.53,1.46,2.03,2.77.24.61.65,3.09.85,3.23.34.26,2.37-.36,2.83-.57.61-.28,5.65-3.7,5.83-4,.11-1.17,1.67-2.33.97-3.38-.41-.62-1.12-.53-1.53-.81-.29-.2-.44-.89-.79-.96-.27-.06-1.63,1.46-2.38,1.42-.68-.45.43-.97.12-1.67-.31-.11-1.06.34-1.19.24-.03-.03-.12-.56-.28-.8-.53-.78-1.16-1.15-.93-2.32l-.48.72c-1.32-.26-.41-1.18.61-1.16,1.21.03,1.42,2.52,2.98,2.98.71.21,1.06-.18,1.56-.14.53.04,1.71,1.01,2.9.93.34-.02.65-.39,1.17-.47,2.63-.36,2.08.54,3.55,1.51.43.28,1.1.38,1.14.42.07.07-.58,1.45.63,1.66.62.11.6-.9,1.04-.94.21,2.78,1.28,4.9,2.17,7.43.49-.89,3-.6,3.12-.72.14-.13-.18-1.71.05-2.11.07-.13,1.82-1.46,2.23-1.96s1.33-2.33,1.47-2.37c.15-.05,2.6-.21,2.72-.16.18.08,1.88,2.33,1.99,2.59.29.69-.33,2.02,1,1.86,1-.12.56-1.22,1.57.47.13.22.46.68.48.72.17.35.37.83.48,1.2.08.28.24.45.24.48.1.9-.26,1.37-.48,2.16-.23.84-.09.39,0,.96.01.08-.02.17,0,.24.08.24-.16.42.24.72.19.15.34-.02.72.48-.09.62.27.98.48,1.44.11.25-.08.57.34.97.33.31.89.39,1.34.71.12.09.19.51.48.48.16-.37-.22-.59-.24-.72-.01-.08.01-.16,0-.24-.09-.51.02-.57-.24-1.2-.47-1.14-2.16-2.82-2.35-3.79-.12-.61.28-1.25.19-1.97l.12-.24c.29.34.63.53,1.08.47.22.18,1.61,1.43,1.7,1.55.27.35.14.65.22.85.24.59.5.1.72,0,.07-.03.2.04.24,0,.44-.42.16-.81.24-.96.04-.07,1.05-.15,1.32-.72.37-.77.12-2.5-.36-3.24-1.12-1.71-3.12-1.5-1.76-3.9.23-.41.83-.14.32-.77.9-.08.93-.12,1.44.48ZM190.08,5.66c0-.79-1.02-1-.5-1.8,1.05-1.6,2.29-.79,3.68-1.37s-1.06-.69-1.6-.63c-.39.04-3.1.64-3.22.75-.06.05-.04.37-.15.56-.07.11-.32.07-.34.22,0,.12.27.42.18.56-.06.1-1.07.3-.95.87.12.52,2.33,1.01,2.88.84ZM186.72,3.51c-.84.16-1.71-.33-2.51-.25-1.21.12.87,1.16,1.15,1.16.19,0,1.88-.52,1.36-.91ZM174.96,4.22c-2.14-.65-3.5.13-5.42.45-.6.1-1.77-.23-1.98.42-.58,1.81.56,1.04,1.17,1.4.38.23.75,2,1.91,1.8.04-.31.64-2.08.73-2.16.07-.06.56-.02.73.11.53.39-.43,1.5,1.66,1.09.13-1.25-1.59-1.09-1.68-2.16,1.2-.16,2.77.83,2.88-.96ZM114.48,6.86c.78-.77-2.11-1.64-2.64-1.44-.19.17,1.15,1.6,1.25,1.64.06.03,1.34-.15,1.39-.2ZM109.68,6.14c-1.37-.18-1.51.32-2.16,1.19,1.37.51,2.01.34,2.16-1.19ZM106.78,7.61c-.17-.17-1.34-.03-1.65.1-.14.06-1.76,1.16-1.21,1.43,1.41.12,3.14,1.48,4.47,1.54,1.05.05,2.68-1.08,3.94-.71-.34-.49-1.76-1.46-2.28-1.67-.66-.26-.23,1.05-.36,1.19-.5-.26-1.29-.27-1.76-.47-.3-.13-.07-.6-.17-.7-.16-.15-.77.09-.93-.05-.09-.09.05-.57-.03-.66ZM115.44,8.54h-2.88c-.23,1.01.5.67,1.27,1.01,1.43.64,1.47,1.38,1.61-1.01ZM112.08,11.42c-.18-.2-1.67.82-2.09.9-2.98.62-4.26-2.24-7.27-1.62.38.67-.77,2.28-.46,2.62.05.05.37-.04.49.04.25.18.22.46.56.48.79.05,1.53-.72,2.05-.4.3.19,1.45,2.29,1.2,2.53-2.13-.28-4.65-.92-6.85-.73-1.11.1-2.12.77-3.1.74-.81-.02-1.36-.56-1.98-.67-.78-.15-1.58.05-2.32-.08-2.08-.38-3.64-1.36-5.92-.83-1.37.32-1.94,1.8-3.34,1.82-.14.67.73.62.92,1.12.61,1.59-1.39.83-1.36,1.84.03,1.09,1.87.89,2.61.88.5,1.92-2.55.48-1.87,2.46.06.18,1.89,2.01,2.03,2.05.54.19,1.4-.04,2,.04l-.24.96c.71-.28,1.2-.12,1.92,0-.83-3.46.85-1.54,1.51-1.7.57-.14.83-1.15,1.05-1.19.3-.06,4.07,1.49,4.76,1.69,2.55,2,3.61,3.65,5.29,6.22.28.44,1.02.86,1.18,1.22.47,1.04-.12,3.62.24,5.04.08.32,1.37,2.66,1.6,2.96.4.5,1.05.76,1.51,1.37.7.92,1.41,2.54,2.06,3.58.83.19.26-.53.59-.96,1.33.39,2.31,2.82,3.17,3.31.23.13,3.77,1.15,3.91,1-.62-3.35-.56-5.79,3.6-4.79-.7-1.22,2.97-.59,3.1-.46.08.07.14,1.46.53,1.99.81,1.12,1.07.22.83-.82-.31-1.32-1.12-1.49.21-2.87.45-.47,1.39-.81,1.67-1.2.51-.72.38-2.24,1.33-3.23.49-.51,1.32-.54,1.4-.64.24-.29-.19-1.01.83-1.69,1.61-1.07,1.3.1,1.74.29.65.28.6-.43.98-.68s2.12-.71.94-.99c-1.02-.24-1.93.14-1.45-1.22.38-1.09,2.4-1.99,3.49-2.14.19.94-.62,1.53-.72,2.39,5.18.74,1.54-.64,1.24-1.6-.22-.72.19-1.83-.17-2.47-.22-.39-1.5-.79-1.91-1.21-.46-.49-1.66-3.24-1.82-3.34-2.25,2.28-1.86.68-3.01-.7-.92-1.11-2.32-1.39-3.7-1.22.06.97-.1,2.02.01,2.98.06.56.54.95.49,1.69-.07,1.07-.92.94-1,1.25-.13.56.67,2-.11,2.23-1.21.36-1.16-2.08-1.8-2.51-1.9-.76-5.65-1.18-5.53-3.84.06-1.41,2.28-3.49,3.74-3.25.14,1.4.82.42,1.71.32.32-.04.69.24,1.05.17-2.34-1.99-.48-2.1-.3-3.02.09-.43-.57-2.34-.42-2.49.57.42,2.43-.11,2.62.02.29.2.28,1.93.26,2.38.16.18,1.32-.84,1.68-.48.15.15-.03,1.04-.22,1.33-.39.62-1.84.77-1.94,1.19-.21.94,1.31.3,1.74.4,1.18.27,1.37,1.92,3.4,1.63s.63-1.8.87-2.13c.04-.05.68-.17.94-.38,1.79-1.44-.75-1.29-1.54-2.29-.44-.56-.31-1.39-.68-1.84s-2.24-1.12-2.89-1.54c-.8-.52-1.31-1.52-2.32-1.77-.87-.22-1.44.15-2.28.16-1.08.01-1.67-.66-2.62.24-.81.76-.81,1.82.08,2.52s2.21.23,1.24,2.4c-.82,1.84-1.14-.77-1.22-.86-.15-.16-1.06.33-1.19.24-.08-.06-.53-1.52-.68-1.85-.27-.57-1.15-.95-.65-1.75.12-.18,2.79-1.82.28-1.6-1.82.16-.77,1.19-.91,2.13-.2,1.34-1.61,2.36-1.65,2.51-.08.35.13,1.07-.02,1.25-.31.37-2.81.21-3.09-.34-.26-.49.73-.31,1.1-.58,1.42-1.01-.56-1.42-.92-2.24-.32-.75-.14-1.56-.18-2.34ZM115.65,11.44c-.72-.63-2.55.56-2.13,1.16.05.08,1.52.91,1.61.93.2.03.98-.15,1.02-.21.07-.1-.43-1.82-.5-1.88ZM155.04,46.9h25.08c.41,0,1.56.9,1.56,1.32v10.91c2.53-.97,4.77-3.78,5.04-6.47l-3.36.72c-.79-1.97.37-1.42,1.74-1.97.75-.3,4.57-2.17,4.46-2.89-.03-.21-.43-.57-.52-.93-.38-1.44-.44-3.1-1.47-4.28-.29-.33-.84-.49-1.07-.85-.43-.69-.12-1.51-.44-2.2-.19-.4-.77-.62-1.09-1.07-.87-1.25-2.41-4.35-2.36-5.81.05-1.14,1.27-1.8.98-3-.51-.18-.92.47-1.28.44-.25-.02-.53-.35-.81-.39-.63-.08-2.55-.11-2.96-.4-.28-.2-.24-.89-.42-1.26-.62-1.24-.99-1.41-.78-3.08.26-2.1,3.05.37,4.1-.73l-2.94-8.79c-.22-.89-1.49-.86-1.87-1.25-.25-.26-.19-.76-.25-.82-.17-.16-3.99.68-4.5.86-.21.07-1.88.85-1.97.91-.41.31-.1.95-.29,1.27-.07.11-.56.21-.78.53-.33.49-.46,1.07-.85,1.56-1.02,1.29-3.19,2-3.13,3.59.15,4.11,2.7-.79,3.32,2.22.17.84.01,1.59-.77.76-.16-.18-.12-.82-.62-.34-.56.53-.02,2.22-.26,2.5-.07.08-1.04.12-1.41.39-.53.4-.58,1.7-1.93,1.55.39-1.49-1.29-2.2-1.74-3.18-.16-.35-.53-2.21-.67-2.34-.23.04-1.39.42-1.44.48-.13.18.8,1.61.48,1.91-.13.12-1.49-.16-1.87,1.37-.48,1.97,1.01.48,1.95.81.59.2.3,1.06.4,1.17s1.33-.06,1.67.01c0,.9-.38,1.76-1.32,1.19-.51.5.24.49.47.72.64.63,1.16,1,1.04,1.99-.23,1.88-3.3-.12-3.92,1.13-.18.37-.22,2.6-.09,2.97.17.48.9.33,1.31.61.95.68-.73,1.98-1.06,2.57s-.36,1.36-.75,1.89c-.71.99-2.79,1.77-2.65,3.71ZM155.23,18.18c-.33-.19-3.13.36-3.79.31.64,2.7,2.42,1.98,4.32,1.07.15-.21-.38-1.29-.52-1.38ZM0,65.11c.45.1.58-.22.82-.5,4.11-4.71,7.29-12.23,12.88-15.42,3.32-1.9,7.55-3.05,11.38-2.77,6.15.45,13.48.96,19.65.44,4.04-.34,8.66-1.71,12.79-2.33,2.57-.38,6.07-.32,8.4-.96,4.9-1.35-1.41-6.6-3.17-7.94-5.63-4.3-11.03-6.38-18.23-6-.82.04-2.15.57-2.87.48-.62-.08-4.07-2.42-5.02-2.92-7.77-4.1-16.35-7.77-25.36-6.43,3.97,3.92,11.35,9.73,9.73,16.07-1.05,4.1-5.74,6.13-8.65,8.86-5.65,5.29-9.19,12.48-12.35,19.42ZM244.32,25.08c.24-.22,2.64.56,1.98-.9-.33-.72-.67-.24-1-.43-.63-.35-1.25-1.12-2.18-1.07.73.88.32,1.92.58,2.9.12.45.54.4.61.63.07.24.34,2.38.25,2.46-1.42-.41-.94.92-1.24,1.17-.19.16-1.61-.06-2.14.61-.18.23-.51,1.4-.47,1.66.01.09.94.54.49,1.59,1.12.23.95-.88.84-1.67,1.13.92.64.12,1.14-.09.45-.19,1.05.06,1.16-.02.26-.19.14-.86.77-1.17s1.78.69,1.61-.99c-.04-.4-.46-.75-.57-1.15-.11-.42.1-.85-.03-1.14-.14-.32-2.27-1.98-1.8-2.41ZM87,25.8v.24c.16-.08.16-.16,0-.24ZM86.64,26.04c-.14-.14-1.43.61-1.2.72.41-.08,1.66-.25,1.2-.72ZM239.03,43.31c-.12-.12-1.11.05-1.43-.01.46.87-.1,1.86-.02,2.52.07.53.51.46.68.68.22.29-.12,1.36,1.01.25-.27-.65.15-3.06-.23-3.43ZM108.84,44.98v.24c.16-.08.16-.16,0-.24ZM122.4,47.13c.58-.02,1.12-.04,1.69.12.32.08,2.65,2.09,2.63.97,0-.43-3.84-2.48-4.32-1.08ZM120.72,47.62c-1.54-.48-1.41,1.02-1.92,1.32-.36.21-.99-.1-.96.35l2.4,1.2.48-2.88ZM241.92,47.86h-1.2s0,1.2,0,1.2c-.7.05-.99-.66-1.44-.96-.65,1.34.17,1.11.42,1.48.03.05-.18.88.06,1.16,1.55-.39,2.32-1.22,2.16-2.88ZM129.36,49.29c-.04-1.05-1.11-1.03-1.92-.96-.31,1.51.77.84,1.92.96ZM110.04,48.81h-45l1.8,2.4,7.97,8.82,35.96.04c4.69.19,7.04,5.88,3.23,9-.79.65-2.24,1.32-3.24,1.32h-26.52l1.8,2.4,22.32,24.93h15.24l-13.2-15.1c13.21-.93,20.2-16.02,12.34-26.83-2.86-3.93-7.85-6.58-12.7-6.97ZM179.76,48.81h-34.2c-5.36,0-11.15,4.93-12.59,9.96s-1.07,18.93-.74,24.45c.43,7.28,5,13.7,12.64,14.47,8.27.83,18.54-.14,27.1.02.57.01,1.09.25,1.66.26,2.04.05,4.09-.06,6.13,0v-12.47h-35.76v-24.93h35.76v-11.75ZM245.28,97.72c-.05-.56-.42-1.11-.68-1.6-8.31-15.74-17.24-31.16-25.51-46.92-.17-.37-.46-.36-.8-.4-1.32-.15-4.96-.16-6.27,0-.26.03-.53,0-.71.25l-26.28,48.67h13.56l17.04-33.09,17.04,33.09h12.6ZM241.97,52.72c.65-.35.9.79,1.38.05-1.31-3.63-1.47-1.66-3.49-1.31-.33.06-.53-.86-1.3-.49-.23.64.43.38.48.63.06.28-.12,1.52.36,1.52.38,0,.23-1.99,1.56-1.43-.19.71-.42.86.3,1.26.83.45.58-.15.71-.22ZM122.4,52.17c.24-1.65-.57-1.51-1.92-1.43l1.92,1.43ZM225.12,52.41c-.35.13-2.41-.7-2.16.11.22.73,1.58,2.47,2.01,3.27.65,1.19,1.43,3.28,2.2,4.28.32.41,2.07,2.13,2.51,1.69.08-.08.23-2.09.2-2.22-.21-.89-1.36-1.36-1.57-1.69-.23-.35-.08-1.14-.38-1.54-.22-.3-1.33-.68-1.73-1.02-.48-.41-.83-1.08-1.31-1.58-.08-.09-1.4-.72-.59-.82.45-.06.96.29.83-.47ZM238.32,52.17c-.65.45-1.24-.18-1.91.11-.71.31-.92,1.43-1.02,1.51-.14.11-2.2.97-2.3,1.06-.13.11-.03.62-.28.8s-.79-.02-1,.25c-.69.92.26,3.64,1.4,3.88.46.1.98-.04,1.34.04.28.07.31.7.52.72.07,0,1.15-.61,1.21-.71.22-.38.05-.99.23-1.45s1-1.48,1.05-1.83c.02-.19-.62-1.65-.41-2.31.12-.37.68-.41.83-.65.14-.22-.12-.51-.06-.67.02-.06.66-.08.4-.76ZM131.04,90.53c-.16-.67-.88-1.07-1.14-1.61-.93-1.94.63-1.91.68-3.31.02-.55-.26-1.09-.27-1.66-.12-6.69-.96-21.77,1.41-27.38.22-.52,1.52-2.63,1.48-2.83-.12-.59-1.95-.29-2.51-.38-.81-.12-1.39-.75-2.41-.71-1.79.05-1.91,1.49-2.45,1.67-.72.24-1.82-1.18-1.76.02,1.51-.38,1.2,1.43,1.56,2.4.92,2.43,1.99,4.06,2.25,6.86.1,1.06-.18,2.93.07,3.76.17.54.85.53.92.81.4,1.66-.44,5.98-.72,7.86-.23,1.56-.94,4.01-.97,5.29-.02.91.44,1.96.26,2.85-.06.29-.7-.03-.75.26-.18.94.32,4.41.96,5.04.73.73,2.34,1.49,3.37,1.06ZM241.92,56.01c-.19-.21-.76.44-1.09.49-.69.09-1.63-.49-2.48.02.39,1.17-.68,2.2-.76,2.99-.01.15.94.96.49,1.78.92.25.27-1.18.48-1.44,1.09-.07.91,2.58,1.91,1.3-.23-.68-.79-1.94-.73-2.61.02-.24.82-.09.97-.49-.41-.8-2.45.53-1.91-.72.3-.69,2.04-.19,2.72-.4.41-.13.54-.77.4-.92ZM251.76,59.12c-.76-.12-1.45-.62-2.27-.48-.61.1-1.07.96-1.21.96-.5,0-.83-1.79-1.32-2.04-1.58-.8-2.12,1.3-.25,1.33v.23c-.82-.32-.32,1.15-.24,1.2.03.02.45-.27.78-.2.13.03,2.37,1.05,2.45,1.16.83,1.23-.45,2.31-.35,2.39.91-.01,1.68-.17,2.4.48v-5.03ZM181.2,62.24l-12.48.24c0,.85.39,1.62.23,2.5s-1.07,1.2-.94,2.62c.1,1.05.83,1.56,1.08,2.3s.2,1.8.47,2.64c.29.9,1.04,1.64,1.38,2.46.3.72.12,1.61.7,2.31,3.25-.52,4.15-.5,5.76-3.41.32-.58.63-1.89.73-2.03.14-.19.82-.18,1.04-.53.4-.63-.42-1.76.03-2.83.32-.74,2.35-.96,2.67-2.63.26-1.35-.71-2.32-.67-3.66ZM186.24,65.12c-.67-.02-.83.78-1.31,1.2s-1.26.44-1.47,1.19c-.14.49.16.87.1,1.27-.11.72-1.09,3.01.45,3.27,1.23.2,2.64-5.84,2.24-6.93ZM248.88,112.35H3.84v1.92h245.04v-1.92ZM248.88,183.07H4.2c-.46,0-.38,1.53-.36,1.92h245.04v-1.92Z"/>
      <path class="cls-3" d="M192.24,23.16c.56-.31,1.07-.26,1.68-.24-.27-.51-.94-1.15-1.55-1.17-.89-.03-1.51.96-1.93-.27-.39.18-.11.55-.2.66-.22.29-.9.36-.88,1.14.5.53.59,1.36.95,1.92.43.66,1.76,1.07,1.57,1.79-.86-.77-1.25-.18-1.89-.23-.17-.01-.16-.42-.31-.5-.31-.15-.81-.15-.98-.29-.27-.22-.21-1.03-.32-1.12-.09-.07-1.4,0-1.9-.14-.14-.04-2.53-1.22-2.61-1.35-.36-.56.39-.74.45-.88.16-.44.13-1,.26-1.31.16-.36,1.04-.42.71-1.38-1.41-.09-2.23-.21-3.26-1.19-.21-.2-.31-.65-.38-.7-.16-.11-1.04.38-1.4.22-.12-.08.06-1.91-.55-2.56-.2-.22-.7-.26-1.01-.55-2.36-2.19-.43-1.78-.42-2.52,0-.15-.42-.34-.31-.6.15-.37,1.03-.66,1.1-1.32.1-.94-1.02-2.04-.97-3.04l-.71-.91c1.78-1.08,3.29-.48,5.1.29,3.56,1.52-1.03,1.46-2.46,1.14-.03.39.5.27.74.58.44.57-.07.89,1.3,1.09l-.36-.71c1.58.46,1.75-1.28,3.36-.96.02-.31-.02-.63-.16-.91-.18-.37-.61-.14-.56-.53,1.14-.43,1.68,1.09,2.28,1.2.15.03.16-.44.36-.58,1.02-.71,3.56-.6,4.79-.62l-.72-1.2,3.6.96c-.75-2.18,1.22-3.96,2.28-1.44.69-.86,1.76-.45,2.58-.74.21-.07.19-.38.51-.5.47-.17,1.75-.17,1.81-.23.1-.1-.18-.49.31-.76,1.46-.81,3.05-.37,4.34-.65.2-.04.18-.44.46-.55,1.04-.43,1.76.17,2.73.29s2.54-.28,3.24.62c.16.21-.02.53.02.57.07.05,1.44.74,1.52.75,2.3.45,4.79-.75,7.13.25.29.12.32.57.67.82,1.25.86,1.24-.11,1.34-.12.48-.06,1.76.34,2.49.01l-.12-1.44c.71.11,1.01.71,1.69.94.81.27,1.79.14,2.56.32,4.38,1.01,6.93,1.43,11.37,1.21.51-.02,3,.39,3.21.17.25-.26-.71-1.33,1.44-.96l-.72,1.19c1.76.37,3.46,1.02,5.22,1.38.61.12,4,.39,4.14.55.4.49-.88.81-.24,1.43-.58-.04-3.59-.92-3.82-.7-.03.03-.29.89-.26.93.13.18,2.08.47,2.16,1.21-1.1-.24-1.73-.1-2.41.84-.23.31-.2.81-.23.85-.1.1-2.39-.59-2.77-.02-.95,1.43,1.52,1.72,1.79,2.21.08.15-.19.49-.14.76.04.2.28.39.3.57.09.91-.1,1.8-.14,2.71-.97-.61-4.49-3.59-4.27-4.61.19-.9,1.67-2.45.31-3.3l-.36,1.2c-1.22-.12-2.48-1.59-2.88.36l.96.37c-.03.42-1.34.68-1.58.64-.29-.05-.36-.62-.58-.77-.5-.34-1.04.3-1.57.36-.9.1-1.82-.08-2.71.04l-.99,3.08c.78-.23,1.27.47,1.8.61.45.12,1.03-.29,1.86.35.15.12,1.99,3.11,2.04,3.3.13.5.15,1.81,0,2.29-.04.13-1.19,2.03-1.31,2.06-.72.19-1.43-.36-1.52-1.06-.03-.26.59-.02.7-.13.32-.34-.65-2.73-.72-3.33-.59-.29-1.37.5-1.74.42-.23-.05-.6-.56-.94-.73-2.25-1.13-1.91-1.05-3.69-2.55s-4.96-1.3-3.44,1.64c-.75.21-1.62-.25-2.26-.22-.47.02-.96.38-1.48.45-.77.1-3.89-.32-4.73-.51-.79-.18-2.04-1.29-3.17-1.15l-.12,1.44c-1.09.4-2.14-.77-2.98-.72-.75.05-1.65,1.2-2.66,1.17-.58-.01-1.22-.65-1.8-.81-.87-.25-1.8-.24-2.64-.6-.02,1.04,1.24.62,1.93.82.34.1,2.52.88,2.63.97.35.27.02.89.47.85-.24-.92,1.14-1.73,1.86-1.88.93-.19,2.21,1.14,3.42.69v-1.44c.16-.16,1.73.33,2.06.45,1.47.52,3.11,1.11,4.81,1.21,1.03.06,1.56-.45,2.37-.47,1-.03,2.68,1.02,2.54-.83-.06-.78-.99-1.07.21-1.45,2.18-.69,2.99,1.52,4.34,2.4.52.34,1.13.44,1.68.72,1.37.7,1.44,1.59,3.11.37l.48,2.64-.83-.24c-.59.7.54.85.61,1.13.11.47-.14.98-.16,1.43-.02.32.19.68.17.88-.05.37-1.21.17-.97.75.4.97,3.84,2.53,1.75,3.93-1.16.29-1.37-2.31-1.8-2.57-.53-.33-1.16.6-.92-1.24-.87-.13-1.51.14-2.28.48-.59-.33-.18-.77-.22-1.08-.19-1.21-.96.48-1.14.7-.31.39-1.07.37-.53.88.1.09,1.33.92,1.41.94.2.05.13-.6.5-.71.17-.05,1.01.19,1.04.25.47.72-1.38,1.14-1.17,2,.04.15,1.93,1.33,2.26,2.07.05.12.61,2.13.61,2.25,0,.14-.7,2.38-.79,2.6-.07.16-1.11,1.7-1.21,1.79-.93.84-3.26.79-3.89,2.23-.14.03-.1-.21-.12-.24.17-.89-1.47-.93-1.44-.48.51.63-.09.36-.32.77-1.36,2.41.65,2.19,1.76,3.9.48.74.73,2.46.36,3.24-.27.57-1.28.65-1.32.72l-.21.16-.03.79s-.17-.03-.24,0h-.72c-.08-.2.05-.5-.22-.85-.09-.11-1.48-1.37-1.7-1.55-.24-.19-1.28-.85-1.44-.72-.12.36.24.45.24.48.08.72-.31,1.35-.19,1.97.19.97,1.88,2.64,2.35,3.79.01.38-.15.99.24,1.2.01.08-.01.16,0,.24l-.24.24c-.44-.32-1.01-.4-1.34-.71-.42-.4-.23-.72-.34-.97,0-.58-.13-.98-.48-1.44-.38-.5-.53-.33-.72-.48l-.24-.72c-.02-.06.01-.16,0-.24v-.96c.22-.79.58-1.26.48-2.16l-.24-.48c-.11-.37-.31-.85-.48-1.2.49-.61.46-1.67-.47-1.56.21.21.35.75,0,.84-1.01-1.69-.58-.59-1.57-.47-1.33.16-.71-1.18-1-1.86-.11-.26-1.81-2.51-1.99-2.59-.12-.06-2.57.11-2.72.16-.13.04-1.06,1.87-1.47,2.37s-2.16,1.84-2.23,1.96c-.23.4.08,1.98-.05,2.11-.12.11-2.63-.17-3.12.72-.89-2.53-1.96-4.65-2.17-7.43-.45.04-.42,1.05-1.04.94-1.21-.21-.56-1.58-.63-1.66-.04-.04-.72-.14-1.14-.42-1.47-.97-.93-1.87-3.55-1.51-.53.07-.84.44-1.17.47-1.19.08-2.37-.89-2.9-.93s-.85.35-1.56.14c-1.57-.46-1.77-2.95-2.98-2.98-1.02-.02-1.93.89-.61,1.16l.48-.72c-.23,1.16.4,1.54.93,2.32.16.24.25.77.28.8.13.1.88-.35,1.19-.24.31.7-.8,1.22-.12,1.67.75.03,2.11-1.48,2.38-1.42.35.08.5.76.79.96.41.28,1.11.19,1.53.81.7,1.05-.86,2.21-.97,3.38-.19.3-5.22,3.72-5.83,4-.46.21-2.49.82-2.83.57-.2-.15-.61-2.62-.85-3.23-.5-1.3-1.74-2.02-2.03-2.77-.26-.66-.12-1.75-.33-2.07-.14-.21-.69-.21-.97-.47-.13-.12-1.69-2.88-1.75-3.05-.09-.27-.56-2.35-.55-2.58.04-1.03.93-1.35.98-1.93.01-.14-.23-1.68-.28-1.75-.47-.72-1.49.2-1.76.2-.31,0-.54-.38-.78-.43-.58-.13-1.61.54-2.45-.17-.52-.44-.26-1.09-.4-1.55-.15-.49-.98-1.08-.57-2.16,1.04-.19,1.7.61,2.74.48.76-.1,1.3-.94,1.94-.94.7,0,1.53.97,2.64.97.82,0,1.69-.72,2.38-.52.23.07.15.61.36.87.06.07,1.38.9,1.48.95.74.32,2.57-.52,2.39,1.56.46,0,.2-.87.24-1.2l.24-.72c.09-1.04-1.15-1.22-1.69-2.03-.1-.15-.72-1.6-.72-1.69-.01-.71,2.06-1.26,2.65-1.07-.12.17-.39.32-.48.48-.03.05.02.16,0,.24-.54.61-.32.42,0,.24ZM201.66,16.15c-.55-.33-.24-.9-1.87-.67-.45.06-.32.45-.51.49-.56.13-1.71-.38-1.51.48,1.11.37,2.07-.66,3-.49.6.11.5.67.77.74.9.21,2.56-.1,3.2.09s1,1.11,1.67,1.23c-.53-.33-.78-1.12-1.26-1.39-.9-.51-2.67.01-3.47-.47ZM197.28,16.69l-1.44-.48v2.39c-.71-.2-2,.23-2.53.15-.45-.07-.66-1.13-1.07-.15.65-.23.7.5,1.07.51.5,0,.97-.26,1.45-.27.67,0,1.64.71,2.04-.23-1.3-.14-.21-1.14-.72-1.92h1.2ZM192,18.61c0-.81-2.01-.03-2.11.07-.09.09-.01.42-.13.57-.15.19-.51.2-.61.48-.15.43,0,1.06-.04,1.53.07.1.48.24.41-.3-.19-1.56.96-2.36,2.47-2.34ZM192.48,24.12c.17-.34-.15-.64-.24-.48-.17.34.15.64.24.48ZM192.72,24.36c-.34-.17-.64.15-.48.23.34.17.64-.15.48-.23ZM193.44,24.84h-.48v.96h.48v-.96ZM194.04,27.24v.24c.16-.08.16-.16,0-.24ZM194.88,28.44c-.2-.23-.81.44-.96.72h.96c-.03-.19.05-.66,0-.72ZM192.6,28.68v.24c.16-.08.16-.16,0-.24ZM193.56,29.4v.24c.16-.08.16-.16,0-.24ZM227.52,39.94c-.3.03-1.82.2-1.9.26-.06.05-.16,1.03-.4,1.4-.32.5-.85.51-1.07.73-.37.37-.38,1.06-.48,1.55l.48.12c0-.4,0-.8,0-1.2.4-.31,1.02-.55,1.32-.96.72-1.02-.06-1.37,2.04-1.44.46-.01.78.03,1.2.24v-.72c-.39.02-.8-.04-1.2,0Z"/>
      <path d="M21.07,48.89c8.98-.83,19.37.23,28.42.23,17.17,3.76,10.72,22.88,11.95,35.55-3.13,19.58-26.74,11.28-40.46,13.07-6.94-.54-12.66-5.91-13.55-12.84.97-12.72-5.12-34.27,13.63-36.01ZM24.18,60.86c-2.91.45-5.56,3.43-5.91,6.32-.32,2.66-.31,9.5,0,12.17.44,3.81,3.62,6.28,7.3,6.61,4.52.41,12.97.37,17.52.01,3.8-.3,7.07-2.68,7.53-6.63.33-2.8.28-8.87.03-11.73-.3-3.5-2.89-6.29-6.37-6.83-6.17.63-14.15-.87-20.1.06Z"/>
      <path d="M179.76,48.81v11.75h-35.76v24.93h35.76v12.47c-2.04-.05-4.09.06-6.13,0-.57-.01-1.09-.25-1.66-.26-8.56-.16-18.83.81-27.1-.02-7.63-.76-12.2-7.18-12.64-14.47-.33-5.52-.64-19.58.74-24.45s7.22-9.96,12.59-9.96h34.2Z"/>
      <path d="M110.04,48.81c4.85.39,9.84,3.04,12.7,6.97,7.86,10.81.87,25.9-12.34,26.83l13.2,15.1h-15.24l-22.32-24.93-1.8-2.4h26.52c1,0,2.46-.67,3.24-1.32,3.8-3.12,1.46-8.81-3.23-9l-35.96-.04-7.97-8.82-1.8-2.4h45Z"/>
      <path d="M245.28,97.72h-12.6l-17.04-33.09-17.04,33.09h-13.56l26.28-48.67c.18-.25.44-.22.71-.25,1.31-.16,4.95-.15,6.27,0,.35.04.63.02.8.4,8.27,15.76,17.19,31.19,25.51,46.92.26.49.63,1.04.68,1.6Z"/>
      <path class="cls-2" d="M112.08,11.42c.04.78-.14,1.59.18,2.34.36.82,2.34,1.22.92,2.24-.37.26-1.35.08-1.1.58.28.54,2.78.71,3.09.34.15-.18-.06-.9.02-1.25.03-.15,1.44-1.17,1.65-2.51.14-.94-.91-1.97.91-2.13,2.52-.23-.16,1.41-.28,1.6-.5.8.38,1.18.65,1.75.15.32.6,1.79.68,1.85.13.09,1.04-.4,1.19-.24.08.09.4,2.7,1.22.86.97-2.17-.37-1.72-1.24-2.4s-.89-1.75-.08-2.52c.95-.9,1.55-.22,2.62-.24.84,0,1.41-.38,2.28-.16,1,.26,1.51,1.26,2.32,1.77.66.42,2.51,1.07,2.89,1.54s.24,1.28.68,1.84c.8,1,3.33.85,1.54,2.29-.26.21-.91.33-.94.38-.24.33,1.07,1.85-.87,2.13s-2.23-1.36-3.4-1.63c-.43-.1-1.95.55-1.74-.4.09-.41,1.54-.57,1.94-1.19.19-.29.37-1.18.22-1.33-.36-.37-1.52.66-1.68.48.02-.44.03-2.18-.26-2.38-.19-.13-2.05.4-2.62-.02-.15.15.51,2.06.42,2.49-.18.92-2.04,1.04.3,3.02-.36.07-.72-.2-1.05-.17-.9.1-1.58,1.08-1.71-.32-1.46-.25-3.68,1.84-3.74,3.25-.11,2.66,3.63,3.08,5.53,3.84.64.43.59,2.86,1.8,2.51.78-.23-.02-1.67.11-2.23.07-.31.93-.18,1-1.25.05-.74-.42-1.13-.49-1.69-.11-.96.05-2.01-.01-2.98,1.39-.17,2.78.11,3.7,1.22,1.15,1.39.76,2.98,3.01.7.16.11,1.35,2.86,1.82,3.34.4.42,1.69.82,1.91,1.21.36.64-.06,1.75.17,2.47.29.96,3.94,2.34-1.24,1.6.1-.86.9-1.45.72-2.39-1.09.15-3.11,1.05-3.49,2.14-.48,1.36.43.97,1.45,1.22,1.18.28-.57.74-.94.99s-.33.96-.98.68c-.44-.19-.12-1.36-1.74-.29-1.02.68-.59,1.4-.83,1.69-.08.1-.91.13-1.4.64-.95.99-.82,2.51-1.33,3.23-.28.4-1.22.73-1.67,1.2-1.33,1.38-.53,1.55-.21,2.87.25,1.04-.02,1.94-.83.82-.39-.53-.45-1.92-.53-1.99-.14-.13-3.81-.76-3.1.46-4.16-1-4.22,1.44-3.6,4.79-.14.15-3.69-.87-3.91-1-.86-.48-1.83-2.92-3.17-3.31-.33.43.24,1.14-.59.96-.65-1.04-1.36-2.66-2.06-3.58-.46-.61-1.11-.86-1.51-1.37-.23-.29-1.52-2.64-1.6-2.96-.36-1.42.24-3.99-.24-5.04-.16-.36-.9-.78-1.18-1.22-1.68-2.57-2.75-4.22-5.29-6.22-.69-.2-4.46-1.76-4.76-1.69-.22.05-.48,1.05-1.05,1.19-.66.16-2.34-1.76-1.51,1.7-.71-.11-1.21-.28-1.92,0l.24-.96c-.6-.08-1.46.15-2-.04-.14-.05-1.97-1.88-2.03-2.05-.68-1.98,2.37-.55,1.87-2.46-.74,0-2.58.21-2.61-.88-.03-1.01,1.97-.25,1.36-1.84-.19-.49-1.06-.45-.92-1.12,1.4-.02,1.97-1.5,3.34-1.82,2.28-.53,3.84.45,5.92.83.74.14,1.54-.06,2.32.08.62.12,1.18.65,1.98.67.98.03,1.99-.64,3.1-.74,2.2-.19,4.72.45,6.85.73.25-.24-.9-2.34-1.2-2.53-.52-.33-1.26.44-2.05.4-.35-.02-.31-.3-.56-.48-.11-.08-.44.01-.49-.04-.31-.34.84-1.95.46-2.62,3.01-.62,4.29,2.24,7.27,1.62.42-.09,1.91-1.1,2.09-.9Z"/>
      <path d="M0,65.11c3.16-6.95,6.71-14.13,12.35-19.42,2.91-2.73,7.6-4.76,8.65-8.86,1.63-6.34-5.76-12.15-9.73-16.07,9.01-1.34,17.6,2.33,25.36,6.43.94.5,4.4,2.84,5.02,2.92.71.09,2.04-.43,2.87-.48,7.2-.38,12.6,1.7,18.23,6,1.76,1.34,8.07,6.59,3.17,7.94-2.33.64-5.83.58-8.4.96-4.13.62-8.75,1.99-12.79,2.33-6.18.52-13.5,0-19.65-.44-3.83-.28-8.06.88-11.38,2.77-5.59,3.2-8.76,10.71-12.88,15.42-.24.27-.37.59-.82.5ZM50.81,39.16c.71-.84-.06-1.6-.8-2.05-2.9-1.79-12.78-2.16-15.61-.32s1.99,3.28,3.48,3.57c2.68.53,11.09.98,12.93-1.2Z"/>
      <path class="cls-2" d="M155.04,46.9c-.14-1.94,1.93-2.71,2.65-3.71.38-.54.41-1.3.75-1.89s2.02-1.89,1.06-2.57c-.4-.29-1.14-.13-1.31-.61-.13-.37-.09-2.6.09-2.97.61-1.25,3.69.75,3.92-1.13.12-.99-.41-1.36-1.04-1.99-.23-.23-.98-.22-.47-.72.94.57,1.32-.29,1.32-1.19-.34-.07-1.57.1-1.67-.01s.18-.96-.4-1.17c-.94-.33-2.44,1.16-1.95-.81.38-1.53,1.74-1.25,1.87-1.37.32-.31-.61-1.74-.48-1.91.05-.06,1.21-.44,1.44-.48.13.12.51,1.99.67,2.34.45.98,2.13,1.69,1.74,3.18,1.35.15,1.4-1.15,1.93-1.55.37-.28,1.33-.31,1.41-.39.24-.27-.3-1.97.26-2.5.5-.48.46.17.62.34.78.83.94.07.77-.76-.62-3.01-3.17,1.89-3.32-2.22-.06-1.59,2.12-2.3,3.13-3.59.39-.49.52-1.07.85-1.56.22-.33.72-.42.78-.53.19-.33-.13-.97.29-1.27.09-.07,1.76-.84,1.97-.91.51-.18,4.33-1.01,4.5-.86.07.06,0,.56.25.82.39.39,1.65.36,1.87,1.25l2.94,8.79c-1.04,1.09-3.83-1.38-4.1.73-.21,1.67.16,1.84.78,3.08.19.37.14,1.05.42,1.26.4.29,2.32.32,2.96.4.28.04.57.36.81.39.36.03.77-.61,1.28-.44.29,1.2-.93,1.86-.98,3-.06,1.46,1.49,4.56,2.36,5.81.31.45.9.67,1.09,1.07.32.69,0,1.51.44,2.2.22.36.78.52,1.07.85,1.03,1.18,1.09,2.84,1.47,4.28.1.36.49.72.52.93.11.72-3.71,2.59-4.46,2.89-1.38.55-2.53,0-1.74,1.97l3.36-.72c-.27,2.69-2.51,5.5-5.04,6.47v-10.91c0-.42-1.15-1.32-1.56-1.32h-25.08Z"/>
      <rect x="3.84" y="112.35" width="245.04" height="1.92"/>
      <path d="M248.88,183.07v1.92H3.84c-.02-.39-.1-1.92.36-1.92h244.68Z"/>
      <path class="cls-2" d="M151.68,1.11c.06.05-.44,1.3.16,1.45,1.09.27,3.13-.59,4.4-.25.38.33-1.44,1.34-1.68,1.55-.38.34-1.75,1.63-1.87,1.97-.5,1.47.74.73.92,1.62s-.3.58-.97.61c-.51.95,1.34,1.78,1.2,1.91-.02.02-.37.04-.57.26-.28.3-1.37,1.64-1.47,1.92-.36,1.04.69,1.61-.35,2.75-1.3,1.42-3.19,1.02-4.42,1.82-.47.3-.56.76-.89,1.03-.97.77-2.17.94-3.31,1.37.09,1.44-.98,2.58-.99,4.04-.1.09-2.43-.7-2.63-.85-.33-.25-2.27-3.67-2.36-4.12-.36-1.8,1.07-1.48,1.15-2.94-.15-.16-1.51.62-1.67-.14-.26-1.21,1.62-.43,1.19-1.42-.25-.58-1.35-.28-1.44-.36-.05-.05.02-1.01-.11-1.45s-.99-1.93-1.33-2.27c-1.76-1.74-3.6-.22-4.88-.64-1.03-.34-.79-1.81-.87-1.88-.07-.06-1.93.17-.72-.83.57-.47,3.49-.44,2.82-1.52-.05-.09-.47-.08-.62-.45-.24-.58.28-1.3-1.09-.52-.49.28-.76.86-1.29,1.11-.44.21-1.44.25-1.49.31-.07.08.04.79-.14,1.18-.2.45-.93.62-1.18.98-.24.33-.21.9-.43,1.13s-.85.23-.9.3c-.22.3.94,1.49-.66,1.86-.71.16-2.77.14-3.53.03-1.45-.21-.81-.55-2.47-.28-1.42.22-.3-.75-.32-1.25,0-.1-.47-1.9-.52-1.99-.07-.12-.56-.19-.67-.4-.58-1.2,1.61-.22,1.62.67,0,.23-.3.71-.18.89.07.1,2.11.55,2.39.37.57-.35.86-1.64.72-2.29-.45.04-.85.29-1.32.26-.84-.04-2.58-2.07-2.17-2.9.15-.3,2.63-1.53,3.11-1.69,3.53-1.2,8.54-2.04,12.14-.83.97.33,1.26,1.09,1.35,1.1.35.06,1.3-.44,1.88-.5.98-.11,2.07-.13,3.12-.24.3-.03.7.25.94.2.36-.08.62-1.16,1.27-1.35.78-.23,1.96.05,2.83-.05,3.88-.45,3.35-.75,7.13.56.34.12,1.11.13,1.16.17Z"/>
      <path class="cls-4" d="M134.28,143.75l6.36,21.1v-20.74s.33-.36.36-.36h4.32s.36.33.36.36v32.48h-5.16l-6.6-20.14v20.14h-5.04v-32.48s.33-.36.36-.36h5.04Z"/>
      <polygon class="cls-3" points="64.08 143.99 70.32 165.33 70.32 143.99 75.12 143.99 75.12 176.6 69.84 176.6 63.36 155.98 63.36 176.6 58.56 176.6 58.56 143.99 64.08 143.99"/>
      <path class="cls-4" d="M32.16,157.66h5.76v-13.55s.33-.36.36-.36h4.32s.36.33.36.36v32.48h-5.04v-14.14h-5.76v14.14h-5.04v-32.48s.33-.36.36-.36h4.32s.36.33.36.36v13.55Z"/>
      <path class="cls-3" d="M150.96,176.6v-32.6h9.72c2.16,0,5.43,3.46,5.58,5.69-.32,6.55.63,13.87.07,20.33-.25,2.89-3.06,6.58-6.13,6.58h-9.24ZM155.76,148.55v23.13c0,.55,5.27,1.15,5.74-2.18.79-5.59-.53-12.89,0-18.66.02-.79-1.37-2.29-2.02-2.29h-3.72Z"/>
      <path class="cls-4" d="M78.96,176.6l5.29-32.59,6.36-.03,5.63,32.62h-5.04l-.97-7.18-5.23.02-.99,7.16h-5.04ZM89.52,164.61c-.64-4.08-.9-8.3-1.68-12.34-.07-.35,0-.74-.47-.84l-1.68,13.19h3.84Z"/>
      <path class="cls-4" d="M179.04,176.6l5.28-32.6,6.37-.02,5.63,32.62h-5.04l-.99-7.17h-5.23s-.99,7.17-.99,7.17h-5.04ZM185.76,164.61h3.84l-2.04-12.95-1.8,12.95Z"/>
      <path class="cls-4" d="M228,176.6l5.63-32.62,6.36.03,5.29,32.59h-5.04l-.96-7.19-5.29.1-1.18,7.09h-4.8ZM238.56,164.61l-2.04-13.43-2.04,13.43h4.08Z"/>
      <path class="cls-4" d="M107.76,176.6l5.5-32.5,6.74-.1,5.28,32.61h-5.04l-1.18-7.09-5.29-.1-.96,7.19h-5.04ZM118.56,164.61l-2.04-13.43-2.04,13.43h4.08Z"/>
      <path class="cls-4" d="M22.8,169.76c-.92,9.56-14.15,9.88-15.6.72.35-6.49-.48-13.48-.01-19.91.74-10.16,15.61-8.97,15.61.25v4.2h-5.04v-4.91c0-.15-.73-1.26-.96-1.43-1.5-1.14-3.89-.54-4.44,1.31l-.06,20.45c.65,2.86,5.47,2.07,5.47-.19v-5.63h4.68s.36.33.36.36c0,1.51.14,3.34,0,4.79Z"/>
      <path class="cls-4" d="M214.32,152.38l-4.8.48c-.04-.74.08-1.52-.02-2.26-.54-3.88-6.05-3.33-5.2,1.6.72,4.2,9.07,8.88,10.43,14.27,3.29,13.06-16.67,14.58-15.66,1.47.15-.22,4.53-.64,4.7-.46-.02,2.89.76,5.34,4.19,4.78,1.34-.22,2.32-1.88,2.28-3.18-.18-5.32-10.27-9.29-10.79-16.57-.29-4.08,1.27-8.49,5.89-9,6.06-.67,9.44,2.93,9,8.87Z"/>
      <path class="cls-4" d="M53.28,176.6h-5.04v-32.84h4.68s.36.33.36.36v32.48Z"/>
      <path class="cls-4" d="M224.16,176.6h-5.04v-32.48s.33-.36.36-.36h4.32s.36.33.36.36v32.48Z"/>
      <path class="cls-2" d="M181.2,62.24c-.04,1.33.93,2.31.67,3.66-.32,1.67-2.35,1.89-2.67,2.63-.45,1.06.36,2.19-.03,2.83-.22.34-.9.34-1.04.53-.1.14-.41,1.45-.73,2.03-1.61,2.91-2.51,2.89-5.76,3.41-.58-.7-.4-1.59-.7-2.31-.34-.82-1.08-1.56-1.38-2.46-.27-.84-.22-1.89-.47-2.64s-.98-1.25-1.08-2.3c-.13-1.42.77-1.72.94-2.62s-.24-1.65-.23-2.5l12.48-.24Z"/>
      <path class="cls-2" d="M131.04,90.53c-1.04.43-2.64-.33-3.37-1.06-.64-.63-1.15-4.1-.96-5.04.06-.29.69.02.75-.26.18-.89-.28-1.94-.26-2.85.03-1.28.74-3.73.97-5.29.28-1.88,1.13-6.21.72-7.86-.07-.28-.75-.27-.92-.81-.26-.83.02-2.7-.07-3.76-.26-2.8-1.32-4.44-2.25-6.86-.37-.96-.06-2.78-1.56-2.4-.06-1.2,1.04.22,1.76-.02.54-.18.66-1.61,2.45-1.67,1.01-.03,1.6.59,2.41.71.56.09,2.38-.21,2.51.38.04.2-1.27,2.31-1.48,2.83-2.37,5.61-1.52,20.69-1.41,27.38.01.58.29,1.12.27,1.66-.05,1.39-1.61,1.37-.68,3.31.26.54.99.94,1.14,1.61Z"/>
      <path d="M45.6,120.74c.69.11,2.34-.27,2.76.24l2.76,9.11v-9.35h2.4v15.58c-1.23-.2-2.9.69-2.75-.96l-2.77-8.39v9.35h-2.4v-15.58Z"/>
      <polygon points="237.36 120.74 239.97 120.77 242.88 130.33 242.88 120.74 245.28 120.74 245.28 136.32 242.66 136.3 239.76 127.21 239.76 136.32 237.36 136.32 237.36 120.74"/>
      <path d="M101.76,120.74l2.62.02,2.9,10.05v-10.07c.45.02,2.4-.17,2.4.36v15.22l-2.61-.03-3.15-9.56v9.59h-2.16v-15.58Z"/>
      <path d="M198.84,120.74c2.84.47,3.17,4.27,2.71,6.54-.21,1.04-1.39,1.62-1.4,2.44-.01.95,2.04,6.25,1.7,6.6-.52-.11-2.05.17-2.37-.03-.28-.18-1.46-6.23-1.73-6.42-.26-.18-1.18.07-1.18.34v6.11h-2.4v-15.58c1.43.17,3.32-.23,4.68,0ZM196.56,127.69c1.51.07,2.48.17,2.65-1.54.23-2.32,0-3.52-2.65-3.25v4.79Z"/>
      <path d="M21.72,120.74c2.84.47,3.08,4.04,2.7,6.3-.21,1.26-1.37,1.89-1.4,2.68-.03.99,1.96,6.36,1.69,6.6-.52-.11-2.05.17-2.37-.03-.42-.27-1.19-5.59-1.68-6.3-.23-.33-.9-.07-1.23-.14v6.47h-2.4v-15.58c1.43.17,3.32-.23,4.68,0ZM19.44,127.69c1.51.07,2.48.17,2.65-1.54.23-2.32,0-3.52-2.65-3.25v4.79Z"/>
      <path d="M139.32,120.74c3.13.56,3.32,5.31,2.09,7.6-.25.47-.97.91-.97,1.34l1.87,6.64c-.62-.09-2.16.25-2.53-.23-.43-.57-1.33-6.01-1.58-6.22-.16-.13-.88.03-1.18-.02v6.47h-2.4v-15.58c1.41.17,3.34-.24,4.68,0ZM137.04,127.69c3.73,1.05,3.74-5.77,0-4.79v4.79Z"/>
      <polygon points="215.52 120.74 215.52 127.21 218.4 127.21 218.4 120.74 220.8 120.74 220.8 136.32 218.4 136.32 218.4 129.61 215.52 129.61 215.52 136.32 213.12 136.32 213.12 120.74 215.52 120.74"/>
      <path d="M34.08,133.8c-.56,3.16-5.66,3.81-7.17.93-.74-1.42-.67-8.17-.52-10.05.17-2.17,1.08-3.99,3.49-4.19,3.14-.27,4.6,2.16,4.2,5.04h-2.4c.54-2.16-1.24-3.94-2.63-1.79l.04,9.77c.25.86,1.88.9,2.33.27.31-.43.39-3.57.26-3.7-.09-.09-1.35.1-1.44,0s.07-1.99,0-2.4h3.84c-.23,1.83.31,4.38,0,6.11Z"/>
      <path d="M127.62,120.56c2.11-.35,4.35.63,4.63,2.93.21,1.73.26,8.93-.06,10.5-.71,3.48-6.91,3.57-7.39-.42-.21-1.73-.26-8.94.06-10.5.25-1.21,1.57-2.31,2.76-2.51ZM127.2,123.49v10.07c0,.8,2.64.8,2.64,0v-10.07c0-.68-2.37-.96-2.64,0Z"/>
      <path d="M230.34,120.56c2.11-.35,4.35.63,4.63,2.93.21,1.73.26,8.93-.06,10.5-.71,3.5-6.92,3.52-7.39-.42-.21-1.73-.26-8.94.06-10.5.25-1.21,1.57-2.31,2.76-2.51ZM229.92,123.49v10.07c0,.8,2.64.8,2.64,0v-10.07c0-.68-2.37-.96-2.64,0Z"/>
      <path d="M92.72,135.52c-.6-.6-.95-1.84-1.04-2.68-.19-1.83-.23-8.27.25-9.81,1.1-3.56,6.71-3.41,7.37.52.28,1.69.28,8.27,0,9.96-.52,3.07-4.44,4.16-6.58,2.01ZM94.97,122.94c-.48.15-.79.81-.87,1.29-.26,1.58-.19,6.69-.01,8.38.24,2.36,2.6,2.16,2.86.46s.22-7.14.02-8.86c-.14-1.22-.77-1.64-2-1.27Z"/>
      <path d="M153.48,120.74c2.99.6,3.17,5.84,1.87,7.86-.26.41-.8.44-.8.88-.02,1.09,2.13,6.41,1.7,6.84-.42-.08-2.26.11-2.39-.01-.22-.22-1-5.26-1.49-6.06-.3-.51-.61-.42-1.16-.4v6.47h-2.4v-15.58c1.38.19,3.39-.26,4.68,0ZM150.96,127.69c2.25.2,2.94-.25,2.9-2.52s-.81-2.42-2.9-2.27v4.79Z"/>
      <path d="M10.01,120.55c2.1-.38,4.36.66,4.63,2.93.21,1.73.26,8.93-.06,10.5-.7,3.44-6.92,3.7-7.39-.66-.22-2.03-.26-8.09.06-10.01.23-1.34,1.42-2.51,2.76-2.76ZM11.94,134.1c.25-.23.51-1.11.55-1.49.18-1.66.23-6.8-.02-8.38-.28-1.8-2.56-2.03-2.86-.49-.2,1.02-.2,8.56,0,9.58.18.94,1.64,1.43,2.33.78Z"/>
      <path d="M75.11,120.75l2.41,15.57c-.41-.07-2.31.09-2.4,0-.12-.12-.18-3.11-.52-3.32-.14-.09-2.25-.08-2.34,0-.24.2-.36,3.16-.52,3.32-.13.13-1.96-.06-2.39.01l2.4-15.58h3.35ZM73.68,125.29c-.64-.06-.39,0-.47.36-.39,1.59-.36,3.32-.72,4.91h1.92s-.72-5.27-.72-5.27Z"/>
      <path d="M41.25,120.77c.67.42,1.93,13.79,2.67,15.55-.43-.07-2.55.1-2.64,0-.12-.12-.12-3.24-.24-3.36-.09-.09-2.09.08-2.51,0-.29.05-.31,3.12-.65,3.33s-1.83-.08-2.36.03l2.61-15.44c.14-.2,2.92-.23,3.11-.11ZM40.56,130.57l-.96-6.23-.72,6.23h1.68Z"/>
      <path d="M189.81,120.77c.67.42,1.99,13.8,2.67,15.55-3.22.49-2.64-.79-2.88-3.36h-2.5c-.29.04-.31,3.11-.65,3.32s-1.83-.08-2.37.03l2.61-15.44c.14-.2,2.92-.23,3.11-.11ZM189.12,130.57l-.03-1.29-.93-4.95-.72,6.23h1.68Z"/>
      <path d="M210.96,134.04c-.57,3.21-6.79,3.76-7.21-.71-.21-2.26-.26-7.64,0-9.84.38-3.11,4.62-4.04,6.48-1.67,1.04,1.32.68,2.62.72,4.2-.38-.06-2.08.09-2.16,0-.11-.11.27-2.51-.71-3-.55-.28-1.92-.05-1.92.48v10.07c0,.09.47.5.65.55,2.69.82,1.74-3.31,1.99-3.55.09-.09,1.78.07,2.16,0-.13,1.06.18,2.47,0,3.48Z"/>
      <path d="M173.75,124.8c-.44-.02-2.19.46-2.39.25-.22-.23.55-2.51-1.55-2.16-.91.15-.95,1.01-.84,1.78.26,1.85,4.12,4.23,4.84,6.44,1.99,6.11-6.85,7.59-7.45,1.91-.09-.82-.05-.92.78-1.02,2.34-.29,1.16.33,1.84,1.54s2.83,1.03,2.62-1.17c-.15-1.6-3.89-4.12-4.69-6.11-2.62-6.52,7.26-8.2,6.82-1.45Z"/>
      <path d="M67.92,124.81l-2.4.24c.13-.43-.28-2.08-.64-2.17-.57-.14-1.51,0-1.71.66-.83,2.77,3.96,5.07,4.76,7.85,1.43,4.94-4.98,7.06-6.93,3.32-.49-.94-1.12-2.55.3-2.72,2.24-.28,1.27.2,1.68,1.46.39,1.19,2.94,1.13,2.76-.82-.23-2.53-4.69-4.27-5.03-7.46-.68-6.39,7.3-6.2,7.2-.36Z"/>
      <path d="M165.12,120.74c-.02.45.17,2.4-.36,2.4h-3.96v4.08h3.36v2.4h-3.36v4.56h4.32v2.16h-6.72v-15.58h6.72Z"/>
      <path d="M182.64,120.74v2.16h-3.96s-.36.33-.36.36v3.96c2.42.13,4.11-.92,3.6,2.4h-3.6v4.2s.33.36.36.36h3.96v2.16h-6.72v-15.58h6.72Z"/>
      <polygon points="123.12 120.74 123.12 122.89 119.04 122.89 119.04 127.45 122.16 127.45 122.16 129.71 119.04 129.85 119.04 136.32 116.64 136.32 116.64 120.74 123.12 120.74"/>
      <path d="M85.2,120.74v2.16c-.48.03-2.64-.19-2.64.36v13.07h-2.16v-13.07c0-.55-2.16-.33-2.64-.36v-2.16h7.44Z"/>
      <rect x="56.16" y="120.74" width="2.4" height="15.58"/>
      <rect x="87.12" y="120.74" width="2.4" height="15.58"/>
      <path class="cls-4" d="M238.32,52.17c.26.69-.38.7-.4.76-.06.16.2.45.06.67-.15.24-.72.28-.83.65-.21.66.43,2.12.41,2.31-.04.35-.87,1.37-1.05,1.83s0,1.07-.23,1.45c-.06.1-1.14.72-1.21.71-.21-.02-.24-.65-.52-.72-.36-.09-.88.05-1.34-.04-1.14-.24-2.09-2.96-1.4-3.88.2-.27.73-.06,1-.25s.15-.69.28-.8c.1-.09,2.16-.94,2.3-1.06.1-.08.3-1.2,1.02-1.51.67-.29,1.26.34,1.91-.11Z"/>
      <path class="cls-4" d="M244.32,25.08c-.47.43,1.66,2.08,1.8,2.41.13.29-.08.71.03,1.14.11.4.53.75.57,1.15.16,1.68-.97.68-1.61.99s-.51.98-.77,1.17c-.11.08-.71-.16-1.16.02-.5.21,0,1.01-1.14.09.11.8.28,1.9-.84,1.67.45-1.05-.48-1.5-.49-1.59-.04-.27.29-1.43.47-1.66.54-.67,1.95-.46,2.14-.61.29-.24-.19-1.57,1.24-1.17.09-.08-.18-2.22-.25-2.46s-.48-.17-.61-.63c-.27-.98.14-2.02-.58-2.9.93-.05,1.54.72,2.18,1.07.33.18.67-.29,1,.43.66,1.46-1.74.68-1.98.9Z"/>
      <path class="cls-4" d="M225.12,52.41c.14.76-.38.41-.83.47-.8.11.51.74.59.82.48.5.83,1.17,1.31,1.58.41.35,1.51.72,1.73,1.02.29.4.15,1.19.38,1.54.21.32,1.36.79,1.57,1.69.03.13-.12,2.14-.2,2.22-.43.44-2.19-1.28-2.51-1.69-.77-1-1.55-3.09-2.2-4.28-.43-.79-1.79-2.54-2.01-3.27-.25-.81,1.81.01,2.16-.11Z"/>
      <path class="cls-4" d="M251.76,59.12v5.03c-.72-.65-1.49-.49-2.4-.48-.1-.08,1.18-1.16.35-2.39-.08-.11-2.32-1.13-2.45-1.16-.33-.07-.74.22-.78.2-.08-.05-.59-1.52.24-1.2v-.23c-1.87-.03-1.33-2.12.25-1.33.49.25.81,2.04,1.32,2.04.14,0,.6-.86,1.21-.96.82-.13,1.51.36,2.27.48Z"/>
      <path class="cls-2" d="M174.96,4.22c-.1,1.79-1.68.8-2.88.96.09,1.06,1.81.91,1.68,2.16-2.09.41-1.14-.7-1.66-1.09-.17-.13-.66-.16-.73-.11-.09.07-.69,1.85-.73,2.16-1.16.2-1.53-1.57-1.91-1.8-.61-.36-1.75.41-1.17-1.4.21-.64,1.38-.32,1.98-.42,1.93-.33,3.28-1.11,5.42-.45Z"/>
      <path class="cls-2" d="M186.24,65.12c.4,1.09-1.01,7.14-2.24,6.93-1.54-.26-.56-2.55-.45-3.27.06-.4-.24-.78-.1-1.27.21-.74.99-.77,1.47-1.19s.64-1.22,1.31-1.2Z"/>
      <path class="cls-2" d="M106.78,7.61c.09.09-.06.58.03.66.15.14.77-.1.93.05.1.1-.13.57.17.7.47.2,1.27.21,1.76.47.13-.15-.3-1.46.36-1.19.52.21,1.94,1.18,2.28,1.67-1.26-.37-2.89.76-3.94.71-1.33-.06-3.05-1.42-4.47-1.54-.54-.28,1.08-1.38,1.21-1.43.31-.12,1.48-.27,1.65-.1Z"/>
      <path class="cls-4" d="M241.92,56.01c.14.15.01.79-.4.92-.68.21-2.42-.29-2.72.4-.53,1.25,1.5-.08,1.91.72-.15.4-.95.25-.97.49-.06.67.51,1.94.73,2.61-1.01,1.28-.82-1.37-1.91-1.3-.21.26.44,1.69-.48,1.44.45-.82-.51-1.62-.49-1.78.08-.79,1.14-1.83.76-2.99.85-.51,1.79.07,2.48-.02.34-.04.9-.69,1.09-.49Z"/>
      <path class="cls-4" d="M190.08,5.66c-.55.17-2.76-.32-2.88-.84-.13-.57.88-.76.95-.87.09-.14-.19-.44-.18-.56.01-.15.27-.11.34-.22.11-.19.09-.51.15-.56.13-.11,2.83-.71,3.22-.75.54-.05,2.95.07,1.6.63s-2.63-.23-3.68,1.37c-.53.8.49,1.01.5,1.8Z"/>
      <path class="cls-2" d="M155.23,18.18c.14.08.67,1.17.52,1.38-1.89.92-3.68,1.63-4.32-1.07.66.05,3.47-.5,3.79-.31Z"/>
      <path class="cls-4" d="M241.97,52.72c-.13.07.12.68-.71.22-.72-.39-.49-.55-.3-1.26-1.33-.55-1.18,1.43-1.56,1.43-.48,0-.3-1.23-.36-1.52-.05-.26-.71.01-.48-.63.77-.38.98.54,1.3.49,2.02-.34,2.18-2.32,3.49,1.31-.48.74-.73-.39-1.38-.05Z"/>
      <path class="cls-4" d="M239.03,43.31c.38.37-.04,2.78.23,3.43-1.13,1.1-.78.04-1.01-.25-.17-.22-.61-.15-.68-.68-.08-.66.48-1.65.02-2.52.32.06,1.31-.1,1.43.01Z"/>
      <path class="cls-4" d="M241.92,47.86c.16,1.66-.61,2.49-2.16,2.88-.23-.28-.02-1.11-.06-1.16-.26-.37-1.08-.14-.42-1.48.45.3.74,1.01,1.44.96v-1.2s1.2,0,1.2,0Z"/>
      <path class="cls-2" d="M120.72,47.62l-.48,2.88-2.4-1.2c-.03-.45.6-.14.96-.35.51-.3.38-1.81,1.92-1.32Z"/>
      <path class="cls-2" d="M115.65,11.44c.07.06.57,1.78.5,1.88-.04.06-.82.24-1.02.21-.09-.01-1.55-.85-1.61-.93-.42-.6,1.41-1.79,2.13-1.16Z"/>
      <path class="cls-2" d="M115.44,8.54c-.14,2.39-.18,1.65-1.61,1.01-.77-.34-1.5,0-1.27-1.01h2.88Z"/>
      <path class="cls-2" d="M114.48,6.86s-1.33.23-1.39.2c-.1-.04-1.44-1.46-1.25-1.64.53-.2,3.42.66,2.64,1.44Z"/>
      <path class="cls-2" d="M122.4,47.13c.47-1.39,4.31.65,4.32,1.08.02,1.12-2.31-.88-2.63-.97-.57-.15-1.11-.13-1.69-.12Z"/>
      <path class="cls-2" d="M109.68,6.14c-.15,1.53-.79,1.71-2.16,1.19.64-.87.79-1.38,2.16-1.19Z"/>
      <path class="cls-2" d="M186.72,3.51c.51.39-1.17.9-1.36.91-.28,0-2.36-1.04-1.15-1.16.8-.08,1.67.41,2.51.25Z"/>
      <path class="cls-2" d="M129.36,49.29c-1.15-.12-2.23.55-1.92-.96.81-.07,1.88-.1,1.92.96Z"/>
      <path class="cls-2" d="M122.4,52.17l-1.92-1.43c1.35-.08,2.16-.21,1.92,1.43Z"/>
      <path class="cls-4" d="M223.92,45.22c.35-.09.22-.64,0-.84.94-.11.96.95.47,1.56-.02-.04-.35-.5-.48-.72Z"/>
      <path class="cls-4" d="M230.88,41.38c-.51-.6-.54-.56-1.44-.48-.03-.45,1.61-.41,1.44.48Z"/>
      <path class="cls-4" d="M228,54.81c-.39-.2-.23-.81-.24-1.2.26.63.15.69.24,1.2Z"/>
      <path class="cls-2" d="M86.64,26.04c.47.47-.79.64-1.2.72-.24-.1,1.05-.86,1.2-.72Z"/>
      <path class="cls-4" d="M228,55.05c.02.13.39.35.24.72-.29.03-.36-.39-.48-.48l.24-.24Z"/>
      <path class="cls-4" d="M192.72,22.2c.64.21.16.66-.48.48.09-.16.36-.31.48-.48Z"/>
      <path class="cls-4" d="M229.68,50.49l.03-.79.21-.16c-.08.15.2.54-.24.96Z"/>
      <path class="cls-4" d="M224.64,50.73c-.09-.57-.23-.12,0-.96v.96Z"/>
      <path class="cls-4" d="M226.8,48.1c-.45.05-.8-.14-1.08-.47l-.12.24s-.36-.12-.24-.48c.16-.13,1.2.53,1.44.72Z"/>
      <path class="cls-4" d="M226.08,53.61c-.21-.46-.57-.82-.48-1.44.35.46.48.86.48,1.44Z"/>
      <path class="cls-4" d="M229.44,50.49c-.22.1-.48.59-.72,0h.72Z"/>
      <path class="cls-4" d="M224.88,51.69c-.4-.3-.16-.48-.24-.72l.24.72Z"/>
      <path class="cls-4" d="M192.24,27.72c.06-.45.24-.68.24-.72l-.24.72Z"/>
      <path class="cls-4" d="M225.12,47.62s-.16-.2-.24-.48l.24.48Z"/>
      <path class="cls-4" d="M192.24,23.16c-.32.18-.54.37,0-.24v.24Z"/>
      <path class="cls-2" d="M87,25.8c.16.08.16.16,0,.24v-.24Z"/>
      <path class="cls-2" d="M108.84,44.98c.16.08.16.16,0,.24v-.24Z"/>
      <path class="cls-1" d="M201.66,16.15c.81.48,2.57-.05,3.47.47.48.28.74,1.07,1.26,1.39-.66-.12-1-1.03-1.67-1.23s-2.3.12-3.2-.09c-.27-.06-.17-.63-.77-.74-.93-.17-1.89.86-3,.49-.2-.86.95-.35,1.51-.48.19-.04.06-.43.51-.49,1.64-.23,1.32.35,1.87.67Z"/>
      <path class="cls-1" d="M197.28,16.69h-1.2c.51.79-.58,1.78.72,1.93-.4.94-1.37.22-2.04.23-.48,0-.95.28-1.45.27-.37,0-.42-.74-1.07-.51.4-.98.62.08,1.07.15.53.08,1.82-.35,2.53-.15v-2.39s1.44.48,1.44.48Z"/>
      <path class="cls-1" d="M192,18.61c-1.51-.02-2.66.77-2.47,2.34.07.54-.34.4-.41.3.05-.47-.12-1.09.04-1.53.1-.27.46-.28.61-.48.11-.15.03-.47.13-.57.1-.1,2.1-.88,2.11-.07Z"/>
      <path class="cls-1" d="M227.52,39.94v.48c-2.11.06-1.32.42-2.04,1.44-.29.41-.92.66-1.32.96,0-.16,0-.32,0-.48.22-.22.75-.23,1.07-.73.23-.37.34-1.36.4-1.4.07-.06,1.6-.24,1.9-.26Z"/>
      <path class="cls-4" d="M227.52,39.94c.39-.04.81.02,1.2,0v.72c-.42-.21-.74-.25-1.2-.24v-.48Z"/>
      <path class="cls-4" d="M224.16,42.82c0,.4,0,.8,0,1.2l-.48-.12c.1-.5.11-1.18.48-1.55,0,.16,0,.32,0,.48Z"/>
      <rect class="cls-4" x="192.96" y="24.84" width=".48" height=".96"/>
      <path class="cls-4" d="M194.88,28.44c.05.06-.03.52,0,.72h-.96c.15-.28.76-.95.96-.72Z"/>
      <path class="cls-4" d="M192.72,24.36c.16.08-.14.41-.48.23-.16-.08.14-.41.48-.23Z"/>
      <path class="cls-4" d="M192.48,24.12c-.08.16-.41-.14-.24-.48.08-.16.41.14.24.48Z"/>
      <path class="cls-4" d="M193.56,29.4c.16.08.16.16,0,.24v-.24Z"/>
      <path class="cls-4" d="M192.6,28.68c.16.08.16.16,0,.24v-.24Z"/>
      <path class="cls-4" d="M194.04,27.24c.16.08.16.16,0,.24v-.24Z"/>
      <path class="cls-1" d="M50.81,39.16c-1.84,2.18-10.25,1.72-12.93,1.2-1.49-.29-6.32-1.74-3.48-3.57s12.72-1.46,15.61.32c.74.46,1.51,1.21.8,2.05Z"/>
    </g>
  </g>
</svg>