<svg width="242" height="30" viewBox="0 0 242 30" fill="none" xmlns="http://www.w3.org/2000/svg">
<path fill-rule="evenodd" clip-rule="evenodd" d="M19.8011 11.705C19.385 10.8054 17.6972 10.8035 17.2776 11.7023L10.283 26.4142C9.86631 27.2906 8.98213 27.8486 8.01172 27.8477V27.8477C6.17459 27.8458 4.96072 25.9371 5.73809 24.2726L12.233 10.3651C14.3311 5.87138 22.77 5.88061 24.8508 10.3789L31.395 24.4007C32.1438 26.0049 30.9727 27.8438 29.2024 27.8438V27.8438C28.2781 27.8438 27.4345 27.3172 27.0286 26.4869L19.8011 11.705Z" fill="#5A5A5A"/>
<path fill-rule="evenodd" clip-rule="evenodd" d="M19.7997 9.37719C19.3836 8.34899 17.6958 8.34689 17.2762 9.37403L10.2512 26.2611C9.85271 27.2192 8.91646 27.843 7.87882 27.8418V27.8418C6.05633 27.8397 4.8167 25.9918 5.50608 24.3047L12.2316 7.84588C14.3297 2.71014 22.7686 2.7207 24.8494 7.86165L31.3174 24.755C31.8878 26.2447 30.7878 27.8438 29.1925 27.8438V27.8438C28.2815 27.8438 27.4583 27.3003 27.1003 26.4625L19.7997 9.37719Z" fill="#D8D8D8"/>
<path fill-rule="evenodd" clip-rule="evenodd" d="M19.5296 6.27339C19.1134 5.07382 17.4257 5.07137 17.006 6.2697L9.31165 27.8511L3.78125 27.8438L11.9615 4.48686C14.0596 -1.50483 22.4985 -1.49252 24.5793 4.50526L32.7304 27.8438H27.4204L19.5296 6.27339Z" fill="white"/>
<path d="M32.9999 8.99924C15.1949 12.6068 6.1097 22.5233 1.16516 26.8602L-0.00167237 27.9033L6.0757 28.2435C9.50497 22.2962 24.4361 11.5893 32.9999 8.99924Z" fill="#111111"/>
<path d="M33.5 9.84375C16.8115 14.9206 13.0083 21.5342 8.55085 26.6215L7.5 27.8438H13.5C15 22.8438 25.5186 13.2283 33.5 9.84375Z" fill="#5A5A5A"/>
<path d="M33.5 9.84375C16 16.3438 12.3645 21.6905 7.61944 26.7778L6.5 27.8438C8.90272 27.8438 10.2498 27.8438 12.6525 27.8438C15 22.3438 25 14.3438 33.5 9.84375Z" fill="#D8D8D8"/>
<path d="M42 5.84375C22.6199 10.9206 11.3993 21.6905 6.22289 26.7778L5 27.8438H11.7119C15.1208 21.0742 32.7312 9.2283 42 5.84375Z" fill="white"/>
<path d="M54.28 22.8438H52.24L57.52 8.38375H59.7L65 22.8438H62.94L61.64 19.2437H55.56L54.28 22.8438ZM58.36 11.5037L56.16 17.5437H61.06L58.84 11.5037C58.8 11.3571 58.7533 11.2104 58.7 11.0637C58.6467 10.9037 58.6133 10.7704 58.6 10.6637C58.5733 10.7704 58.54 10.9037 58.5 11.0637C58.46 11.2104 58.4133 11.3571 58.36 11.5037ZM66.2022 20.0037H68.0022C68.0022 20.4971 68.1822 20.8904 68.5422 21.1837C68.9022 21.4637 69.3889 21.6037 70.0022 21.6037C70.6689 21.6037 71.1822 21.4771 71.5422 21.2237C71.9022 20.9571 72.0822 20.6037 72.0822 20.1637C72.0822 19.8437 71.9822 19.5771 71.7822 19.3637C71.5955 19.1504 71.2489 18.9771 70.7422 18.8437L69.0222 18.4437C68.1555 18.2304 67.5089 17.9037 67.0822 17.4637C66.6689 17.0237 66.4622 16.4437 66.4622 15.7237C66.4622 15.1237 66.6155 14.6037 66.9222 14.1637C67.2422 13.7237 67.6755 13.3837 68.2222 13.1437C68.7822 12.9037 69.4222 12.7837 70.1422 12.7837C70.8622 12.7837 71.4822 12.9104 72.0022 13.1637C72.5355 13.4171 72.9489 13.7704 73.2422 14.2237C73.5489 14.6771 73.7089 15.2171 73.7222 15.8437H71.9222C71.9089 15.3371 71.7422 14.9437 71.4222 14.6637C71.1022 14.3837 70.6555 14.2437 70.0822 14.2437C69.4955 14.2437 69.0422 14.3704 68.7222 14.6237C68.4022 14.8771 68.2422 15.2237 68.2422 15.6637C68.2422 16.3171 68.7222 16.7637 69.6822 17.0037L71.4022 17.4237C72.2289 17.6104 72.8489 17.9171 73.2622 18.3437C73.6755 18.7571 73.8822 19.3237 73.8822 20.0437C73.8822 20.6571 73.7155 21.1971 73.3822 21.6637C73.0489 22.1171 72.5889 22.4704 72.0022 22.7237C71.4289 22.9638 70.7489 23.0838 69.9622 23.0838C68.8155 23.0838 67.9022 22.8037 67.2222 22.2437C66.5422 21.6837 66.2022 20.9371 66.2022 20.0037ZM75.327 13.0637H81.047V14.6437H75.327V13.0637ZM79.127 22.8438H77.247V10.0037H79.127V22.8438ZM88.7342 12.9837V14.7037H87.8942C87.0009 14.7037 86.2942 14.9637 85.7742 15.4837C85.2676 15.9904 85.0142 16.7171 85.0142 17.6637V22.8438H83.1342V13.0837H84.8942L85.0542 15.0437H84.8742C85.0076 14.4037 85.3276 13.8837 85.8342 13.4837C86.3409 13.0704 86.9742 12.8637 87.7342 12.8637C87.9076 12.8637 88.0676 12.8771 88.2142 12.9037C88.3742 12.9171 88.5476 12.9437 88.7342 12.9837ZM93.3669 23.0838C92.3269 23.0838 91.5069 22.8104 90.9069 22.2637C90.3202 21.7171 90.0269 21.0037 90.0269 20.1237C90.0269 19.2304 90.3469 18.5171 90.9869 17.9837C91.6269 17.4371 92.5202 17.1171 93.6669 17.0237L96.7469 16.7837V16.5037C96.7469 15.9571 96.6469 15.5237 96.4469 15.2037C96.2469 14.8704 95.9735 14.6371 95.6269 14.5037C95.2802 14.3571 94.8869 14.2837 94.4469 14.2837C93.6602 14.2837 93.0469 14.4504 92.6069 14.7837C92.1802 15.1037 91.9669 15.5637 91.9669 16.1637H90.3269C90.3269 15.4837 90.5002 14.8904 90.8469 14.3837C91.1935 13.8771 91.6802 13.4837 92.3069 13.2037C92.9469 12.9237 93.6869 12.7837 94.5269 12.7837C95.3402 12.7837 96.0469 12.9304 96.6469 13.2237C97.2602 13.5037 97.7335 13.9371 98.0669 14.5237C98.4135 15.0971 98.5869 15.8237 98.5869 16.7037V22.8438H96.9869L96.7869 21.2637C96.5335 21.8237 96.0935 22.2704 95.4669 22.6037C94.8535 22.9238 94.1535 23.0838 93.3669 23.0838ZM93.9069 21.6237C94.8002 21.6237 95.5002 21.3571 96.0069 20.8237C96.5135 20.2771 96.7669 19.5437 96.7669 18.6237V18.1037L94.2669 18.3037C93.4402 18.3837 92.8402 18.5771 92.4669 18.8837C92.1069 19.1904 91.9269 19.5837 91.9269 20.0637C91.9269 20.5837 92.1002 20.9771 92.4469 21.2437C92.8069 21.4971 93.2935 21.6237 93.9069 21.6237ZM103.51 22.8438H101.63V8.12375H103.51V22.8438ZM108.958 8.38375V22.8438H106.998V8.38375H108.958ZM115.718 10.1837H107.138V8.38375H115.718V10.1837ZM114.638 16.7037H107.098V14.9237H114.638V16.7037ZM124.326 13.0637H126.186V22.8438H124.506L124.306 21.3637C124.026 21.8704 123.586 22.2837 122.986 22.6037C122.386 22.9238 121.726 23.0838 121.006 23.0838C119.873 23.0838 118.993 22.7304 118.366 22.0237C117.753 21.3037 117.446 20.3437 117.446 19.1437V13.0637H119.326V18.5237C119.326 19.5637 119.533 20.3104 119.946 20.7637C120.373 21.2037 120.946 21.4237 121.666 21.4237C122.533 21.4237 123.193 21.1571 123.646 20.6237C124.1 20.0771 124.326 19.2771 124.326 18.2237V13.0637ZM131.194 22.8438H129.314V13.0637H131.014L131.214 14.5637C131.521 14.0037 131.961 13.5704 132.534 13.2637C133.121 12.9437 133.761 12.7837 134.454 12.7837C135.734 12.7837 136.681 13.1504 137.294 13.8837C137.907 14.6171 138.214 15.6104 138.214 16.8637V22.8438H136.334V17.2837C136.334 16.2971 136.121 15.5904 135.694 15.1637C135.267 14.7237 134.694 14.5037 133.974 14.5037C133.094 14.5037 132.407 14.7904 131.914 15.3637C131.434 15.9371 131.194 16.7037 131.194 17.6637V22.8438ZM145.138 23.0838C144.191 23.0838 143.378 22.8704 142.698 22.4437C142.018 22.0037 141.491 21.3971 141.118 20.6237C140.758 19.8504 140.578 18.9704 140.578 17.9837C140.578 16.9837 140.764 16.0971 141.138 15.3237C141.511 14.5371 142.044 13.9171 142.738 13.4637C143.431 13.0104 144.258 12.7837 145.218 12.7837C145.978 12.7837 146.651 12.9437 147.238 13.2637C147.838 13.5704 148.304 14.0304 148.638 14.6437V8.12375H150.498V22.8438H148.818L148.658 21.0637C148.338 21.7171 147.864 22.2171 147.238 22.5637C146.624 22.9104 145.924 23.0838 145.138 23.0838ZM145.518 21.3837C146.158 21.3837 146.704 21.2371 147.158 20.9437C147.624 20.6504 147.984 20.2437 148.238 19.7237C148.491 19.2037 148.618 18.6037 148.618 17.9237C148.618 17.2437 148.491 16.6504 148.238 16.1437C147.984 15.6237 147.624 15.2171 147.158 14.9237C146.704 14.6304 146.158 14.4837 145.518 14.4837C144.878 14.4837 144.331 14.6371 143.878 14.9437C143.424 15.2371 143.078 15.6437 142.838 16.1637C142.598 16.6704 142.478 17.2571 142.478 17.9237C142.478 18.6037 142.598 19.2037 142.838 19.7237C143.078 20.2437 143.424 20.6504 143.878 20.9437C144.331 21.2371 144.878 21.3837 145.518 21.3837ZM161.759 8.38375V22.8438H159.799V8.38375H161.759ZM168.519 10.1837H159.939V8.38375H168.519V10.1837ZM167.439 16.7037H159.899V14.9237H167.439V16.7037ZM170.973 22.8438V13.0637H172.853V22.8438H170.973ZM171.893 10.7437C171.559 10.7437 171.266 10.6237 171.013 10.3837C170.773 10.1304 170.653 9.83708 170.653 9.50375C170.653 9.15708 170.773 8.86375 171.013 8.62375C171.266 8.38375 171.559 8.26375 171.893 8.26375C172.239 8.26375 172.533 8.38375 172.773 8.62375C173.013 8.86375 173.133 9.15708 173.133 9.50375C173.133 9.83708 173.013 10.1304 172.773 10.3837C172.533 10.6237 172.239 10.7437 171.893 10.7437ZM177.862 22.8438H175.982V13.0637H177.682L177.882 14.5637C178.189 14.0037 178.629 13.5704 179.202 13.2637C179.789 12.9437 180.429 12.7837 181.122 12.7837C182.402 12.7837 183.349 13.1504 183.962 13.8837C184.575 14.6171 184.882 15.6104 184.882 16.8637V22.8438H183.002V17.2837C183.002 16.2971 182.789 15.5904 182.362 15.1637C181.935 14.7237 181.362 14.5037 180.642 14.5037C179.762 14.5037 179.075 14.7904 178.582 15.3637C178.102 15.9371 177.862 16.7037 177.862 17.6637V22.8438ZM190.746 23.0838C189.706 23.0838 188.886 22.8104 188.286 22.2637C187.699 21.7171 187.406 21.0037 187.406 20.1237C187.406 19.2304 187.726 18.5171 188.366 17.9837C189.006 17.4371 189.899 17.1171 191.046 17.0237L194.126 16.7837V16.5037C194.126 15.9571 194.026 15.5237 193.826 15.2037C193.626 14.8704 193.352 14.6371 193.006 14.5037C192.659 14.3571 192.266 14.2837 191.826 14.2837C191.039 14.2837 190.426 14.4504 189.986 14.7837C189.559 15.1037 189.346 15.5637 189.346 16.1637H187.706C187.706 15.4837 187.879 14.8904 188.226 14.3837C188.572 13.8771 189.059 13.4837 189.686 13.2037C190.326 12.9237 191.066 12.7837 191.906 12.7837C192.719 12.7837 193.426 12.9304 194.026 13.2237C194.639 13.5037 195.112 13.9371 195.446 14.5237C195.792 15.0971 195.966 15.8237 195.966 16.7037V22.8438H194.366L194.166 21.2637C193.912 21.8237 193.472 22.2704 192.846 22.6037C192.232 22.9238 191.532 23.0838 190.746 23.0838ZM191.286 21.6237C192.179 21.6237 192.879 21.3571 193.386 20.8237C193.892 20.2771 194.146 19.5437 194.146 18.6237V18.1037L191.646 18.3037C190.819 18.3837 190.219 18.5771 189.846 18.8837C189.486 19.1904 189.306 19.5837 189.306 20.0637C189.306 20.5837 189.479 20.9771 189.826 21.2437C190.186 21.4971 190.672 21.6237 191.286 21.6237ZM200.849 22.8438H198.969V13.0637H200.669L200.869 14.5637C201.176 14.0037 201.616 13.5704 202.189 13.2637C202.776 12.9437 203.416 12.7837 204.109 12.7837C205.389 12.7837 206.336 13.1504 206.949 13.8837C207.563 14.6171 207.869 15.6104 207.869 16.8637V22.8438H205.989V17.2837C205.989 16.2971 205.776 15.5904 205.349 15.1637C204.923 14.7237 204.349 14.5037 203.629 14.5037C202.749 14.5037 202.063 14.7904 201.569 15.3637C201.089 15.9371 200.849 16.7037 200.849 17.6637V22.8438ZM210.233 17.9637C210.233 16.9371 210.433 16.0371 210.833 15.2637C211.247 14.4904 211.813 13.8837 212.533 13.4437C213.253 13.0037 214.087 12.7837 215.033 12.7837C216.26 12.7837 217.28 13.1104 218.093 13.7637C218.907 14.4171 219.393 15.2837 219.553 16.3637H217.673C217.513 15.7371 217.2 15.2637 216.733 14.9437C216.267 14.6237 215.72 14.4637 215.093 14.4637C214.507 14.4637 213.987 14.6104 213.533 14.9037C213.08 15.1837 212.727 15.5837 212.473 16.1037C212.22 16.6237 212.093 17.2371 212.093 17.9437C212.093 18.6504 212.213 19.2637 212.453 19.7837C212.693 20.2904 213.033 20.6904 213.473 20.9837C213.913 21.2637 214.427 21.4037 215.013 21.4037C215.68 21.4037 216.253 21.2371 216.733 20.9037C217.213 20.5704 217.533 20.1171 217.693 19.5437H219.573C219.453 20.2504 219.18 20.8704 218.753 21.4037C218.34 21.9237 217.807 22.3371 217.153 22.6437C216.513 22.9371 215.8 23.0838 215.013 23.0838C214.053 23.0838 213.213 22.8704 212.493 22.4437C211.787 22.0171 211.233 21.4237 210.833 20.6637C210.433 19.8904 210.233 18.9904 210.233 17.9637ZM221.957 22.8438V13.0637H223.837V22.8438H221.957ZM222.877 10.7437C222.544 10.7437 222.25 10.6237 221.997 10.3837C221.757 10.1304 221.637 9.83708 221.637 9.50375C221.637 9.15708 221.757 8.86375 221.997 8.62375C222.25 8.38375 222.544 8.26375 222.877 8.26375C223.224 8.26375 223.517 8.38375 223.757 8.62375C223.997 8.86375 224.117 9.15708 224.117 9.50375C224.117 9.83708 223.997 10.1304 223.757 10.3837C223.517 10.6237 223.224 10.7437 222.877 10.7437ZM229.826 23.0838C228.786 23.0838 227.966 22.8104 227.366 22.2637C226.78 21.7171 226.486 21.0037 226.486 20.1237C226.486 19.2304 226.806 18.5171 227.446 17.9837C228.086 17.4371 228.98 17.1171 230.126 17.0237L233.206 16.7837V16.5037C233.206 15.9571 233.106 15.5237 232.906 15.2037C232.706 14.8704 232.433 14.6371 232.086 14.5037C231.74 14.3571 231.346 14.2837 230.906 14.2837C230.12 14.2837 229.506 14.4504 229.066 14.7837C228.64 15.1037 228.426 15.5637 228.426 16.1637H226.786C226.786 15.4837 226.96 14.8904 227.306 14.3837C227.653 13.8771 228.14 13.4837 228.766 13.2037C229.406 12.9237 230.146 12.7837 230.986 12.7837C231.8 12.7837 232.506 12.9304 233.106 13.2237C233.72 13.5037 234.193 13.9371 234.526 14.5237C234.873 15.0971 235.046 15.8237 235.046 16.7037V22.8438H233.446L233.246 21.2637C232.993 21.8237 232.553 22.2704 231.926 22.6037C231.313 22.9238 230.613 23.0838 229.826 23.0838ZM230.366 21.6237C231.26 21.6237 231.96 21.3571 232.466 20.8237C232.973 20.2771 233.226 19.5437 233.226 18.6237V18.1037L230.726 18.3037C229.9 18.3837 229.3 18.5771 228.926 18.8837C228.566 19.1904 228.386 19.5837 228.386 20.0637C228.386 20.5837 228.56 20.9771 228.906 21.2437C229.266 21.4971 229.753 21.6237 230.366 21.6237ZM239.97 22.8438H238.09V8.12375H239.97V22.8438Z" fill="white"/>
</svg>
